<svg xmlns="http://www.w3.org/2000/svg" xmlns:xlink="http://www.w3.org/1999/xlink" width="450" zoomAndPan="magnify" viewBox="0 0 337.5 112.499997" height="150" preserveAspectRatio="xMidYMid meet" version="1.0"><defs><g/><clipPath id="65b8dcee80"><path d="M 0.496094 0 L 336.503906 0 L 336.503906 112.003906 L 0.496094 112.003906 Z M 0.496094 0 " clip-rule="nonzero"/></clipPath><clipPath id="bfa8c68edf"><path d="M 4 0 L 330 0 L 330 112.003906 L 4 112.003906 Z M 4 0 " clip-rule="nonzero"/></clipPath><clipPath id="1e67ff3157"><path d="M 0.558594 0 L 78 0 L 78 112.003906 L 0.558594 112.003906 Z M 0.558594 0 " clip-rule="nonzero"/></clipPath><clipPath id="26524c4b6f"><rect x="0" width="78" y="0" height="113"/></clipPath><clipPath id="a22c0f0599"><path d="M 30 21 L 107 21 L 107 112.003906 L 30 112.003906 Z M 30 21 " clip-rule="nonzero"/></clipPath><clipPath id="b40cf4a5ba"><rect x="0" width="77" y="0" height="92"/></clipPath><clipPath id="bef08a5375"><rect x="0" width="158" y="0" height="15"/></clipPath><clipPath id="975ac6cc14"><path d="M 110 34 L 325.992188 34 L 325.992188 69 L 110 69 Z M 110 34 " clip-rule="nonzero"/></clipPath><clipPath id="21b0c26abf"><rect x="0" width="216" y="0" height="35"/></clipPath><clipPath id="04d9e78705"><rect x="0" width="326" y="0" height="113"/></clipPath></defs><g clip-path="url(#65b8dcee80)"><path fill="#ffffff" d="M 0.496094 0 L 336.503906 0 L 336.503906 112.003906 L 0.496094 112.003906 Z M 0.496094 0 " fill-opacity="1" fill-rule="nonzero"/><path fill="#211e1e" d="M 0.496094 0 L 336.503906 0 L 336.503906 112.003906 L 0.496094 112.003906 Z M 0.496094 0 " fill-opacity="1" fill-rule="nonzero"/></g><g clip-path="url(#bfa8c68edf)"><g transform="matrix(1, 0, 0, 1, 4, 0)"><g clip-path="url(#04d9e78705)"><g clip-path="url(#1e67ff3157)"><g><g clip-path="url(#26524c4b6f)"><g fill="#faf2f1" fill-opacity="1"><g transform="translate(1.144642, 85.137702)"><g><path d="M 30.671875 0 L 4.078125 0 L 4.078125 -82.34375 L 30.671875 -82.34375 C 36.265625 -82.34375 41.507812 -81.269531 46.40625 -79.125 C 51.3125 -76.988281 55.648438 -74.035156 59.421875 -70.265625 C 63.191406 -66.492188 66.144531 -62.117188 68.28125 -57.140625 C 70.414062 -52.171875 71.484375 -46.804688 71.484375 -41.046875 C 71.484375 -35.367188 70.414062 -30.039062 68.28125 -25.0625 C 66.144531 -20.09375 63.191406 -15.722656 59.421875 -11.953125 C 55.648438 -8.179688 51.3125 -5.242188 46.40625 -3.140625 C 41.507812 -1.046875 36.265625 0 30.671875 0 Z M 13.171875 -81.515625 L 13.171875 -0.9375 L 30.671875 -0.9375 C 35.097656 -0.9375 39.253906 -1.960938 43.140625 -4.015625 C 47.035156 -6.078125 50.457031 -8.953125 53.40625 -12.640625 C 56.363281 -16.335938 58.675781 -20.597656 60.34375 -25.421875 C 62.019531 -30.242188 62.859375 -35.453125 62.859375 -41.046875 C 62.859375 -46.648438 62.019531 -51.878906 60.34375 -56.734375 C 58.675781 -61.597656 56.363281 -65.894531 53.40625 -69.625 C 50.457031 -73.351562 47.035156 -76.265625 43.140625 -78.359375 C 39.253906 -80.460938 35.097656 -81.515625 30.671875 -81.515625 Z M 13.171875 -81.515625 "/></g></g></g></g></g></g><g clip-path="url(#a22c0f0599)"><g transform="matrix(1, 0, 0, 1, 30, 21)"><g clip-path="url(#b40cf4a5ba)"><g fill="#faf2f1" fill-opacity="1"><g transform="translate(0.650035, 86.53301)"><g><path d="M 30.671875 0 L 4.078125 0 L 4.078125 -82.34375 L 30.671875 -82.34375 C 36.265625 -82.34375 41.507812 -81.269531 46.40625 -79.125 C 51.3125 -76.988281 55.648438 -74.035156 59.421875 -70.265625 C 63.191406 -66.492188 66.144531 -62.117188 68.28125 -57.140625 C 70.414062 -52.171875 71.484375 -46.804688 71.484375 -41.046875 C 71.484375 -35.367188 70.414062 -30.039062 68.28125 -25.0625 C 66.144531 -20.09375 63.191406 -15.722656 59.421875 -11.953125 C 55.648438 -8.179688 51.3125 -5.242188 46.40625 -3.140625 C 41.507812 -1.046875 36.265625 0 30.671875 0 Z M 13.171875 -81.515625 L 13.171875 -0.9375 L 30.671875 -0.9375 C 35.097656 -0.9375 39.253906 -1.960938 43.140625 -4.015625 C 47.035156 -6.078125 50.457031 -8.953125 53.40625 -12.640625 C 56.363281 -16.335938 58.675781 -20.597656 60.34375 -25.421875 C 62.019531 -30.242188 62.859375 -35.453125 62.859375 -41.046875 C 62.859375 -46.648438 62.019531 -51.878906 60.34375 -56.734375 C 58.675781 -61.597656 56.363281 -65.894531 53.40625 -69.625 C 50.457031 -73.351562 47.035156 -76.265625 43.140625 -78.359375 C 39.253906 -80.460938 35.097656 -81.515625 30.671875 -81.515625 Z M 13.171875 -81.515625 "/></g></g></g></g></g></g><g transform="matrix(1, 0, 0, 1, 140, 65)"><g clip-path="url(#bef08a5375)"><g fill="#faf2f1" fill-opacity="1"><g transform="translate(0.198529, 11.155619)"><g><path d="M 4.046875 0 L 1.96875 -6 L 1.9375 -6 C 1.945312 -5.863281 1.957031 -5.675781 1.96875 -5.4375 C 1.976562 -5.207031 1.988281 -4.957031 2 -4.6875 C 2.007812 -4.425781 2.015625 -4.175781 2.015625 -3.9375 L 2.015625 0 L 0.9375 0 L 0.9375 -7.1875 L 2.59375 -7.1875 L 4.59375 -1.453125 L 4.625 -1.453125 L 6.671875 -7.1875 L 8.328125 -7.1875 L 8.328125 0 L 7.203125 0 L 7.203125 -4 C 7.203125 -4.21875 7.207031 -4.453125 7.21875 -4.703125 C 7.226562 -4.960938 7.238281 -5.207031 7.25 -5.4375 C 7.257812 -5.664062 7.265625 -5.847656 7.265625 -5.984375 L 7.234375 -5.984375 L 5.078125 0 Z M 4.046875 0 "/></g></g></g><g fill="#faf2f1" fill-opacity="1"><g transform="translate(11.474851, 11.155619)"><g><path d="M 7.328125 -3.59375 C 7.328125 -3.039062 7.253906 -2.535156 7.109375 -2.078125 C 6.972656 -1.628906 6.765625 -1.242188 6.484375 -0.921875 C 6.203125 -0.597656 5.851562 -0.347656 5.4375 -0.171875 C 5.019531 0.00390625 4.53125 0.09375 3.96875 0.09375 C 3.394531 0.09375 2.894531 0.00390625 2.46875 -0.171875 C 2.050781 -0.347656 1.703125 -0.597656 1.421875 -0.921875 C 1.148438 -1.253906 0.941406 -1.644531 0.796875 -2.09375 C 0.660156 -2.550781 0.59375 -3.054688 0.59375 -3.609375 C 0.59375 -4.347656 0.710938 -4.992188 0.953125 -5.546875 C 1.203125 -6.097656 1.578125 -6.523438 2.078125 -6.828125 C 2.578125 -7.140625 3.207031 -7.296875 3.96875 -7.296875 C 4.71875 -7.296875 5.335938 -7.140625 5.828125 -6.828125 C 6.328125 -6.523438 6.703125 -6.097656 6.953125 -5.546875 C 7.203125 -5.003906 7.328125 -4.351562 7.328125 -3.59375 Z M 1.84375 -3.59375 C 1.84375 -3.039062 1.914062 -2.5625 2.0625 -2.15625 C 2.21875 -1.757812 2.453125 -1.453125 2.765625 -1.234375 C 3.078125 -1.015625 3.476562 -0.90625 3.96875 -0.90625 C 4.457031 -0.90625 4.859375 -1.015625 5.171875 -1.234375 C 5.484375 -1.453125 5.710938 -1.757812 5.859375 -2.15625 C 6.003906 -2.5625 6.078125 -3.039062 6.078125 -3.59375 C 6.078125 -4.4375 5.910156 -5.097656 5.578125 -5.578125 C 5.242188 -6.054688 4.707031 -6.296875 3.96875 -6.296875 C 3.476562 -6.296875 3.078125 -6.1875 2.765625 -5.96875 C 2.453125 -5.75 2.21875 -5.4375 2.0625 -5.03125 C 1.914062 -4.632812 1.84375 -4.15625 1.84375 -3.59375 Z M 1.84375 -3.59375 "/></g></g></g><g fill="#faf2f1" fill-opacity="1"><g transform="translate(21.400921, 11.155619)"><g><path d="M 4.046875 0 L 1.96875 -6 L 1.9375 -6 C 1.945312 -5.863281 1.957031 -5.675781 1.96875 -5.4375 C 1.976562 -5.207031 1.988281 -4.957031 2 -4.6875 C 2.007812 -4.425781 2.015625 -4.175781 2.015625 -3.9375 L 2.015625 0 L 0.9375 0 L 0.9375 -7.1875 L 2.59375 -7.1875 L 4.59375 -1.453125 L 4.625 -1.453125 L 6.671875 -7.1875 L 8.328125 -7.1875 L 8.328125 0 L 7.203125 0 L 7.203125 -4 C 7.203125 -4.21875 7.207031 -4.453125 7.21875 -4.703125 C 7.226562 -4.960938 7.238281 -5.207031 7.25 -5.4375 C 7.257812 -5.664062 7.265625 -5.847656 7.265625 -5.984375 L 7.234375 -5.984375 L 5.078125 0 Z M 4.046875 0 "/></g></g></g><g fill="#faf2f1" fill-opacity="1"><g transform="translate(32.677244, 11.155619)"><g><path d="M 5.015625 0 L 0.9375 0 L 0.9375 -7.1875 L 5.015625 -7.1875 L 5.015625 -6.1875 L 2.125 -6.1875 L 2.125 -4.234375 L 4.828125 -4.234375 L 4.828125 -3.25 L 2.125 -3.25 L 2.125 -1 L 5.015625 -1 Z M 5.015625 0 "/></g></g></g><g fill="#faf2f1" fill-opacity="1"><g transform="translate(40.300519, 11.155619)"><g><path d="M 6.9375 0 L 5.484375 0 L 1.96875 -5.734375 L 1.921875 -5.734375 C 1.941406 -5.535156 1.957031 -5.328125 1.96875 -5.109375 C 1.976562 -4.898438 1.984375 -4.679688 1.984375 -4.453125 C 1.992188 -4.222656 2.003906 -3.988281 2.015625 -3.75 L 2.015625 0 L 0.9375 0 L 0.9375 -7.1875 L 2.390625 -7.1875 L 5.890625 -1.484375 L 5.9375 -1.484375 C 5.925781 -1.648438 5.914062 -1.84375 5.90625 -2.0625 C 5.894531 -2.28125 5.882812 -2.503906 5.875 -2.734375 C 5.863281 -2.960938 5.859375 -3.1875 5.859375 -3.40625 L 5.859375 -7.1875 L 6.9375 -7.1875 Z M 6.9375 0 "/></g></g></g><g fill="#faf2f1" fill-opacity="1"><g transform="translate(50.187308, 11.155619)"><g><path d="M 3.4375 0 L 2.25 0 L 2.25 -6.1875 L 0.140625 -6.1875 L 0.140625 -7.1875 L 5.53125 -7.1875 L 5.53125 -6.1875 L 3.4375 -6.1875 Z M 3.4375 0 "/></g></g></g><g fill="#faf2f1" fill-opacity="1"><g transform="translate(57.879323, 11.155619)"><g><path d="M 5.09375 -1.953125 C 5.09375 -1.523438 4.988281 -1.15625 4.78125 -0.84375 C 4.570312 -0.539062 4.269531 -0.304688 3.875 -0.140625 C 3.488281 0.015625 3.03125 0.09375 2.5 0.09375 C 2.238281 0.09375 1.988281 0.078125 1.75 0.046875 C 1.507812 0.0234375 1.28125 -0.0078125 1.0625 -0.0625 C 0.851562 -0.125 0.660156 -0.195312 0.484375 -0.28125 L 0.484375 -1.390625 C 0.773438 -1.265625 1.101562 -1.148438 1.46875 -1.046875 C 1.832031 -0.941406 2.195312 -0.890625 2.5625 -0.890625 C 2.875 -0.890625 3.128906 -0.929688 3.328125 -1.015625 C 3.523438 -1.097656 3.671875 -1.210938 3.765625 -1.359375 C 3.867188 -1.503906 3.921875 -1.675781 3.921875 -1.875 C 3.921875 -2.09375 3.863281 -2.273438 3.75 -2.421875 C 3.632812 -2.566406 3.460938 -2.703125 3.234375 -2.828125 C 3.003906 -2.953125 2.71875 -3.082031 2.375 -3.21875 C 2.132812 -3.3125 1.90625 -3.421875 1.6875 -3.546875 C 1.476562 -3.671875 1.289062 -3.8125 1.125 -3.96875 C 0.957031 -4.132812 0.820312 -4.328125 0.71875 -4.546875 C 0.625 -4.773438 0.578125 -5.039062 0.578125 -5.34375 C 0.578125 -5.75 0.675781 -6.097656 0.875 -6.390625 C 1.070312 -6.679688 1.347656 -6.898438 1.703125 -7.046875 C 2.054688 -7.203125 2.46875 -7.28125 2.9375 -7.28125 C 3.320312 -7.28125 3.675781 -7.238281 4 -7.15625 C 4.332031 -7.082031 4.660156 -6.972656 4.984375 -6.828125 L 4.609375 -5.890625 C 4.316406 -6.003906 4.03125 -6.097656 3.75 -6.171875 C 3.476562 -6.242188 3.195312 -6.28125 2.90625 -6.28125 C 2.65625 -6.28125 2.441406 -6.242188 2.265625 -6.171875 C 2.097656 -6.097656 1.96875 -5.992188 1.875 -5.859375 C 1.789062 -5.722656 1.75 -5.5625 1.75 -5.375 C 1.75 -5.164062 1.796875 -4.988281 1.890625 -4.84375 C 1.992188 -4.695312 2.15625 -4.566406 2.375 -4.453125 C 2.59375 -4.335938 2.875 -4.207031 3.21875 -4.0625 C 3.613281 -3.894531 3.945312 -3.71875 4.21875 -3.53125 C 4.5 -3.351562 4.710938 -3.140625 4.859375 -2.890625 C 5.015625 -2.640625 5.09375 -2.328125 5.09375 -1.953125 Z M 5.09375 -1.953125 "/></g></g></g><g fill="#faf2f1" fill-opacity="1"><g transform="translate(65.419127, 11.155619)"><g/></g></g><g fill="#faf2f1" fill-opacity="1"><g transform="translate(70.042385, 11.155619)"><g><path d="M 4.046875 0 L 1.96875 -6 L 1.9375 -6 C 1.945312 -5.863281 1.957031 -5.675781 1.96875 -5.4375 C 1.976562 -5.207031 1.988281 -4.957031 2 -4.6875 C 2.007812 -4.425781 2.015625 -4.175781 2.015625 -3.9375 L 2.015625 0 L 0.9375 0 L 0.9375 -7.1875 L 2.59375 -7.1875 L 4.59375 -1.453125 L 4.625 -1.453125 L 6.671875 -7.1875 L 8.328125 -7.1875 L 8.328125 0 L 7.203125 0 L 7.203125 -4 C 7.203125 -4.21875 7.207031 -4.453125 7.21875 -4.703125 C 7.226562 -4.960938 7.238281 -5.207031 7.25 -5.4375 C 7.257812 -5.664062 7.265625 -5.847656 7.265625 -5.984375 L 7.234375 -5.984375 L 5.078125 0 Z M 4.046875 0 "/></g></g></g><g fill="#faf2f1" fill-opacity="1"><g transform="translate(81.318708, 11.155619)"><g><path d="M 5.390625 0 L 4.6875 -2 L 1.953125 -2 L 1.25 0 L 0 0 L 2.671875 -7.21875 L 3.984375 -7.21875 L 6.640625 0 Z M 4.390625 -3 L 3.703125 -4.96875 C 3.679688 -5.050781 3.644531 -5.171875 3.59375 -5.328125 C 3.539062 -5.484375 3.488281 -5.640625 3.4375 -5.796875 C 3.394531 -5.960938 3.359375 -6.101562 3.328125 -6.21875 C 3.285156 -6.082031 3.238281 -5.929688 3.1875 -5.765625 C 3.144531 -5.597656 3.101562 -5.441406 3.0625 -5.296875 C 3.019531 -5.160156 2.988281 -5.050781 2.96875 -4.96875 L 2.28125 -3 Z M 4.390625 -3 "/></g></g></g><g fill="#faf2f1" fill-opacity="1"><g transform="translate(89.977995, 11.155619)"><g><path d="M 6.78125 -3.65625 C 6.78125 -2.851562 6.628906 -2.179688 6.328125 -1.640625 C 6.023438 -1.097656 5.585938 -0.6875 5.015625 -0.40625 C 4.441406 -0.132812 3.75 0 2.9375 0 L 0.9375 0 L 0.9375 -7.1875 L 3.15625 -7.1875 C 3.894531 -7.1875 4.535156 -7.050781 5.078125 -6.78125 C 5.617188 -6.507812 6.035156 -6.113281 6.328125 -5.59375 C 6.628906 -5.070312 6.78125 -4.425781 6.78125 -3.65625 Z M 5.546875 -3.625 C 5.546875 -4.21875 5.453125 -4.703125 5.265625 -5.078125 C 5.078125 -5.460938 4.804688 -5.742188 4.453125 -5.921875 C 4.097656 -6.109375 3.65625 -6.203125 3.125 -6.203125 L 2.125 -6.203125 L 2.125 -0.984375 L 2.953125 -0.984375 C 3.828125 -0.984375 4.476562 -1.203125 4.90625 -1.640625 C 5.332031 -2.085938 5.546875 -2.75 5.546875 -3.625 Z M 5.546875 -3.625 "/></g></g></g><g fill="#faf2f1" fill-opacity="1"><g transform="translate(99.359053, 11.155619)"><g><path d="M 5.015625 0 L 0.9375 0 L 0.9375 -7.1875 L 5.015625 -7.1875 L 5.015625 -6.1875 L 2.125 -6.1875 L 2.125 -4.234375 L 4.828125 -4.234375 L 4.828125 -3.25 L 2.125 -3.25 L 2.125 -1 L 5.015625 -1 Z M 5.015625 0 "/></g></g></g><g fill="#faf2f1" fill-opacity="1"><g transform="translate(106.982328, 11.155619)"><g/></g></g><g fill="#faf2f1" fill-opacity="1"><g transform="translate(111.605585, 11.155619)"><g><path d="M 6.78125 -3.65625 C 6.78125 -2.851562 6.628906 -2.179688 6.328125 -1.640625 C 6.023438 -1.097656 5.585938 -0.6875 5.015625 -0.40625 C 4.441406 -0.132812 3.75 0 2.9375 0 L 0.9375 0 L 0.9375 -7.1875 L 3.15625 -7.1875 C 3.894531 -7.1875 4.535156 -7.050781 5.078125 -6.78125 C 5.617188 -6.507812 6.035156 -6.113281 6.328125 -5.59375 C 6.628906 -5.070312 6.78125 -4.425781 6.78125 -3.65625 Z M 5.546875 -3.625 C 5.546875 -4.21875 5.453125 -4.703125 5.265625 -5.078125 C 5.078125 -5.460938 4.804688 -5.742188 4.453125 -5.921875 C 4.097656 -6.109375 3.65625 -6.203125 3.125 -6.203125 L 2.125 -6.203125 L 2.125 -0.984375 L 2.953125 -0.984375 C 3.828125 -0.984375 4.476562 -1.203125 4.90625 -1.640625 C 5.332031 -2.085938 5.546875 -2.75 5.546875 -3.625 Z M 5.546875 -3.625 "/></g></g></g><g fill="#faf2f1" fill-opacity="1"><g transform="translate(120.986644, 11.155619)"><g><path d="M 0.9375 0 L 0.9375 -7.1875 L 2.125 -7.1875 L 2.125 0 Z M 0.9375 0 "/></g></g></g><g fill="#faf2f1" fill-opacity="1"><g transform="translate(126.066533, 11.155619)"><g><path d="M 6.265625 -7.1875 L 3.765625 0 L 2.515625 0 L 0 -7.1875 L 1.203125 -7.1875 L 2.71875 -2.6875 C 2.769531 -2.550781 2.820312 -2.390625 2.875 -2.203125 C 2.925781 -2.015625 2.972656 -1.828125 3.015625 -1.640625 C 3.066406 -1.453125 3.109375 -1.285156 3.140625 -1.140625 C 3.160156 -1.285156 3.191406 -1.453125 3.234375 -1.640625 C 3.285156 -1.828125 3.335938 -2.015625 3.390625 -2.203125 C 3.441406 -2.390625 3.492188 -2.550781 3.546875 -2.6875 L 5.0625 -7.1875 Z M 6.265625 -7.1875 "/></g></g></g><g fill="#faf2f1" fill-opacity="1"><g transform="translate(134.342839, 11.155619)"><g><path d="M 0.9375 0 L 0.9375 -7.1875 L 2.125 -7.1875 L 2.125 0 Z M 0.9375 0 "/></g></g></g><g fill="#faf2f1" fill-opacity="1"><g transform="translate(139.422727, 11.155619)"><g><path d="M 6.9375 0 L 5.484375 0 L 1.96875 -5.734375 L 1.921875 -5.734375 C 1.941406 -5.535156 1.957031 -5.328125 1.96875 -5.109375 C 1.976562 -4.898438 1.984375 -4.679688 1.984375 -4.453125 C 1.992188 -4.222656 2.003906 -3.988281 2.015625 -3.75 L 2.015625 0 L 0.9375 0 L 0.9375 -7.1875 L 2.390625 -7.1875 L 5.890625 -1.484375 L 5.9375 -1.484375 C 5.925781 -1.648438 5.914062 -1.84375 5.90625 -2.0625 C 5.894531 -2.28125 5.882812 -2.503906 5.875 -2.734375 C 5.863281 -2.960938 5.859375 -3.1875 5.859375 -3.40625 L 5.859375 -7.1875 L 6.9375 -7.1875 Z M 6.9375 0 "/></g></g></g><g fill="#faf2f1" fill-opacity="1"><g transform="translate(149.309517, 11.155619)"><g><path d="M 5.015625 0 L 0.9375 0 L 0.9375 -7.1875 L 5.015625 -7.1875 L 5.015625 -6.1875 L 2.125 -6.1875 L 2.125 -4.234375 L 4.828125 -4.234375 L 4.828125 -3.25 L 2.125 -3.25 L 2.125 -1 L 5.015625 -1 Z M 5.015625 0 "/></g></g></g></g></g><g clip-path="url(#975ac6cc14)"><g transform="matrix(1, 0, 0, 1, 110, 34)"><g clip-path="url(#21b0c26abf)"><g fill="#faf2f1" fill-opacity="1"><g transform="translate(0.671575, 25.164367)"><g><path d="M 8.71875 0 L 1.15625 0 L 1.15625 -23.421875 L 8.71875 -23.421875 C 10.3125 -23.421875 11.804688 -23.113281 13.203125 -22.5 C 14.597656 -21.894531 15.832031 -21.054688 16.90625 -19.984375 C 17.976562 -18.910156 18.816406 -17.664062 19.421875 -16.25 C 20.023438 -14.832031 20.328125 -13.304688 20.328125 -11.671875 C 20.328125 -10.054688 20.023438 -8.539062 19.421875 -7.125 C 18.816406 -5.71875 17.976562 -4.476562 16.90625 -3.40625 C 15.832031 -2.332031 14.597656 -1.492188 13.203125 -0.890625 C 11.804688 -0.296875 10.3125 0 8.71875 0 Z M 3.75 -23.1875 L 3.75 -0.265625 L 8.71875 -0.265625 C 9.976562 -0.265625 11.160156 -0.554688 12.265625 -1.140625 C 13.378906 -1.734375 14.351562 -2.550781 15.1875 -3.59375 C 16.03125 -4.644531 16.6875 -5.851562 17.15625 -7.21875 C 17.632812 -8.59375 17.875 -10.078125 17.875 -11.671875 C 17.875 -13.265625 17.632812 -14.753906 17.15625 -16.140625 C 16.6875 -17.523438 16.03125 -18.742188 15.1875 -19.796875 C 14.351562 -20.859375 13.378906 -21.6875 12.265625 -22.28125 C 11.160156 -22.882812 9.976562 -23.1875 8.71875 -23.1875 Z M 3.75 -23.1875 "/></g></g></g><g fill="#faf2f1" fill-opacity="1"><g transform="translate(23.38889, 25.164367)"><g><path d="M 1.15625 0 L 1.15625 -23.421875 L 3.65625 -23.421875 L 3.65625 0 Z M 1.15625 0 "/></g></g></g><g fill="#faf2f1" fill-opacity="1"><g transform="translate(29.425088, 25.164367)"><g><path d="M 20.890625 -23.453125 L 21.234375 -23.453125 L 19.5 -19.40625 L 11.3125 0 L 11.046875 0 L 1.15625 -23.453125 L 3.875 -23.453125 L 12.40625 -3.3125 L 13.703125 -6.46875 Z M 20.890625 -23.453125 "/></g></g></g><g fill="#faf2f1" fill-opacity="1"><g transform="translate(53.037813, 25.164367)"><g><path d="M 1.15625 0 L 1.15625 -23.421875 L 3.65625 -23.421875 L 3.65625 0 Z M 1.15625 0 "/></g></g></g><g fill="#faf2f1" fill-opacity="1"><g transform="translate(59.074011, 25.164367)"><g><path d="M 1.15625 -23.421875 L 3.65625 -23.421875 C 5.46875 -23.421875 7.070312 -22.804688 8.46875 -21.578125 C 9.875 -20.347656 11.054688 -18.769531 12.015625 -16.84375 C 12.984375 -15.03125 13.753906 -13.035156 14.328125 -10.859375 C 14.898438 -8.679688 15.3125 -6.519531 15.5625 -4.375 L 15.5625 -23.421875 L 18.046875 -23.421875 L 18.046875 0 L 15.5625 0 C 15.5625 -1.769531 15.421875 -3.640625 15.140625 -5.609375 C 14.867188 -7.578125 14.460938 -9.519531 13.921875 -11.4375 C 13.378906 -13.363281 12.695312 -15.125 11.875 -16.71875 C 10.875 -18.625 9.695312 -20.175781 8.34375 -21.375 C 7 -22.582031 5.4375 -23.1875 3.65625 -23.1875 L 3.65625 0 L 1.15625 0 Z M 1.15625 -23.421875 "/></g></g></g><g fill="#faf2f1" fill-opacity="1"><g transform="translate(79.503059, 25.164367)"><g><path d="M 3.71875 -15.625 L 3.71875 -0.265625 L 9.328125 -0.265625 C 10.765625 -0.265625 11.941406 -0.617188 12.859375 -1.328125 C 13.773438 -2.035156 14.53125 -3.226562 15.125 -4.90625 L 14.359375 0 L 1.15625 0 L 1.15625 -23.421875 L 14.5625 -23.421875 L 14.5625 -20.765625 C 13.789062 -21.515625 13.039062 -22.0625 12.3125 -22.40625 C 11.582031 -22.75 10.753906 -22.960938 9.828125 -23.046875 C 8.910156 -23.140625 7.78125 -23.1875 6.4375 -23.1875 L 3.71875 -23.1875 L 3.71875 -17.8125 C 3.71875 -16.3125 3.96875 -15.160156 4.46875 -14.359375 C 4.976562 -13.566406 5.742188 -13.03125 6.765625 -12.75 C 7.785156 -12.476562 9.054688 -12.34375 10.578125 -12.34375 L 10.578125 -9.71875 C 10.097656 -10.269531 9.519531 -10.707031 8.84375 -11.03125 C 8.164062 -11.351562 7.476562 -11.679688 6.78125 -12.015625 C 6.082031 -12.359375 5.457031 -12.800781 4.90625 -13.34375 C 4.351562 -13.894531 3.957031 -14.65625 3.71875 -15.625 Z M 3.71875 -15.625 "/></g></g></g><g fill="#faf2f1" fill-opacity="1"><g transform="translate(97.013749, 25.164367)"><g/></g></g><g fill="#faf2f1" fill-opacity="1"><g transform="translate(107.493828, 25.164367)"><g><path d="M 8.71875 0 L 1.15625 0 L 1.15625 -23.421875 L 8.71875 -23.421875 C 10.3125 -23.421875 11.804688 -23.113281 13.203125 -22.5 C 14.597656 -21.894531 15.832031 -21.054688 16.90625 -19.984375 C 17.976562 -18.910156 18.816406 -17.664062 19.421875 -16.25 C 20.023438 -14.832031 20.328125 -13.304688 20.328125 -11.671875 C 20.328125 -10.054688 20.023438 -8.539062 19.421875 -7.125 C 18.816406 -5.71875 17.976562 -4.476562 16.90625 -3.40625 C 15.832031 -2.332031 14.597656 -1.492188 13.203125 -0.890625 C 11.804688 -0.296875 10.3125 0 8.71875 0 Z M 3.75 -23.1875 L 3.75 -0.265625 L 8.71875 -0.265625 C 9.976562 -0.265625 11.160156 -0.554688 12.265625 -1.140625 C 13.378906 -1.734375 14.351562 -2.550781 15.1875 -3.59375 C 16.03125 -4.644531 16.6875 -5.851562 17.15625 -7.21875 C 17.632812 -8.59375 17.875 -10.078125 17.875 -11.671875 C 17.875 -13.265625 17.632812 -14.753906 17.15625 -16.140625 C 16.6875 -17.523438 16.03125 -18.742188 15.1875 -19.796875 C 14.351562 -20.859375 13.378906 -21.6875 12.265625 -22.28125 C 11.160156 -22.882812 9.976562 -23.1875 8.71875 -23.1875 Z M 3.75 -23.1875 "/></g></g></g><g fill="#faf2f1" fill-opacity="1"><g transform="translate(130.211143, 25.164367)"><g><path d="M 3.71875 -15.625 L 3.71875 -0.265625 L 9.328125 -0.265625 C 10.765625 -0.265625 11.941406 -0.617188 12.859375 -1.328125 C 13.773438 -2.035156 14.53125 -3.226562 15.125 -4.90625 L 14.359375 0 L 1.15625 0 L 1.15625 -23.421875 L 14.5625 -23.421875 L 14.5625 -20.765625 C 13.789062 -21.515625 13.039062 -22.0625 12.3125 -22.40625 C 11.582031 -22.75 10.753906 -22.960938 9.828125 -23.046875 C 8.910156 -23.140625 7.78125 -23.1875 6.4375 -23.1875 L 3.71875 -23.1875 L 3.71875 -17.8125 C 3.71875 -16.3125 3.96875 -15.160156 4.46875 -14.359375 C 4.976562 -13.566406 5.742188 -13.03125 6.765625 -12.75 C 7.785156 -12.476562 9.054688 -12.34375 10.578125 -12.34375 L 10.578125 -9.71875 C 10.097656 -10.269531 9.519531 -10.707031 8.84375 -11.03125 C 8.164062 -11.351562 7.476562 -11.679688 6.78125 -12.015625 C 6.082031 -12.359375 5.457031 -12.800781 4.90625 -13.34375 C 4.351562 -13.894531 3.957031 -14.65625 3.71875 -15.625 Z M 3.71875 -15.625 "/></g></g></g><g fill="#faf2f1" fill-opacity="1"><g transform="translate(147.721832, 25.164367)"><g><path d="M 9.0625 0 L 9.0625 -23.1875 C 7.882812 -23.1875 6.835938 -23.132812 5.921875 -23.03125 C 5.003906 -22.9375 4.160156 -22.726562 3.390625 -22.40625 C 2.628906 -22.082031 1.882812 -21.566406 1.15625 -20.859375 L 1.15625 -23.453125 L 19.5 -23.453125 L 19.5 -20.859375 C 18.75 -21.566406 17.992188 -22.082031 17.234375 -22.40625 C 16.472656 -22.726562 15.640625 -22.9375 14.734375 -23.03125 C 13.828125 -23.132812 12.785156 -23.1875 11.609375 -23.1875 L 11.609375 0 Z M 9.0625 0 "/></g></g></g><g fill="#faf2f1" fill-opacity="1"><g transform="translate(169.61007, 25.164367)"><g><path d="M 17.28125 0 L 13.53125 -8.984375 C 12.113281 -8.859375 10.945312 -8.570312 10.03125 -8.125 C 9.113281 -7.6875 8.375 -7.148438 7.8125 -6.515625 C 7.25 -5.890625 6.796875 -5.234375 6.453125 -4.546875 C 6.109375 -3.859375 5.804688 -3.21875 5.546875 -2.625 C 5.234375 -1.800781 4.894531 -1.117188 4.53125 -0.578125 C 4.164062 -0.0351562 3.609375 0.222656 2.859375 0.203125 C 2.765625 0.179688 2.675781 0.15625 2.59375 0.125 C 2.519531 0.101562 2.429688 0.0507812 2.328125 -0.03125 C 1.421875 -0.425781 1.054688 -1.390625 1.234375 -2.921875 C 1.316406 -3.648438 1.472656 -4.472656 1.703125 -5.390625 C 1.941406 -6.304688 2.257812 -7.296875 2.65625 -8.359375 C 3.25 -9.953125 3.945312 -11.640625 4.75 -13.421875 C 5.5625 -15.203125 6.414062 -16.957031 7.3125 -18.6875 C 8.207031 -20.425781 9.078125 -22.003906 9.921875 -23.421875 L 10.15625 -23.421875 L 20.0625 0 Z M 13.4375 -9.21875 L 8.5625 -20.5625 C 7.539062 -18.613281 6.515625 -16.5625 5.484375 -14.40625 C 4.460938 -12.25 3.597656 -10.210938 2.890625 -8.296875 C 2.484375 -7.234375 2.164062 -6.25 1.9375 -5.34375 C 1.707031 -4.4375 1.546875 -3.628906 1.453125 -2.921875 C 1.429688 -2.234375 1.488281 -1.648438 1.625 -1.171875 C 1.757812 -0.703125 2.023438 -0.398438 2.421875 -0.265625 C 2.535156 -0.242188 2.617188 -0.222656 2.671875 -0.203125 C 2.722656 -0.179688 2.796875 -0.144531 2.890625 -0.09375 C 3.546875 -0.0507812 4.039062 -0.285156 4.375 -0.796875 C 4.707031 -1.304688 5.007812 -1.9375 5.28125 -2.6875 C 5.539062 -3.300781 5.847656 -3.957031 6.203125 -4.65625 C 6.554688 -5.351562 7.023438 -6.019531 7.609375 -6.65625 C 8.191406 -7.300781 8.945312 -7.851562 9.875 -8.3125 C 10.8125 -8.78125 12 -9.082031 13.4375 -9.21875 Z M 13.4375 -9.21875 "/></g></g></g><g fill="#faf2f1" fill-opacity="1"><g transform="translate(192.062068, 25.164367)"><g><path d="M 1.15625 0 L 1.15625 -23.421875 L 3.65625 -23.421875 L 3.65625 0 Z M 1.15625 0 "/></g></g></g><g fill="#faf2f1" fill-opacity="1"><g transform="translate(198.098288, 25.164367)"><g><path d="M 15.1875 -4.90625 L 14.390625 0 L 1.15625 0 L 1.15625 -23.421875 L 3.8125 -23.421875 L 3.8125 -0.265625 L 9.421875 -0.265625 C 10.859375 -0.265625 12.023438 -0.617188 12.921875 -1.328125 C 13.816406 -2.035156 14.570312 -3.226562 15.1875 -4.90625 Z M 15.1875 -4.90625 "/></g></g></g></g></g></g></g></g></g></svg>