<svg xmlns="http://www.w3.org/2000/svg" xmlns:xlink="http://www.w3.org/1999/xlink" width="450" zoomAndPan="magnify" viewBox="0 0 337.5 112.499997" height="150" preserveAspectRatio="xMidYMid meet" version="1.0"><defs><g/><clipPath id="44f7415e3e"><path d="M 0.496094 0 L 336.503906 0 L 336.503906 112.003906 L 0.496094 112.003906 Z M 0.496094 0 " clip-rule="nonzero"/></clipPath><clipPath id="2a2f9f68b5"><path d="M 0.496094 0 L 335 0 L 335 112.003906 L 0.496094 112.003906 Z M 0.496094 0 " clip-rule="nonzero"/></clipPath><clipPath id="79f69d8e3d"><path d="M 0.496094 0 L 80 0 L 80 112.003906 L 0.496094 112.003906 Z M 0.496094 0 " clip-rule="nonzero"/></clipPath><clipPath id="183d16ea61"><rect x="0" width="80" y="0" height="113"/></clipPath><clipPath id="95b878b157"><path d="M 30 20 L 109 20 L 109 112.003906 L 30 112.003906 Z M 30 20 " clip-rule="nonzero"/></clipPath><clipPath id="45e3fab05e"><rect x="0" width="79" y="0" height="93"/></clipPath><clipPath id="1bbfdde394"><rect x="0" width="163" y="0" height="15"/></clipPath><clipPath id="6d51c5d5c5"><rect x="0" width="335" y="0" height="113"/></clipPath></defs><g clip-path="url(#44f7415e3e)"><path fill="#ffffff" d="M 0.496094 0 L 336.503906 0 L 336.503906 112.003906 L 0.496094 112.003906 Z M 0.496094 0 " fill-opacity="1" fill-rule="nonzero"/><path fill="#fcf7f7" d="M 0.496094 0 L 336.503906 0 L 336.503906 112.003906 L 0.496094 112.003906 Z M 0.496094 0 " fill-opacity="1" fill-rule="nonzero"/></g><g clip-path="url(#2a2f9f68b5)"><g transform="matrix(1, 0, 0, 1, 0.000000000000000056, 0)"><g clip-path="url(#6d51c5d5c5)"><g clip-path="url(#79f69d8e3d)"><g transform="matrix(1, 0, 0, 1, 0.000000000000000056, 0)"><g clip-path="url(#183d16ea61)"><g fill="#000000" fill-opacity="1"><g transform="translate(0.717795, 86.064603)"><g><path d="M 31.5 0 L 4.1875 0 L 4.1875 -84.5625 L 31.5 -84.5625 C 37.25 -84.5625 42.640625 -83.460938 47.671875 -81.265625 C 52.703125 -79.078125 57.15625 -76.046875 61.03125 -72.171875 C 64.90625 -68.296875 67.9375 -63.800781 70.125 -58.6875 C 72.320312 -53.582031 73.421875 -48.070312 73.421875 -42.15625 C 73.421875 -36.332031 72.320312 -30.863281 70.125 -25.75 C 67.9375 -20.644531 64.90625 -16.15625 61.03125 -12.28125 C 57.15625 -8.40625 52.703125 -5.390625 47.671875 -3.234375 C 42.640625 -1.078125 37.25 0 31.5 0 Z M 13.53125 -83.734375 L 13.53125 -0.953125 L 31.5 -0.953125 C 36.050781 -0.953125 40.320312 -2.007812 44.3125 -4.125 C 48.3125 -6.25 51.828125 -9.207031 54.859375 -13 C 57.890625 -16.789062 60.265625 -21.160156 61.984375 -26.109375 C 63.703125 -31.054688 64.5625 -36.40625 64.5625 -42.15625 C 64.5625 -47.90625 63.703125 -53.273438 61.984375 -58.265625 C 60.265625 -63.265625 57.890625 -67.679688 54.859375 -71.515625 C 51.828125 -75.347656 48.3125 -78.34375 44.3125 -80.5 C 40.320312 -82.65625 36.050781 -83.734375 31.5 -83.734375 Z M 13.53125 -83.734375 "/></g></g></g></g></g></g><g clip-path="url(#95b878b157)"><g transform="matrix(1, 0, 0, 1, 30, 20)"><g clip-path="url(#45e3fab05e)"><g fill="#000000" fill-opacity="1"><g transform="translate(1.022759, 89.066808)"><g><path d="M 31.5 0 L 4.1875 0 L 4.1875 -84.5625 L 31.5 -84.5625 C 37.25 -84.5625 42.640625 -83.460938 47.671875 -81.265625 C 52.703125 -79.078125 57.15625 -76.046875 61.03125 -72.171875 C 64.90625 -68.296875 67.9375 -63.800781 70.125 -58.6875 C 72.320312 -53.582031 73.421875 -48.070312 73.421875 -42.15625 C 73.421875 -36.332031 72.320312 -30.863281 70.125 -25.75 C 67.9375 -20.644531 64.90625 -16.15625 61.03125 -12.28125 C 57.15625 -8.40625 52.703125 -5.390625 47.671875 -3.234375 C 42.640625 -1.078125 37.25 0 31.5 0 Z M 13.53125 -83.734375 L 13.53125 -0.953125 L 31.5 -0.953125 C 36.050781 -0.953125 40.320312 -2.007812 44.3125 -4.125 C 48.3125 -6.25 51.828125 -9.207031 54.859375 -13 C 57.890625 -16.789062 60.265625 -21.160156 61.984375 -26.109375 C 63.703125 -31.054688 64.5625 -36.40625 64.5625 -42.15625 C 64.5625 -47.90625 63.703125 -53.273438 61.984375 -58.265625 C 60.265625 -63.265625 57.890625 -67.679688 54.859375 -71.515625 C 51.828125 -75.347656 48.3125 -78.34375 44.3125 -80.5 C 40.320312 -82.65625 36.050781 -83.734375 31.5 -83.734375 Z M 13.53125 -83.734375 "/></g></g></g></g></g></g><g transform="matrix(1, 0, 0, 1, 143, 66)"><g clip-path="url(#1bbfdde394)"><g fill="#000000" fill-opacity="1"><g transform="translate(0.539943, 10.839126)"><g><path d="M 4.15625 0 L 2.03125 -6.15625 L 1.984375 -6.15625 C 1.992188 -6.019531 2.003906 -5.832031 2.015625 -5.59375 C 2.023438 -5.351562 2.035156 -5.097656 2.046875 -4.828125 C 2.054688 -4.554688 2.0625 -4.296875 2.0625 -4.046875 L 2.0625 0 L 0.96875 0 L 0.96875 -7.375 L 2.671875 -7.375 L 4.703125 -1.484375 L 4.734375 -1.484375 L 6.859375 -7.375 L 8.546875 -7.375 L 8.546875 0 L 7.390625 0 L 7.390625 -4.109375 C 7.390625 -4.328125 7.394531 -4.566406 7.40625 -4.828125 C 7.414062 -5.097656 7.425781 -5.347656 7.4375 -5.578125 C 7.445312 -5.816406 7.457031 -6.003906 7.46875 -6.140625 L 7.421875 -6.140625 L 5.21875 0 Z M 4.15625 0 "/></g></g></g><g fill="#000000" fill-opacity="1"><g transform="translate(12.121848, 10.839126)"><g><path d="M 7.515625 -3.703125 C 7.515625 -3.128906 7.441406 -2.609375 7.296875 -2.140625 C 7.148438 -1.679688 6.9375 -1.28125 6.65625 -0.9375 C 6.375 -0.601562 6.015625 -0.347656 5.578125 -0.171875 C 5.148438 0.00390625 4.644531 0.09375 4.0625 0.09375 C 3.476562 0.09375 2.96875 0.00390625 2.53125 -0.171875 C 2.101562 -0.347656 1.742188 -0.601562 1.453125 -0.9375 C 1.171875 -1.28125 0.957031 -1.6875 0.8125 -2.15625 C 0.675781 -2.625 0.609375 -3.140625 0.609375 -3.703125 C 0.609375 -4.460938 0.734375 -5.125 0.984375 -5.6875 C 1.234375 -6.257812 1.613281 -6.703125 2.125 -7.015625 C 2.644531 -7.328125 3.296875 -7.484375 4.078125 -7.484375 C 4.847656 -7.484375 5.484375 -7.328125 5.984375 -7.015625 C 6.492188 -6.703125 6.875 -6.257812 7.125 -5.6875 C 7.382812 -5.125 7.515625 -4.460938 7.515625 -3.703125 Z M 1.890625 -3.703125 C 1.890625 -3.128906 1.960938 -2.632812 2.109375 -2.21875 C 2.265625 -1.800781 2.503906 -1.476562 2.828125 -1.25 C 3.148438 -1.03125 3.5625 -0.921875 4.0625 -0.921875 C 4.570312 -0.921875 4.988281 -1.03125 5.3125 -1.25 C 5.632812 -1.476562 5.867188 -1.800781 6.015625 -2.21875 C 6.171875 -2.632812 6.25 -3.128906 6.25 -3.703125 C 6.25 -4.566406 6.070312 -5.238281 5.71875 -5.71875 C 5.375 -6.207031 4.828125 -6.453125 4.078125 -6.453125 C 3.578125 -6.453125 3.160156 -6.34375 2.828125 -6.125 C 2.503906 -5.90625 2.265625 -5.585938 2.109375 -5.171875 C 1.960938 -4.765625 1.890625 -4.273438 1.890625 -3.703125 Z M 1.890625 -3.703125 "/></g></g></g><g fill="#000000" fill-opacity="1"><g transform="translate(22.316909, 10.839126)"><g><path d="M 4.15625 0 L 2.03125 -6.15625 L 1.984375 -6.15625 C 1.992188 -6.019531 2.003906 -5.832031 2.015625 -5.59375 C 2.023438 -5.351562 2.035156 -5.097656 2.046875 -4.828125 C 2.054688 -4.554688 2.0625 -4.296875 2.0625 -4.046875 L 2.0625 0 L 0.96875 0 L 0.96875 -7.375 L 2.671875 -7.375 L 4.703125 -1.484375 L 4.734375 -1.484375 L 6.859375 -7.375 L 8.546875 -7.375 L 8.546875 0 L 7.390625 0 L 7.390625 -4.109375 C 7.390625 -4.328125 7.394531 -4.566406 7.40625 -4.828125 C 7.414062 -5.097656 7.425781 -5.347656 7.4375 -5.578125 C 7.445312 -5.816406 7.457031 -6.003906 7.46875 -6.140625 L 7.421875 -6.140625 L 5.21875 0 Z M 4.15625 0 "/></g></g></g><g fill="#000000" fill-opacity="1"><g transform="translate(33.898814, 10.839126)"><g><path d="M 5.140625 0 L 0.96875 0 L 0.96875 -7.375 L 5.140625 -7.375 L 5.140625 -6.359375 L 2.171875 -6.359375 L 2.171875 -4.359375 L 4.953125 -4.359375 L 4.953125 -3.34375 L 2.171875 -3.34375 L 2.171875 -1.03125 L 5.140625 -1.03125 Z M 5.140625 0 "/></g></g></g><g fill="#000000" fill-opacity="1"><g transform="translate(41.728676, 10.839126)"><g><path d="M 7.125 0 L 5.640625 0 L 2.015625 -5.890625 L 1.984375 -5.890625 C 1.992188 -5.691406 2.003906 -5.476562 2.015625 -5.25 C 2.023438 -5.03125 2.035156 -4.800781 2.046875 -4.5625 C 2.054688 -4.332031 2.0625 -4.097656 2.0625 -3.859375 L 2.0625 0 L 0.96875 0 L 0.96875 -7.375 L 2.453125 -7.375 L 6.046875 -1.53125 L 6.09375 -1.53125 C 6.082031 -1.695312 6.070312 -1.890625 6.0625 -2.109375 C 6.050781 -2.335938 6.039062 -2.566406 6.03125 -2.796875 C 6.019531 -3.035156 6.015625 -3.269531 6.015625 -3.5 L 6.015625 -7.375 L 7.125 -7.375 Z M 7.125 0 "/></g></g></g><g fill="#000000" fill-opacity="1"><g transform="translate(51.883392, 10.839126)"><g><path d="M 3.53125 0 L 2.3125 0 L 2.3125 -6.34375 L 0.15625 -6.34375 L 0.15625 -7.375 L 5.671875 -7.375 L 5.671875 -6.34375 L 3.53125 -6.34375 Z M 3.53125 0 "/></g></g></g><g fill="#000000" fill-opacity="1"><g transform="translate(59.783856, 10.839126)"><g><path d="M 5.21875 -2 C 5.21875 -1.5625 5.109375 -1.1875 4.890625 -0.875 C 4.679688 -0.5625 4.378906 -0.320312 3.984375 -0.15625 C 3.585938 0.0078125 3.113281 0.09375 2.5625 0.09375 C 2.289062 0.09375 2.03125 0.078125 1.78125 0.046875 C 1.539062 0.0234375 1.3125 -0.015625 1.09375 -0.078125 C 0.875 -0.140625 0.675781 -0.210938 0.5 -0.296875 L 0.5 -1.4375 C 0.800781 -1.300781 1.132812 -1.179688 1.5 -1.078125 C 1.875 -0.972656 2.253906 -0.921875 2.640625 -0.921875 C 2.953125 -0.921875 3.210938 -0.960938 3.421875 -1.046875 C 3.628906 -1.128906 3.78125 -1.242188 3.875 -1.390625 C 3.976562 -1.546875 4.03125 -1.726562 4.03125 -1.9375 C 4.03125 -2.15625 3.96875 -2.335938 3.84375 -2.484375 C 3.726562 -2.640625 3.550781 -2.78125 3.3125 -2.90625 C 3.082031 -3.03125 2.789062 -3.164062 2.4375 -3.3125 C 2.1875 -3.40625 1.953125 -3.515625 1.734375 -3.640625 C 1.515625 -3.765625 1.316406 -3.910156 1.140625 -4.078125 C 0.972656 -4.242188 0.835938 -4.441406 0.734375 -4.671875 C 0.640625 -4.898438 0.59375 -5.171875 0.59375 -5.484375 C 0.59375 -5.910156 0.691406 -6.269531 0.890625 -6.5625 C 1.085938 -6.851562 1.367188 -7.078125 1.734375 -7.234375 C 2.109375 -7.398438 2.535156 -7.484375 3.015625 -7.484375 C 3.398438 -7.484375 3.765625 -7.441406 4.109375 -7.359375 C 4.453125 -7.273438 4.789062 -7.160156 5.125 -7.015625 L 4.734375 -6.046875 C 4.429688 -6.171875 4.132812 -6.269531 3.84375 -6.34375 C 3.5625 -6.414062 3.273438 -6.453125 2.984375 -6.453125 C 2.734375 -6.453125 2.515625 -6.410156 2.328125 -6.328125 C 2.148438 -6.253906 2.015625 -6.144531 1.921875 -6 C 1.835938 -5.863281 1.796875 -5.703125 1.796875 -5.515625 C 1.796875 -5.296875 1.847656 -5.113281 1.953125 -4.96875 C 2.054688 -4.820312 2.21875 -4.6875 2.4375 -4.5625 C 2.664062 -4.445312 2.957031 -4.316406 3.3125 -4.171875 C 3.71875 -3.992188 4.0625 -3.8125 4.34375 -3.625 C 4.625 -3.445312 4.835938 -3.226562 4.984375 -2.96875 C 5.140625 -2.71875 5.21875 -2.394531 5.21875 -2 Z M 5.21875 -2 "/></g></g></g><g fill="#000000" fill-opacity="1"><g transform="translate(67.527985, 10.839126)"><g/></g></g><g fill="#000000" fill-opacity="1"><g transform="translate(72.276531, 10.839126)"><g><path d="M 4.15625 0 L 2.03125 -6.15625 L 1.984375 -6.15625 C 1.992188 -6.019531 2.003906 -5.832031 2.015625 -5.59375 C 2.023438 -5.351562 2.035156 -5.097656 2.046875 -4.828125 C 2.054688 -4.554688 2.0625 -4.296875 2.0625 -4.046875 L 2.0625 0 L 0.96875 0 L 0.96875 -7.375 L 2.671875 -7.375 L 4.703125 -1.484375 L 4.734375 -1.484375 L 6.859375 -7.375 L 8.546875 -7.375 L 8.546875 0 L 7.390625 0 L 7.390625 -4.109375 C 7.390625 -4.328125 7.394531 -4.566406 7.40625 -4.828125 C 7.414062 -5.097656 7.425781 -5.347656 7.4375 -5.578125 C 7.445312 -5.816406 7.457031 -6.003906 7.46875 -6.140625 L 7.421875 -6.140625 L 5.21875 0 Z M 4.15625 0 "/></g></g></g><g fill="#000000" fill-opacity="1"><g transform="translate(83.858436, 10.839126)"><g><path d="M 5.53125 0 L 4.8125 -2.046875 L 2 -2.046875 L 1.28125 0 L 0 0 L 2.75 -7.40625 L 4.078125 -7.40625 L 6.828125 0 Z M 4.5 -3.09375 L 3.796875 -5.109375 C 3.773438 -5.191406 3.738281 -5.3125 3.6875 -5.46875 C 3.632812 -5.632812 3.582031 -5.800781 3.53125 -5.96875 C 3.476562 -6.132812 3.4375 -6.273438 3.40625 -6.390625 C 3.375 -6.242188 3.332031 -6.085938 3.28125 -5.921875 C 3.238281 -5.753906 3.191406 -5.59375 3.140625 -5.4375 C 3.097656 -5.289062 3.066406 -5.179688 3.046875 -5.109375 L 2.328125 -3.09375 Z M 4.5 -3.09375 "/></g></g></g><g fill="#000000" fill-opacity="1"><g transform="translate(92.752385, 10.839126)"><g><path d="M 6.953125 -3.75 C 6.953125 -2.925781 6.796875 -2.234375 6.484375 -1.671875 C 6.179688 -1.117188 5.734375 -0.703125 5.140625 -0.421875 C 4.554688 -0.140625 3.847656 0 3.015625 0 L 0.96875 0 L 0.96875 -7.375 L 3.234375 -7.375 C 3.992188 -7.375 4.648438 -7.234375 5.203125 -6.953125 C 5.765625 -6.679688 6.195312 -6.273438 6.5 -5.734375 C 6.800781 -5.203125 6.953125 -4.539062 6.953125 -3.75 Z M 5.6875 -3.71875 C 5.6875 -4.320312 5.59375 -4.816406 5.40625 -5.203125 C 5.21875 -5.597656 4.9375 -5.890625 4.5625 -6.078125 C 4.195312 -6.273438 3.75 -6.375 3.21875 -6.375 L 2.171875 -6.375 L 2.171875 -1.015625 L 3.03125 -1.015625 C 3.925781 -1.015625 4.59375 -1.238281 5.03125 -1.6875 C 5.46875 -2.144531 5.6875 -2.820312 5.6875 -3.71875 Z M 5.6875 -3.71875 "/></g></g></g><g fill="#000000" fill-opacity="1"><g transform="translate(102.387665, 10.839126)"><g><path d="M 5.140625 0 L 0.96875 0 L 0.96875 -7.375 L 5.140625 -7.375 L 5.140625 -6.359375 L 2.171875 -6.359375 L 2.171875 -4.359375 L 4.953125 -4.359375 L 4.953125 -3.34375 L 2.171875 -3.34375 L 2.171875 -1.03125 L 5.140625 -1.03125 Z M 5.140625 0 "/></g></g></g><g fill="#000000" fill-opacity="1"><g transform="translate(110.217526, 10.839126)"><g/></g></g><g fill="#000000" fill-opacity="1"><g transform="translate(114.966072, 10.839126)"><g><path d="M 6.953125 -3.75 C 6.953125 -2.925781 6.796875 -2.234375 6.484375 -1.671875 C 6.179688 -1.117188 5.734375 -0.703125 5.140625 -0.421875 C 4.554688 -0.140625 3.847656 0 3.015625 0 L 0.96875 0 L 0.96875 -7.375 L 3.234375 -7.375 C 3.992188 -7.375 4.648438 -7.234375 5.203125 -6.953125 C 5.765625 -6.679688 6.195312 -6.273438 6.5 -5.734375 C 6.800781 -5.203125 6.953125 -4.539062 6.953125 -3.75 Z M 5.6875 -3.71875 C 5.6875 -4.320312 5.59375 -4.816406 5.40625 -5.203125 C 5.21875 -5.597656 4.9375 -5.890625 4.5625 -6.078125 C 4.195312 -6.273438 3.75 -6.375 3.21875 -6.375 L 2.171875 -6.375 L 2.171875 -1.015625 L 3.03125 -1.015625 C 3.925781 -1.015625 4.59375 -1.238281 5.03125 -1.6875 C 5.46875 -2.144531 5.6875 -2.820312 5.6875 -3.71875 Z M 5.6875 -3.71875 "/></g></g></g><g fill="#000000" fill-opacity="1"><g transform="translate(124.601352, 10.839126)"><g><path d="M 0.96875 0 L 0.96875 -7.375 L 2.171875 -7.375 L 2.171875 0 Z M 0.96875 0 "/></g></g></g><g fill="#000000" fill-opacity="1"><g transform="translate(129.818903, 10.839126)"><g><path d="M 6.4375 -7.375 L 3.859375 0 L 2.578125 0 L 0 -7.375 L 1.234375 -7.375 L 2.796875 -2.75 C 2.835938 -2.613281 2.882812 -2.453125 2.9375 -2.265625 C 3 -2.078125 3.050781 -1.882812 3.09375 -1.6875 C 3.144531 -1.488281 3.1875 -1.316406 3.21875 -1.171875 C 3.238281 -1.316406 3.273438 -1.488281 3.328125 -1.6875 C 3.378906 -1.882812 3.429688 -2.078125 3.484375 -2.265625 C 3.535156 -2.453125 3.585938 -2.617188 3.640625 -2.765625 L 5.1875 -7.375 Z M 6.4375 -7.375 "/></g></g></g><g fill="#000000" fill-opacity="1"><g transform="translate(138.319492, 10.839126)"><g><path d="M 0.96875 0 L 0.96875 -7.375 L 2.171875 -7.375 L 2.171875 0 Z M 0.96875 0 "/></g></g></g><g fill="#000000" fill-opacity="1"><g transform="translate(143.537043, 10.839126)"><g><path d="M 7.125 0 L 5.640625 0 L 2.015625 -5.890625 L 1.984375 -5.890625 C 1.992188 -5.691406 2.003906 -5.476562 2.015625 -5.25 C 2.023438 -5.03125 2.035156 -4.800781 2.046875 -4.5625 C 2.054688 -4.332031 2.0625 -4.097656 2.0625 -3.859375 L 2.0625 0 L 0.96875 0 L 0.96875 -7.375 L 2.453125 -7.375 L 6.046875 -1.53125 L 6.09375 -1.53125 C 6.082031 -1.695312 6.070312 -1.890625 6.0625 -2.109375 C 6.050781 -2.335938 6.039062 -2.566406 6.03125 -2.796875 C 6.019531 -3.035156 6.015625 -3.269531 6.015625 -3.5 L 6.015625 -7.375 L 7.125 -7.375 Z M 7.125 0 "/></g></g></g><g fill="#000000" fill-opacity="1"><g transform="translate(153.69176, 10.839126)"><g><path d="M 5.140625 0 L 0.96875 0 L 0.96875 -7.375 L 5.140625 -7.375 L 5.140625 -6.359375 L 2.171875 -6.359375 L 2.171875 -4.359375 L 4.953125 -4.359375 L 4.953125 -3.34375 L 2.171875 -3.34375 L 2.171875 -1.03125 L 5.140625 -1.03125 Z M 5.140625 0 "/></g></g></g></g></g><g fill="#000000" fill-opacity="1"><g transform="translate(113.212838, 59.387422)"><g><path d="M 8.953125 0 L 1.1875 0 L 1.1875 -24.046875 L 8.953125 -24.046875 C 10.585938 -24.046875 12.117188 -23.734375 13.546875 -23.109375 C 14.984375 -22.484375 16.25 -21.617188 17.34375 -20.515625 C 18.445312 -19.421875 19.3125 -18.144531 19.9375 -16.6875 C 20.5625 -15.238281 20.875 -13.671875 20.875 -11.984375 C 20.875 -10.328125 20.5625 -8.769531 19.9375 -7.3125 C 19.3125 -5.863281 18.445312 -4.585938 17.34375 -3.484375 C 16.25 -2.390625 14.984375 -1.535156 13.546875 -0.921875 C 12.117188 -0.304688 10.585938 0 8.953125 0 Z M 3.84375 -23.8125 L 3.84375 -0.265625 L 8.953125 -0.265625 C 10.253906 -0.265625 11.472656 -0.566406 12.609375 -1.171875 C 13.742188 -1.773438 14.738281 -2.613281 15.59375 -3.6875 C 16.457031 -4.769531 17.132812 -6.015625 17.625 -7.421875 C 18.113281 -8.828125 18.359375 -10.347656 18.359375 -11.984375 C 18.359375 -13.617188 18.113281 -15.144531 17.625 -16.5625 C 17.132812 -17.988281 16.457031 -19.242188 15.59375 -20.328125 C 14.738281 -21.421875 13.742188 -22.273438 12.609375 -22.890625 C 11.472656 -23.503906 10.253906 -23.8125 8.953125 -23.8125 Z M 3.84375 -23.8125 "/></g></g></g><g fill="#000000" fill-opacity="1"><g transform="translate(136.545776, 59.387422)"><g><path d="M 1.1875 0 L 1.1875 -24.046875 L 3.75 -24.046875 L 3.75 0 Z M 1.1875 0 "/></g></g></g><g fill="#000000" fill-opacity="1"><g transform="translate(142.745551, 59.387422)"><g><path d="M 21.453125 -24.078125 L 21.796875 -24.078125 L 20.03125 -19.921875 L 11.609375 0 L 11.34375 0 L 1.1875 -24.078125 L 3.984375 -24.078125 L 12.734375 -3.40625 L 14.0625 -6.640625 Z M 21.453125 -24.078125 "/></g></g></g><g fill="#000000" fill-opacity="1"><g transform="translate(166.998163, 59.387422)"><g><path d="M 1.1875 0 L 1.1875 -24.046875 L 3.75 -24.046875 L 3.75 0 Z M 1.1875 0 "/></g></g></g><g fill="#000000" fill-opacity="1"><g transform="translate(173.197938, 59.387422)"><g><path d="M 1.1875 -24.046875 L 3.75 -24.046875 C 5.613281 -24.046875 7.265625 -23.414062 8.703125 -22.15625 C 10.140625 -20.894531 11.347656 -19.273438 12.328125 -17.296875 C 13.328125 -15.441406 14.117188 -13.394531 14.703125 -11.15625 C 15.296875 -8.914062 15.71875 -6.695312 15.96875 -4.5 L 15.96875 -24.046875 L 18.53125 -24.046875 L 18.53125 0 L 15.96875 0 C 15.96875 -1.8125 15.828125 -3.726562 15.546875 -5.75 C 15.265625 -7.769531 14.84375 -9.769531 14.28125 -11.75 C 13.726562 -13.726562 13.03125 -15.535156 12.1875 -17.171875 C 11.164062 -19.117188 9.960938 -20.710938 8.578125 -21.953125 C 7.191406 -23.191406 5.582031 -23.8125 3.75 -23.8125 L 3.75 0 L 1.1875 0 Z M 1.1875 -24.046875 "/></g></g></g><g fill="#000000" fill-opacity="1"><g transform="translate(194.180599, 59.387422)"><g><path d="M 3.8125 -16.046875 L 3.8125 -0.265625 L 9.578125 -0.265625 C 11.046875 -0.265625 12.25 -0.628906 13.1875 -1.359375 C 14.132812 -2.085938 14.914062 -3.316406 15.53125 -5.046875 L 14.75 0 L 1.1875 0 L 1.1875 -24.046875 L 14.953125 -24.046875 L 14.953125 -21.328125 C 14.160156 -22.097656 13.390625 -22.65625 12.640625 -23 C 11.890625 -23.351562 11.039062 -23.578125 10.09375 -23.671875 C 9.15625 -23.765625 7.992188 -23.8125 6.609375 -23.8125 L 3.8125 -23.8125 L 3.8125 -18.296875 C 3.8125 -16.742188 4.070312 -15.554688 4.59375 -14.734375 C 5.113281 -13.921875 5.894531 -13.375 6.9375 -13.09375 C 7.988281 -12.8125 9.296875 -12.671875 10.859375 -12.671875 L 10.859375 -9.984375 C 10.359375 -10.546875 9.757812 -10.988281 9.0625 -11.3125 C 8.375 -11.644531 7.671875 -11.988281 6.953125 -12.34375 C 6.242188 -12.695312 5.601562 -13.148438 5.03125 -13.703125 C 4.46875 -14.265625 4.0625 -15.046875 3.8125 -16.046875 Z M 3.8125 -16.046875 "/></g></g></g><g fill="#000000" fill-opacity="1"><g transform="translate(212.165815, 59.387422)"><g/></g></g><g fill="#000000" fill-opacity="1"><g transform="translate(222.929897, 59.387422)"><g><path d="M 8.953125 0 L 1.1875 0 L 1.1875 -24.046875 L 8.953125 -24.046875 C 10.585938 -24.046875 12.117188 -23.734375 13.546875 -23.109375 C 14.984375 -22.484375 16.25 -21.617188 17.34375 -20.515625 C 18.445312 -19.421875 19.3125 -18.144531 19.9375 -16.6875 C 20.5625 -15.238281 20.875 -13.671875 20.875 -11.984375 C 20.875 -10.328125 20.5625 -8.769531 19.9375 -7.3125 C 19.3125 -5.863281 18.445312 -4.585938 17.34375 -3.484375 C 16.25 -2.390625 14.984375 -1.535156 13.546875 -0.921875 C 12.117188 -0.304688 10.585938 0 8.953125 0 Z M 3.84375 -23.8125 L 3.84375 -0.265625 L 8.953125 -0.265625 C 10.253906 -0.265625 11.472656 -0.566406 12.609375 -1.171875 C 13.742188 -1.773438 14.738281 -2.613281 15.59375 -3.6875 C 16.457031 -4.769531 17.132812 -6.015625 17.625 -7.421875 C 18.113281 -8.828125 18.359375 -10.347656 18.359375 -11.984375 C 18.359375 -13.617188 18.113281 -15.144531 17.625 -16.5625 C 17.132812 -17.988281 16.457031 -19.242188 15.59375 -20.328125 C 14.738281 -21.421875 13.742188 -22.273438 12.609375 -22.890625 C 11.472656 -23.503906 10.253906 -23.8125 8.953125 -23.8125 Z M 3.84375 -23.8125 "/></g></g></g><g fill="#000000" fill-opacity="1"><g transform="translate(246.262835, 59.387422)"><g><path d="M 3.8125 -16.046875 L 3.8125 -0.265625 L 9.578125 -0.265625 C 11.046875 -0.265625 12.25 -0.628906 13.1875 -1.359375 C 14.132812 -2.085938 14.914062 -3.316406 15.53125 -5.046875 L 14.75 0 L 1.1875 0 L 1.1875 -24.046875 L 14.953125 -24.046875 L 14.953125 -21.328125 C 14.160156 -22.097656 13.390625 -22.65625 12.640625 -23 C 11.890625 -23.351562 11.039062 -23.578125 10.09375 -23.671875 C 9.15625 -23.765625 7.992188 -23.8125 6.609375 -23.8125 L 3.8125 -23.8125 L 3.8125 -18.296875 C 3.8125 -16.742188 4.070312 -15.554688 4.59375 -14.734375 C 5.113281 -13.921875 5.894531 -13.375 6.9375 -13.09375 C 7.988281 -12.8125 9.296875 -12.671875 10.859375 -12.671875 L 10.859375 -9.984375 C 10.359375 -10.546875 9.757812 -10.988281 9.0625 -11.3125 C 8.375 -11.644531 7.671875 -11.988281 6.953125 -12.34375 C 6.242188 -12.695312 5.601562 -13.148438 5.03125 -13.703125 C 4.46875 -14.265625 4.0625 -15.046875 3.8125 -16.046875 Z M 3.8125 -16.046875 "/></g></g></g><g fill="#000000" fill-opacity="1"><g transform="translate(264.248051, 59.387422)"><g><path d="M 9.296875 0 L 9.296875 -23.8125 C 8.097656 -23.8125 7.023438 -23.757812 6.078125 -23.65625 C 5.140625 -23.550781 4.273438 -23.332031 3.484375 -23 C 2.703125 -22.675781 1.9375 -22.148438 1.1875 -21.421875 L 1.1875 -24.078125 L 20.03125 -24.078125 L 20.03125 -21.421875 C 19.257812 -22.148438 18.476562 -22.675781 17.6875 -23 C 16.90625 -23.332031 16.050781 -23.550781 15.125 -23.65625 C 14.195312 -23.757812 13.128906 -23.8125 11.921875 -23.8125 L 11.921875 0 Z M 9.296875 0 "/></g></g></g><g fill="#000000" fill-opacity="1"><g transform="translate(286.729445, 59.387422)"><g><path d="M 17.75 0 L 13.890625 -9.234375 C 12.441406 -9.097656 11.242188 -8.800781 10.296875 -8.34375 C 9.359375 -7.882812 8.597656 -7.332031 8.015625 -6.6875 C 7.441406 -6.039062 6.976562 -5.363281 6.625 -4.65625 C 6.269531 -3.957031 5.957031 -3.300781 5.6875 -2.6875 C 5.375 -1.851562 5.03125 -1.15625 4.65625 -0.59375 C 4.28125 -0.0390625 3.703125 0.222656 2.921875 0.203125 C 2.835938 0.179688 2.753906 0.160156 2.671875 0.140625 C 2.585938 0.117188 2.492188 0.0625 2.390625 -0.03125 C 1.453125 -0.4375 1.078125 -1.425781 1.265625 -3 C 1.347656 -3.75 1.507812 -4.59375 1.75 -5.53125 C 1.988281 -6.476562 2.3125 -7.492188 2.71875 -8.578125 C 3.332031 -10.210938 4.050781 -11.941406 4.875 -13.765625 C 5.707031 -15.597656 6.582031 -17.40625 7.5 -19.1875 C 8.425781 -20.976562 9.320312 -22.597656 10.1875 -24.046875 L 10.421875 -24.046875 L 20.609375 0 Z M 13.796875 -9.46875 L 8.78125 -21.125 C 7.738281 -19.125 6.6875 -17.015625 5.625 -14.796875 C 4.570312 -12.585938 3.6875 -10.492188 2.96875 -8.515625 C 2.550781 -7.421875 2.222656 -6.410156 1.984375 -5.484375 C 1.753906 -4.554688 1.59375 -3.726562 1.5 -3 C 1.476562 -2.289062 1.535156 -1.691406 1.671875 -1.203125 C 1.804688 -0.722656 2.078125 -0.410156 2.484375 -0.265625 C 2.597656 -0.242188 2.679688 -0.222656 2.734375 -0.203125 C 2.796875 -0.179688 2.875 -0.148438 2.96875 -0.109375 C 3.644531 -0.0546875 4.148438 -0.289062 4.484375 -0.8125 C 4.828125 -1.332031 5.140625 -1.984375 5.421875 -2.765625 C 5.691406 -3.398438 6.007812 -4.070312 6.375 -4.78125 C 6.738281 -5.5 7.21875 -6.1875 7.8125 -6.84375 C 8.414062 -7.5 9.191406 -8.066406 10.140625 -8.546875 C 11.097656 -9.023438 12.316406 -9.332031 13.796875 -9.46875 Z M 13.796875 -9.46875 "/></g></g></g><g fill="#000000" fill-opacity="1"><g transform="translate(309.789875, 59.387422)"><g><path d="M 1.1875 0 L 1.1875 -24.046875 L 3.75 -24.046875 L 3.75 0 Z M 1.1875 0 "/></g></g></g><g fill="#000000" fill-opacity="1"><g transform="translate(315.989672, 59.387422)"><g><path d="M 15.59375 -5.046875 L 14.78125 0 L 1.1875 0 L 1.1875 -24.046875 L 3.921875 -24.046875 L 3.921875 -0.265625 L 9.671875 -0.265625 C 11.148438 -0.265625 12.347656 -0.628906 13.265625 -1.359375 C 14.179688 -2.085938 14.957031 -3.316406 15.59375 -5.046875 Z M 15.59375 -5.046875 "/></g></g></g></g></g></g></svg>