<svg xmlns="http://www.w3.org/2000/svg" xmlns:xlink="http://www.w3.org/1999/xlink" width="1080" zoomAndPan="magnify" viewBox="0 0 810 449.999984" height="600" preserveAspectRatio="xMidYMid meet" version="1.0"><defs><g/><clipPath id="8a7321e8cf"><path d="M 0.640625 288 L 797.679688 288 L 797.679688 412 L 0.640625 412 Z M 0.640625 288 " clip-rule="nonzero"/></clipPath><clipPath id="6b15d9b275"><rect x="0" width="798" y="0" height="124"/></clipPath><clipPath id="7caf5dd432"><rect x="0" width="798" y="0" height="449"/></clipPath></defs><rect x="-81" width="972" fill="#ffffff" y="-44.999998" height="539.99998" fill-opacity="1"/><rect x="-81" width="972" fill="#211e1e" y="-44.999998" height="539.99998" fill-opacity="1"/><g transform="matrix(1, 0, 0, 1, 8, 1)"><g clip-path="url(#7caf5dd432)"><g fill="#fcf7f7" fill-opacity="1"><g transform="translate(139.935018, 439.807561)"><g><path d="M 13.4375 0 L 6.5625 -19.921875 L 6.40625 -19.921875 C 6.445312 -19.472656 6.488281 -18.863281 6.53125 -18.09375 C 6.570312 -17.320312 6.609375 -16.492188 6.640625 -15.609375 C 6.671875 -14.734375 6.6875 -13.894531 6.6875 -13.09375 L 6.6875 0 L 3.140625 0 L 3.140625 -23.859375 L 8.640625 -23.859375 L 15.25 -4.8125 L 15.34375 -4.8125 L 22.171875 -23.859375 L 27.65625 -23.859375 L 27.65625 0 L 23.921875 0 L 23.921875 -13.28125 C 23.921875 -14.007812 23.929688 -14.796875 23.953125 -15.640625 C 23.984375 -16.492188 24.019531 -17.300781 24.0625 -18.0625 C 24.101562 -18.820312 24.132812 -19.429688 24.15625 -19.890625 L 24.015625 -19.890625 L 16.890625 0 Z M 13.4375 0 "/></g></g></g><g fill="#fcf7f7" fill-opacity="1"><g transform="translate(177.402274, 439.807561)"><g><path d="M 24.3125 -11.96875 C 24.3125 -10.125 24.078125 -8.445312 23.609375 -6.9375 C 23.148438 -5.4375 22.457031 -4.144531 21.53125 -3.0625 C 20.613281 -1.976562 19.457031 -1.140625 18.0625 -0.546875 C 16.675781 0.0351562 15.046875 0.328125 13.171875 0.328125 C 11.265625 0.328125 9.613281 0.0351562 8.21875 -0.546875 C 6.820312 -1.140625 5.660156 -1.976562 4.734375 -3.0625 C 3.816406 -4.15625 3.128906 -5.457031 2.671875 -6.96875 C 2.210938 -8.476562 1.984375 -10.15625 1.984375 -12 C 1.984375 -14.457031 2.390625 -16.601562 3.203125 -18.4375 C 4.015625 -20.269531 5.25 -21.691406 6.90625 -22.703125 C 8.570312 -23.722656 10.671875 -24.234375 13.203125 -24.234375 C 15.679688 -24.234375 17.738281 -23.726562 19.375 -22.71875 C 21.019531 -21.707031 22.253906 -20.285156 23.078125 -18.453125 C 23.898438 -16.617188 24.3125 -14.457031 24.3125 -11.96875 Z M 6.109375 -11.96875 C 6.109375 -10.125 6.359375 -8.53125 6.859375 -7.1875 C 7.359375 -5.84375 8.125 -4.804688 9.15625 -4.078125 C 10.195312 -3.359375 11.535156 -3 13.171875 -3 C 14.816406 -3 16.15625 -3.359375 17.1875 -4.078125 C 18.21875 -4.804688 18.976562 -5.84375 19.46875 -7.1875 C 19.957031 -8.53125 20.203125 -10.125 20.203125 -11.96875 C 20.203125 -14.757812 19.644531 -16.945312 18.53125 -18.53125 C 17.414062 -20.113281 15.640625 -20.90625 13.203125 -20.90625 C 11.566406 -20.90625 10.222656 -20.546875 9.171875 -19.828125 C 8.128906 -19.109375 7.359375 -18.082031 6.859375 -16.75 C 6.359375 -15.414062 6.109375 -13.820312 6.109375 -11.96875 Z M 6.109375 -11.96875 "/></g></g></g><g fill="#fcf7f7" fill-opacity="1"><g transform="translate(210.383557, 439.807561)"><g><path d="M 13.4375 0 L 6.5625 -19.921875 L 6.40625 -19.921875 C 6.445312 -19.472656 6.488281 -18.863281 6.53125 -18.09375 C 6.570312 -17.320312 6.609375 -16.492188 6.640625 -15.609375 C 6.671875 -14.734375 6.6875 -13.894531 6.6875 -13.09375 L 6.6875 0 L 3.140625 0 L 3.140625 -23.859375 L 8.640625 -23.859375 L 15.25 -4.8125 L 15.34375 -4.8125 L 22.171875 -23.859375 L 27.65625 -23.859375 L 27.65625 0 L 23.921875 0 L 23.921875 -13.28125 C 23.921875 -14.007812 23.929688 -14.796875 23.953125 -15.640625 C 23.984375 -16.492188 24.019531 -17.300781 24.0625 -18.0625 C 24.101562 -18.820312 24.132812 -19.429688 24.15625 -19.890625 L 24.015625 -19.890625 L 16.890625 0 Z M 13.4375 0 "/></g></g></g><g fill="#fcf7f7" fill-opacity="1"><g transform="translate(247.850813, 439.807561)"><g><path d="M 16.640625 0 L 3.140625 0 L 3.140625 -23.859375 L 16.640625 -23.859375 L 16.640625 -20.5625 L 7.046875 -20.5625 L 7.046875 -14.078125 L 16.046875 -14.078125 L 16.046875 -10.796875 L 7.046875 -10.796875 L 7.046875 -3.3125 L 16.640625 -3.3125 Z M 16.640625 0 "/></g></g></g><g fill="#fcf7f7" fill-opacity="1"><g transform="translate(273.181476, 439.807561)"><g><path d="M 23.046875 0 L 18.234375 0 L 6.546875 -19.046875 L 6.390625 -19.046875 C 6.441406 -18.398438 6.484375 -17.71875 6.515625 -17 C 6.554688 -16.28125 6.585938 -15.539062 6.609375 -14.78125 C 6.640625 -14.019531 6.664062 -13.25 6.6875 -12.46875 L 6.6875 0 L 3.140625 0 L 3.140625 -23.859375 L 7.921875 -23.859375 L 19.578125 -4.9375 L 19.703125 -4.9375 C 19.679688 -5.5 19.648438 -6.140625 19.609375 -6.859375 C 19.578125 -7.578125 19.546875 -8.316406 19.515625 -9.078125 C 19.492188 -9.847656 19.476562 -10.59375 19.46875 -11.3125 L 19.46875 -23.859375 L 23.046875 -23.859375 Z M 23.046875 0 "/></g></g></g><g fill="#fcf7f7" fill-opacity="1"><g transform="translate(306.032259, 439.807561)"><g><path d="M 11.40625 0 L 7.46875 0 L 7.46875 -20.53125 L 0.484375 -20.53125 L 0.484375 -23.859375 L 18.375 -23.859375 L 18.375 -20.53125 L 11.40625 -20.53125 Z M 11.40625 0 "/></g></g></g><g fill="#fcf7f7" fill-opacity="1"><g transform="translate(331.591299, 439.807561)"><g><path d="M 16.90625 -6.5 C 16.90625 -5.082031 16.554688 -3.863281 15.859375 -2.84375 C 15.171875 -1.820312 14.179688 -1.035156 12.890625 -0.484375 C 11.609375 0.0546875 10.078125 0.328125 8.296875 0.328125 C 7.421875 0.328125 6.585938 0.273438 5.796875 0.171875 C 5.003906 0.078125 4.253906 -0.0625 3.546875 -0.25 C 2.847656 -0.4375 2.207031 -0.671875 1.625 -0.953125 L 1.625 -4.640625 C 2.59375 -4.210938 3.675781 -3.828125 4.875 -3.484375 C 6.070312 -3.140625 7.289062 -2.96875 8.53125 -2.96875 C 9.539062 -2.96875 10.378906 -3.097656 11.046875 -3.359375 C 11.722656 -3.628906 12.222656 -4.007812 12.546875 -4.5 C 12.878906 -5 13.046875 -5.582031 13.046875 -6.25 C 13.046875 -6.957031 12.851562 -7.554688 12.46875 -8.046875 C 12.082031 -8.535156 11.503906 -8.984375 10.734375 -9.390625 C 9.972656 -9.796875 9.015625 -10.234375 7.859375 -10.703125 C 7.078125 -11.015625 6.328125 -11.375 5.609375 -11.78125 C 4.898438 -12.1875 4.269531 -12.660156 3.71875 -13.203125 C 3.164062 -13.742188 2.726562 -14.382812 2.40625 -15.125 C 2.082031 -15.875 1.921875 -16.753906 1.921875 -17.765625 C 1.921875 -19.117188 2.242188 -20.273438 2.890625 -21.234375 C 3.546875 -22.191406 4.460938 -22.925781 5.640625 -23.4375 C 6.816406 -23.945312 8.195312 -24.203125 9.78125 -24.203125 C 11.03125 -24.203125 12.207031 -24.070312 13.3125 -23.8125 C 14.414062 -23.550781 15.5 -23.179688 16.5625 -22.703125 L 15.328125 -19.546875 C 14.347656 -19.953125 13.394531 -20.273438 12.46875 -20.515625 C 11.550781 -20.753906 10.613281 -20.875 9.65625 -20.875 C 8.832031 -20.875 8.128906 -20.75 7.546875 -20.5 C 6.972656 -20.25 6.535156 -19.894531 6.234375 -19.4375 C 5.941406 -18.988281 5.796875 -18.457031 5.796875 -17.84375 C 5.796875 -17.144531 5.96875 -16.554688 6.3125 -16.078125 C 6.65625 -15.609375 7.1875 -15.175781 7.90625 -14.78125 C 8.625 -14.394531 9.554688 -13.960938 10.703125 -13.484375 C 12.023438 -12.929688 13.144531 -12.359375 14.0625 -11.765625 C 14.976562 -11.171875 15.679688 -10.457031 16.171875 -9.625 C 16.660156 -8.789062 16.90625 -7.75 16.90625 -6.5 Z M 16.90625 -6.5 "/></g></g></g><g fill="#fcf7f7" fill-opacity="1"><g transform="translate(356.644647, 439.807561)"><g/></g></g><g fill="#fcf7f7" fill-opacity="1"><g transform="translate(372.008297, 439.807561)"><g><path d="M 13.4375 0 L 6.5625 -19.921875 L 6.40625 -19.921875 C 6.445312 -19.472656 6.488281 -18.863281 6.53125 -18.09375 C 6.570312 -17.320312 6.609375 -16.492188 6.640625 -15.609375 C 6.671875 -14.734375 6.6875 -13.894531 6.6875 -13.09375 L 6.6875 0 L 3.140625 0 L 3.140625 -23.859375 L 8.640625 -23.859375 L 15.25 -4.8125 L 15.34375 -4.8125 L 22.171875 -23.859375 L 27.65625 -23.859375 L 27.65625 0 L 23.921875 0 L 23.921875 -13.28125 C 23.921875 -14.007812 23.929688 -14.796875 23.953125 -15.640625 C 23.984375 -16.492188 24.019531 -17.300781 24.0625 -18.0625 C 24.101562 -18.820312 24.132812 -19.429688 24.15625 -19.890625 L 24.015625 -19.890625 L 16.890625 0 Z M 13.4375 0 "/></g></g></g><g fill="#fcf7f7" fill-opacity="1"><g transform="translate(409.475553, 439.807561)"><g><path d="M 17.921875 0 L 15.578125 -6.625 L 6.46875 -6.625 L 4.125 0 L 0 0 L 8.875 -23.953125 L 13.21875 -23.953125 L 22.078125 0 Z M 14.578125 -9.984375 L 12.3125 -16.515625 C 12.21875 -16.796875 12.085938 -17.191406 11.921875 -17.703125 C 11.765625 -18.222656 11.601562 -18.753906 11.4375 -19.296875 C 11.269531 -19.835938 11.132812 -20.289062 11.03125 -20.65625 C 10.925781 -20.207031 10.789062 -19.707031 10.625 -19.15625 C 10.46875 -18.613281 10.316406 -18.101562 10.171875 -17.625 C 10.023438 -17.144531 9.914062 -16.773438 9.84375 -16.515625 L 7.5625 -9.984375 Z M 14.578125 -9.984375 "/></g></g></g><g fill="#fcf7f7" fill-opacity="1"><g transform="translate(438.24818, 439.807561)"><g><path d="M 22.5 -12.15625 C 22.5 -9.46875 22 -7.222656 21 -5.421875 C 20 -3.617188 18.546875 -2.265625 16.640625 -1.359375 C 14.742188 -0.453125 12.453125 0 9.765625 0 L 3.140625 0 L 3.140625 -23.859375 L 10.484375 -23.859375 C 12.953125 -23.859375 15.082031 -23.414062 16.875 -22.53125 C 18.664062 -21.644531 20.050781 -20.332031 21.03125 -18.59375 C 22.007812 -16.863281 22.5 -14.71875 22.5 -12.15625 Z M 18.421875 -12.046875 C 18.421875 -14.003906 18.113281 -15.613281 17.5 -16.875 C 16.882812 -18.132812 15.976562 -19.070312 14.78125 -19.6875 C 13.59375 -20.300781 12.128906 -20.609375 10.390625 -20.609375 L 7.046875 -20.609375 L 7.046875 -3.28125 L 9.828125 -3.28125 C 12.710938 -3.28125 14.863281 -4.015625 16.28125 -5.484375 C 17.707031 -6.953125 18.421875 -9.140625 18.421875 -12.046875 Z M 18.421875 -12.046875 "/></g></g></g><g fill="#fcf7f7" fill-opacity="1"><g transform="translate(469.418763, 439.807561)"><g><path d="M 16.640625 0 L 3.140625 0 L 3.140625 -23.859375 L 16.640625 -23.859375 L 16.640625 -20.5625 L 7.046875 -20.5625 L 7.046875 -14.078125 L 16.046875 -14.078125 L 16.046875 -10.796875 L 7.046875 -10.796875 L 7.046875 -3.3125 L 16.640625 -3.3125 Z M 16.640625 0 "/></g></g></g><g fill="#fcf7f7" fill-opacity="1"><g transform="translate(494.749426, 439.807561)"><g/></g></g><g fill="#fcf7f7" fill-opacity="1"><g transform="translate(510.113076, 439.807561)"><g><path d="M 22.5 -12.15625 C 22.5 -9.46875 22 -7.222656 21 -5.421875 C 20 -3.617188 18.546875 -2.265625 16.640625 -1.359375 C 14.742188 -0.453125 12.453125 0 9.765625 0 L 3.140625 0 L 3.140625 -23.859375 L 10.484375 -23.859375 C 12.953125 -23.859375 15.082031 -23.414062 16.875 -22.53125 C 18.664062 -21.644531 20.050781 -20.332031 21.03125 -18.59375 C 22.007812 -16.863281 22.5 -14.71875 22.5 -12.15625 Z M 18.421875 -12.046875 C 18.421875 -14.003906 18.113281 -15.613281 17.5 -16.875 C 16.882812 -18.132812 15.976562 -19.070312 14.78125 -19.6875 C 13.59375 -20.300781 12.128906 -20.609375 10.390625 -20.609375 L 7.046875 -20.609375 L 7.046875 -3.28125 L 9.828125 -3.28125 C 12.710938 -3.28125 14.863281 -4.015625 16.28125 -5.484375 C 17.707031 -6.953125 18.421875 -9.140625 18.421875 -12.046875 Z M 18.421875 -12.046875 "/></g></g></g><g fill="#fcf7f7" fill-opacity="1"><g transform="translate(541.283658, 439.807561)"><g><path d="M 3.140625 0 L 3.140625 -23.859375 L 7.046875 -23.859375 L 7.046875 0 Z M 3.140625 0 "/></g></g></g><g fill="#fcf7f7" fill-opacity="1"><g transform="translate(558.164382, 439.807561)"><g><path d="M 20.828125 -23.859375 L 12.484375 0 L 8.34375 0 L 0 -23.859375 L 4.015625 -23.859375 L 9.046875 -8.90625 C 9.191406 -8.46875 9.351562 -7.9375 9.53125 -7.3125 C 9.71875 -6.695312 9.890625 -6.070312 10.046875 -5.4375 C 10.203125 -4.8125 10.320312 -4.253906 10.40625 -3.765625 C 10.5 -4.253906 10.625 -4.8125 10.78125 -5.4375 C 10.9375 -6.070312 11.097656 -6.695312 11.265625 -7.3125 C 11.441406 -7.9375 11.609375 -8.472656 11.765625 -8.921875 L 16.8125 -23.859375 Z M 20.828125 -23.859375 "/></g></g></g><g fill="#fcf7f7" fill-opacity="1"><g transform="translate(585.664625, 439.807561)"><g><path d="M 3.140625 0 L 3.140625 -23.859375 L 7.046875 -23.859375 L 7.046875 0 Z M 3.140625 0 "/></g></g></g><g fill="#fcf7f7" fill-opacity="1"><g transform="translate(602.545349, 439.807561)"><g><path d="M 23.046875 0 L 18.234375 0 L 6.546875 -19.046875 L 6.390625 -19.046875 C 6.441406 -18.398438 6.484375 -17.71875 6.515625 -17 C 6.554688 -16.28125 6.585938 -15.539062 6.609375 -14.78125 C 6.640625 -14.019531 6.664062 -13.25 6.6875 -12.46875 L 6.6875 0 L 3.140625 0 L 3.140625 -23.859375 L 7.921875 -23.859375 L 19.578125 -4.9375 L 19.703125 -4.9375 C 19.679688 -5.5 19.648438 -6.140625 19.609375 -6.859375 C 19.578125 -7.578125 19.546875 -8.316406 19.515625 -9.078125 C 19.492188 -9.847656 19.476562 -10.59375 19.46875 -11.3125 L 19.46875 -23.859375 L 23.046875 -23.859375 Z M 23.046875 0 "/></g></g></g><g fill="#fcf7f7" fill-opacity="1"><g transform="translate(635.396131, 439.807561)"><g><path d="M 16.640625 0 L 3.140625 0 L 3.140625 -23.859375 L 16.640625 -23.859375 L 16.640625 -20.5625 L 7.046875 -20.5625 L 7.046875 -14.078125 L 16.046875 -14.078125 L 16.046875 -10.796875 L 7.046875 -10.796875 L 7.046875 -3.3125 L 16.640625 -3.3125 Z M 16.640625 0 "/></g></g></g><g fill="#fcf7f7" fill-opacity="1"><g transform="translate(275.856045, 204.876796)"><g><path d="M 72.515625 0 L 9.65625 0 L 9.65625 -194.640625 L 72.515625 -194.640625 C 85.742188 -194.640625 98.144531 -192.113281 109.71875 -187.0625 C 121.300781 -182.007812 131.550781 -175.023438 140.46875 -166.109375 C 149.382812 -157.191406 156.367188 -146.851562 161.421875 -135.09375 C 166.472656 -123.332031 169 -110.648438 169 -97.046875 C 169 -83.628906 166.472656 -71.035156 161.421875 -59.265625 C 156.367188 -47.503906 149.382812 -37.164062 140.46875 -28.25 C 131.550781 -19.34375 121.300781 -12.40625 109.71875 -7.4375 C 98.144531 -2.476562 85.742188 0 72.515625 0 Z M 31.15625 -192.71875 L 31.15625 -2.203125 L 72.515625 -2.203125 C 82.984375 -2.203125 92.8125 -4.632812 102 -9.5 C 111.195312 -14.375 119.285156 -21.175781 126.265625 -29.90625 C 133.253906 -38.644531 138.722656 -48.710938 142.671875 -60.109375 C 146.628906 -71.503906 148.609375 -83.816406 148.609375 -97.046875 C 148.609375 -110.273438 146.628906 -122.632812 142.671875 -134.125 C 138.722656 -145.613281 133.253906 -155.769531 126.265625 -164.59375 C 119.285156 -173.414062 111.195312 -180.304688 102 -185.265625 C 92.8125 -190.234375 82.984375 -192.71875 72.515625 -192.71875 Z M 31.15625 -192.71875 "/></g></g></g><g fill="#fcf7f7" fill-opacity="1"><g transform="translate(345.606743, 257.819285)"><g><path d="M 72.515625 0 L 9.65625 0 L 9.65625 -194.640625 L 72.515625 -194.640625 C 85.742188 -194.640625 98.144531 -192.113281 109.71875 -187.0625 C 121.300781 -182.007812 131.550781 -175.023438 140.46875 -166.109375 C 149.382812 -157.191406 156.367188 -146.851562 161.421875 -135.09375 C 166.472656 -123.332031 169 -110.648438 169 -97.046875 C 169 -83.628906 166.472656 -71.035156 161.421875 -59.265625 C 156.367188 -47.503906 149.382812 -37.164062 140.46875 -28.25 C 131.550781 -19.34375 121.300781 -12.40625 109.71875 -7.4375 C 98.144531 -2.476562 85.742188 0 72.515625 0 Z M 31.15625 -192.71875 L 31.15625 -2.203125 L 72.515625 -2.203125 C 82.984375 -2.203125 92.8125 -4.632812 102 -9.5 C 111.195312 -14.375 119.285156 -21.175781 126.265625 -29.90625 C 133.253906 -38.644531 138.722656 -48.710938 142.671875 -60.109375 C 146.628906 -71.503906 148.609375 -83.816406 148.609375 -97.046875 C 148.609375 -110.273438 146.628906 -122.632812 142.671875 -134.125 C 138.722656 -145.613281 133.253906 -155.769531 126.265625 -164.59375 C 119.285156 -173.414062 111.195312 -180.304688 102 -185.265625 C 92.8125 -190.234375 82.984375 -192.71875 72.515625 -192.71875 Z M 31.15625 -192.71875 "/></g></g></g><g clip-path="url(#8a7321e8cf)"><g transform="matrix(1, 0, 0, 1, -0.000000000000001776, 288)"><g clip-path="url(#6b15d9b275)"><g fill="#fcf7f7" fill-opacity="1"><g transform="translate(1.321762, 91.354082)"><g><path d="M 32.28125 0 L 4.296875 0 L 4.296875 -86.671875 L 32.28125 -86.671875 C 38.175781 -86.671875 43.703125 -85.546875 48.859375 -83.296875 C 54.015625 -81.046875 58.578125 -77.9375 62.546875 -73.96875 C 66.515625 -70 69.625 -65.394531 71.875 -60.15625 C 74.125 -54.914062 75.25 -49.269531 75.25 -43.21875 C 75.25 -37.238281 74.125 -31.628906 71.875 -26.390625 C 69.625 -21.148438 66.515625 -16.546875 62.546875 -12.578125 C 58.578125 -8.609375 54.015625 -5.519531 48.859375 -3.3125 C 43.703125 -1.101562 38.175781 0 32.28125 0 Z M 13.875 -85.8125 L 13.875 -0.984375 L 32.28125 -0.984375 C 36.945312 -0.984375 41.328125 -2.066406 45.421875 -4.234375 C 49.515625 -6.398438 53.113281 -9.425781 56.21875 -13.3125 C 59.332031 -17.207031 61.769531 -21.691406 63.53125 -26.765625 C 65.289062 -31.835938 66.171875 -37.320312 66.171875 -43.21875 C 66.171875 -49.101562 65.289062 -54.601562 63.53125 -59.71875 C 61.769531 -64.832031 59.332031 -69.351562 56.21875 -73.28125 C 53.113281 -77.21875 49.515625 -80.289062 45.421875 -82.5 C 41.328125 -84.707031 36.945312 -85.8125 32.28125 -85.8125 Z M 13.875 -85.8125 "/></g></g></g><g fill="#fcf7f7" fill-opacity="1"><g transform="translate(85.41511, 91.354082)"><g><path d="M 4.296875 0 L 4.296875 -86.671875 L 13.5 -86.671875 L 13.5 0 Z M 4.296875 0 "/></g></g></g><g fill="#fcf7f7" fill-opacity="1"><g transform="translate(107.758422, 91.354082)"><g><path d="M 77.34375 -86.796875 L 78.5625 -86.796875 L 72.1875 -71.8125 L 41.859375 0 L 40.875 0 L 4.296875 -86.796875 L 14.359375 -86.796875 L 45.921875 -12.28125 L 50.703125 -23.9375 Z M 77.34375 -86.796875 "/></g></g></g><g fill="#fcf7f7" fill-opacity="1"><g transform="translate(195.166377, 91.354082)"><g><path d="M 4.296875 0 L 4.296875 -86.671875 L 13.5 -86.671875 L 13.5 0 Z M 4.296875 0 "/></g></g></g><g fill="#fcf7f7" fill-opacity="1"><g transform="translate(217.509688, 91.354082)"><g><path d="M 4.296875 -86.671875 L 13.5 -86.671875 C 20.21875 -86.671875 26.171875 -84.398438 31.359375 -79.859375 C 36.554688 -75.316406 40.914062 -69.484375 44.4375 -62.359375 C 48.039062 -55.648438 50.90625 -48.265625 53.03125 -40.203125 C 55.164062 -32.140625 56.679688 -24.140625 57.578125 -16.203125 L 57.578125 -86.671875 L 66.78125 -86.671875 L 66.78125 0 L 57.578125 0 C 57.578125 -6.550781 57.066406 -13.46875 56.046875 -20.75 C 55.023438 -28.03125 53.507812 -35.226562 51.5 -42.34375 C 49.5 -49.46875 46.984375 -55.976562 43.953125 -61.875 C 40.265625 -68.914062 35.925781 -74.664062 30.9375 -79.125 C 25.945312 -83.582031 20.132812 -85.8125 13.5 -85.8125 L 13.5 0 L 4.296875 0 Z M 4.296875 -86.671875 "/></g></g></g><g fill="#fcf7f7" fill-opacity="1"><g transform="translate(293.13235, 91.354082)"><g><path d="M 13.75 -57.828125 L 13.75 -0.984375 L 34.5 -0.984375 C 39.820312 -0.984375 44.179688 -2.289062 47.578125 -4.90625 C 50.972656 -7.53125 53.773438 -11.953125 55.984375 -18.171875 L 53.15625 0 L 4.296875 0 L 4.296875 -86.671875 L 53.890625 -86.671875 L 53.890625 -76.84375 C 51.023438 -79.632812 48.242188 -81.660156 45.546875 -82.921875 C 42.847656 -84.191406 39.800781 -84.988281 36.40625 -85.3125 C 33.007812 -85.644531 28.8125 -85.8125 23.8125 -85.8125 L 13.75 -85.8125 L 13.75 -65.921875 C 13.75 -60.359375 14.6875 -56.101562 16.5625 -53.15625 C 18.445312 -50.207031 21.269531 -48.222656 25.03125 -47.203125 C 28.800781 -46.179688 33.507812 -45.671875 39.15625 -45.671875 L 39.15625 -35.96875 C 37.363281 -38.019531 35.21875 -39.632812 32.71875 -40.8125 C 30.21875 -42 27.675781 -43.226562 25.09375 -44.5 C 22.519531 -45.769531 20.207031 -47.40625 18.15625 -49.40625 C 16.113281 -51.414062 14.644531 -54.222656 13.75 -57.828125 Z M 13.75 -57.828125 "/></g></g></g><g fill="#fcf7f7" fill-opacity="1"><g transform="translate(357.951831, 91.354082)"><g/></g></g><g fill="#fcf7f7" fill-opacity="1"><g transform="translate(396.745448, 91.354082)"><g><path d="M 32.28125 0 L 4.296875 0 L 4.296875 -86.671875 L 32.28125 -86.671875 C 38.175781 -86.671875 43.703125 -85.546875 48.859375 -83.296875 C 54.015625 -81.046875 58.578125 -77.9375 62.546875 -73.96875 C 66.515625 -70 69.625 -65.394531 71.875 -60.15625 C 74.125 -54.914062 75.25 -49.269531 75.25 -43.21875 C 75.25 -37.238281 74.125 -31.628906 71.875 -26.390625 C 69.625 -21.148438 66.515625 -16.546875 62.546875 -12.578125 C 58.578125 -8.609375 54.015625 -5.519531 48.859375 -3.3125 C 43.703125 -1.101562 38.175781 0 32.28125 0 Z M 13.875 -85.8125 L 13.875 -0.984375 L 32.28125 -0.984375 C 36.945312 -0.984375 41.328125 -2.066406 45.421875 -4.234375 C 49.515625 -6.398438 53.113281 -9.425781 56.21875 -13.3125 C 59.332031 -17.207031 61.769531 -21.691406 63.53125 -26.765625 C 65.289062 -31.835938 66.171875 -37.320312 66.171875 -43.21875 C 66.171875 -49.101562 65.289062 -54.601562 63.53125 -59.71875 C 61.769531 -64.832031 59.332031 -69.351562 56.21875 -73.28125 C 53.113281 -77.21875 49.515625 -80.289062 45.421875 -82.5 C 41.328125 -84.707031 36.945312 -85.8125 32.28125 -85.8125 Z M 13.875 -85.8125 "/></g></g></g><g fill="#fcf7f7" fill-opacity="1"><g transform="translate(480.838797, 91.354082)"><g><path d="M 13.75 -57.828125 L 13.75 -0.984375 L 34.5 -0.984375 C 39.820312 -0.984375 44.179688 -2.289062 47.578125 -4.90625 C 50.972656 -7.53125 53.773438 -11.953125 55.984375 -18.171875 L 53.15625 0 L 4.296875 0 L 4.296875 -86.671875 L 53.890625 -86.671875 L 53.890625 -76.84375 C 51.023438 -79.632812 48.242188 -81.660156 45.546875 -82.921875 C 42.847656 -84.191406 39.800781 -84.988281 36.40625 -85.3125 C 33.007812 -85.644531 28.8125 -85.8125 23.8125 -85.8125 L 13.75 -85.8125 L 13.75 -65.921875 C 13.75 -60.359375 14.6875 -56.101562 16.5625 -53.15625 C 18.445312 -50.207031 21.269531 -48.222656 25.03125 -47.203125 C 28.800781 -46.179688 33.507812 -45.671875 39.15625 -45.671875 L 39.15625 -35.96875 C 37.363281 -38.019531 35.21875 -39.632812 32.71875 -40.8125 C 30.21875 -42 27.675781 -43.226562 25.09375 -44.5 C 22.519531 -45.769531 20.207031 -47.40625 18.15625 -49.40625 C 16.113281 -51.414062 14.644531 -54.222656 13.75 -57.828125 Z M 13.75 -57.828125 "/></g></g></g><g fill="#fcf7f7" fill-opacity="1"><g transform="translate(545.658278, 91.354082)"><g><path d="M 33.515625 0 L 33.515625 -85.8125 C 29.179688 -85.8125 25.3125 -85.625 21.90625 -85.25 C 18.507812 -84.882812 15.398438 -84.109375 12.578125 -82.921875 C 9.753906 -81.734375 6.992188 -79.832031 4.296875 -77.21875 L 4.296875 -86.796875 L 72.1875 -86.796875 L 72.1875 -77.21875 C 69.40625 -79.832031 66.601562 -81.734375 63.78125 -82.921875 C 60.957031 -84.109375 57.863281 -84.882812 54.5 -85.25 C 51.144531 -85.625 47.300781 -85.8125 42.96875 -85.8125 L 42.96875 0 Z M 33.515625 0 "/></g></g></g><g fill="#fcf7f7" fill-opacity="1"><g transform="translate(626.6825, 91.354082)"><g><path d="M 63.953125 0 L 50.09375 -33.265625 C 44.851562 -32.773438 40.535156 -31.710938 37.140625 -30.078125 C 33.742188 -28.441406 31 -26.457031 28.90625 -24.125 C 26.820312 -21.789062 25.144531 -19.351562 23.875 -16.8125 C 22.601562 -14.28125 21.476562 -11.910156 20.5 -9.703125 C 19.351562 -6.671875 18.101562 -4.148438 16.75 -2.140625 C 15.40625 -0.140625 13.34375 0.816406 10.5625 0.734375 C 10.226562 0.648438 9.914062 0.566406 9.625 0.484375 C 9.34375 0.410156 9 0.207031 8.59375 -0.125 C 5.238281 -1.59375 3.890625 -5.148438 4.546875 -10.796875 C 4.867188 -13.503906 5.457031 -16.554688 6.3125 -19.953125 C 7.175781 -23.347656 8.347656 -27.007812 9.828125 -30.9375 C 12.035156 -36.832031 14.628906 -43.070312 17.609375 -49.65625 C 20.597656 -56.25 23.75 -62.753906 27.0625 -69.171875 C 30.382812 -75.597656 33.597656 -81.429688 36.703125 -86.671875 L 37.5625 -86.671875 L 74.265625 0 Z M 49.71875 -34.125 L 31.671875 -76.109375 C 27.910156 -68.910156 24.125 -61.320312 20.3125 -53.34375 C 16.507812 -45.363281 13.300781 -37.8125 10.6875 -30.6875 C 9.207031 -26.757812 8.035156 -23.117188 7.171875 -19.765625 C 6.316406 -16.410156 5.726562 -13.421875 5.40625 -10.796875 C 5.320312 -8.265625 5.523438 -6.117188 6.015625 -4.359375 C 6.503906 -2.597656 7.488281 -1.472656 8.96875 -0.984375 C 9.375 -0.898438 9.675781 -0.816406 9.875 -0.734375 C 10.082031 -0.648438 10.351562 -0.53125 10.6875 -0.375 C 13.132812 -0.207031 14.972656 -1.0625 16.203125 -2.9375 C 17.429688 -4.820312 18.535156 -7.15625 19.515625 -9.9375 C 20.503906 -12.226562 21.648438 -14.660156 22.953125 -17.234375 C 24.265625 -19.816406 26.003906 -22.296875 28.171875 -24.671875 C 30.335938 -27.046875 33.140625 -29.09375 36.578125 -30.8125 C 40.015625 -32.53125 44.394531 -33.632812 49.71875 -34.125 Z M 49.71875 -34.125 "/></g></g></g><g fill="#fcf7f7" fill-opacity="1"><g transform="translate(709.793791, 91.354082)"><g><path d="M 4.296875 0 L 4.296875 -86.671875 L 13.5 -86.671875 L 13.5 0 Z M 4.296875 0 "/></g></g></g><g fill="#fcf7f7" fill-opacity="1"><g transform="translate(732.137074, 91.354082)"><g><path d="M 56.234375 -18.171875 L 53.28125 0 L 4.296875 0 L 4.296875 -86.671875 L 14.125 -86.671875 L 14.125 -0.984375 L 34.859375 -0.984375 C 40.179688 -0.984375 44.5 -2.289062 47.8125 -4.90625 C 51.132812 -7.53125 53.941406 -11.953125 56.234375 -18.171875 Z M 56.234375 -18.171875 "/></g></g></g></g></g></g></g></g></svg>