<svg xmlns="http://www.w3.org/2000/svg" xmlns:xlink="http://www.w3.org/1999/xlink" width="450" zoomAndPan="magnify" viewBox="0 0 337.5 112.499997" height="150" preserveAspectRatio="xMidYMid meet" version="1.0"><defs><g/><clipPath id="5ba70219fe"><path d="M 0.496094 0 L 336.503906 0 L 336.503906 112.003906 L 0.496094 112.003906 Z M 0.496094 0 " clip-rule="nonzero"/></clipPath><clipPath id="018fbb217d"><path d="M 7 0 L 328 0 L 328 112.003906 L 7 112.003906 Z M 7 0 " clip-rule="nonzero"/></clipPath><clipPath id="53ab817a47"><path d="M 0.1875 0.476562 L 76 0.476562 L 76 112.003906 L 0.1875 112.003906 Z M 0.1875 0.476562 " clip-rule="nonzero"/></clipPath><clipPath id="770c14f74e"><rect x="0" width="76" y="0" height="113"/></clipPath><clipPath id="1be920c66c"><path d="M 29 22 L 105 22 L 105 112.003906 L 29 112.003906 Z M 29 22 " clip-rule="nonzero"/></clipPath><clipPath id="bf285573c2"><rect x="0" width="76" y="0" height="91"/></clipPath><clipPath id="000b388e59"><rect x="0" width="156" y="0" height="15"/></clipPath><clipPath id="1ae79144ac"><path d="M 107 36 L 320.605469 36 L 320.605469 70 L 107 70 Z M 107 36 " clip-rule="nonzero"/></clipPath><clipPath id="ebc3576df3"><path d="M 30 0.078125 L 51 0.078125 L 51 25 L 30 25 Z M 30 0.078125 " clip-rule="nonzero"/></clipPath><clipPath id="de8ee7ea0c"><path d="M 147 0.078125 L 166 0.078125 L 166 25 L 147 25 Z M 147 0.078125 " clip-rule="nonzero"/></clipPath><clipPath id="5519db4c8b"><rect x="0" width="214" y="0" height="34"/></clipPath><clipPath id="9186a3f408"><rect x="0" width="321" y="0" height="113"/></clipPath></defs><g clip-path="url(#5ba70219fe)"><path fill="#ffffff" d="M 0.496094 0 L 336.503906 0 L 336.503906 112.003906 L 0.496094 112.003906 Z M 0.496094 0 " fill-opacity="1" fill-rule="nonzero"/><path fill="#f7f0ef" d="M 0.496094 0 L 336.503906 0 L 336.503906 112.003906 L 0.496094 112.003906 Z M 0.496094 0 " fill-opacity="1" fill-rule="nonzero"/></g><g clip-path="url(#018fbb217d)"><g transform="matrix(1, 0, 0, 1, 7, 0)"><g clip-path="url(#9186a3f408)"><g clip-path="url(#53ab817a47)"><g transform="matrix(1, 0, 0, 1, 0.000000000000000888, 0)"><g clip-path="url(#770c14f74e)"><g fill="#d68e85" fill-opacity="1"><g transform="translate(0.597633, 85.671641)"><g><path d="M 30.21875 0 L 4.015625 0 L 4.015625 -81.109375 L 30.21875 -81.109375 C 35.726562 -81.109375 40.894531 -80.050781 45.71875 -77.9375 C 50.539062 -75.832031 54.804688 -72.921875 58.515625 -69.203125 C 62.234375 -65.492188 65.144531 -61.1875 67.25 -56.28125 C 69.363281 -51.382812 70.421875 -46.101562 70.421875 -40.4375 C 70.421875 -34.84375 69.363281 -29.59375 67.25 -24.6875 C 65.144531 -19.789062 62.234375 -15.484375 58.515625 -11.765625 C 54.804688 -8.054688 50.539062 -5.164062 45.71875 -3.09375 C 40.894531 -1.03125 35.726562 0 30.21875 0 Z M 12.984375 -80.296875 L 12.984375 -0.921875 L 30.21875 -0.921875 C 34.582031 -0.921875 38.675781 -1.929688 42.5 -3.953125 C 46.332031 -5.984375 49.703125 -8.816406 52.609375 -12.453125 C 55.523438 -16.097656 57.804688 -20.296875 59.453125 -25.046875 C 61.097656 -29.796875 61.921875 -34.925781 61.921875 -40.4375 C 61.921875 -45.945312 61.097656 -51.09375 59.453125 -55.875 C 57.804688 -60.664062 55.523438 -64.898438 52.609375 -68.578125 C 49.703125 -72.253906 46.332031 -75.125 42.5 -77.1875 C 38.675781 -79.257812 34.582031 -80.296875 30.21875 -80.296875 Z M 12.984375 -80.296875 "/></g></g></g></g></g></g><g clip-path="url(#1be920c66c)"><g transform="matrix(1, 0, 0, 1, 29, 22)"><g clip-path="url(#bf285573c2)"><g fill="#d68e85" fill-opacity="1"><g transform="translate(0.659967, 85.730663)"><g><path d="M 30.21875 0 L 4.015625 0 L 4.015625 -81.109375 L 30.21875 -81.109375 C 35.726562 -81.109375 40.894531 -80.050781 45.71875 -77.9375 C 50.539062 -75.832031 54.804688 -72.921875 58.515625 -69.203125 C 62.234375 -65.492188 65.144531 -61.1875 67.25 -56.28125 C 69.363281 -51.382812 70.421875 -46.101562 70.421875 -40.4375 C 70.421875 -34.84375 69.363281 -29.59375 67.25 -24.6875 C 65.144531 -19.789062 62.234375 -15.484375 58.515625 -11.765625 C 54.804688 -8.054688 50.539062 -5.164062 45.71875 -3.09375 C 40.894531 -1.03125 35.726562 0 30.21875 0 Z M 12.984375 -80.296875 L 12.984375 -0.921875 L 30.21875 -0.921875 C 34.582031 -0.921875 38.675781 -1.929688 42.5 -3.953125 C 46.332031 -5.984375 49.703125 -8.816406 52.609375 -12.453125 C 55.523438 -16.097656 57.804688 -20.296875 59.453125 -25.046875 C 61.097656 -29.796875 61.921875 -34.925781 61.921875 -40.4375 C 61.921875 -45.945312 61.097656 -51.09375 59.453125 -55.875 C 57.804688 -60.664062 55.523438 -64.898438 52.609375 -68.578125 C 49.703125 -72.253906 46.332031 -75.125 42.5 -77.1875 C 38.675781 -79.257812 34.582031 -80.296875 30.21875 -80.296875 Z M 12.984375 -80.296875 "/></g></g></g></g></g></g><g transform="matrix(1, 0, 0, 1, 137, 66)"><g clip-path="url(#000b388e59)"><g fill="#d68e85" fill-opacity="1"><g transform="translate(0.563468, 10.824441)"><g><path d="M 3.984375 0 L 1.9375 -5.90625 L 1.90625 -5.90625 C 1.914062 -5.769531 1.925781 -5.585938 1.9375 -5.359375 C 1.945312 -5.128906 1.957031 -4.882812 1.96875 -4.625 C 1.976562 -4.363281 1.984375 -4.113281 1.984375 -3.875 L 1.984375 0 L 0.921875 0 L 0.921875 -7.078125 L 2.5625 -7.078125 L 4.515625 -1.421875 L 4.546875 -1.421875 L 6.578125 -7.078125 L 8.203125 -7.078125 L 8.203125 0 L 7.09375 0 L 7.09375 -3.9375 C 7.09375 -4.15625 7.09375 -4.390625 7.09375 -4.640625 C 7.101562 -4.890625 7.113281 -5.125 7.125 -5.34375 C 7.144531 -5.570312 7.15625 -5.753906 7.15625 -5.890625 L 7.125 -5.890625 L 5 0 Z M 3.984375 0 "/></g></g></g><g fill="#d68e85" fill-opacity="1"><g transform="translate(11.670465, 10.824441)"><g><path d="M 7.203125 -3.546875 C 7.203125 -3.003906 7.132812 -2.507812 7 -2.0625 C 6.863281 -1.613281 6.65625 -1.226562 6.375 -0.90625 C 6.101562 -0.582031 5.757812 -0.332031 5.34375 -0.15625 C 4.9375 0.0078125 4.457031 0.09375 3.90625 0.09375 C 3.34375 0.09375 2.851562 0.0078125 2.4375 -0.15625 C 2.019531 -0.332031 1.675781 -0.582031 1.40625 -0.90625 C 1.132812 -1.226562 0.929688 -1.613281 0.796875 -2.0625 C 0.660156 -2.507812 0.59375 -3.007812 0.59375 -3.5625 C 0.59375 -4.28125 0.710938 -4.910156 0.953125 -5.453125 C 1.191406 -6.003906 1.554688 -6.429688 2.046875 -6.734375 C 2.535156 -7.035156 3.15625 -7.1875 3.90625 -7.1875 C 4.644531 -7.1875 5.257812 -7.035156 5.75 -6.734375 C 6.238281 -6.429688 6.601562 -6.007812 6.84375 -5.46875 C 7.082031 -4.925781 7.203125 -4.285156 7.203125 -3.546875 Z M 1.8125 -3.546875 C 1.8125 -3.003906 1.882812 -2.53125 2.03125 -2.125 C 2.175781 -1.726562 2.398438 -1.421875 2.703125 -1.203125 C 3.015625 -0.992188 3.414062 -0.890625 3.90625 -0.890625 C 4.394531 -0.890625 4.789062 -0.992188 5.09375 -1.203125 C 5.394531 -1.421875 5.617188 -1.726562 5.765625 -2.125 C 5.910156 -2.53125 5.984375 -3.003906 5.984375 -3.546875 C 5.984375 -4.367188 5.816406 -5.015625 5.484375 -5.484375 C 5.160156 -5.960938 4.632812 -6.203125 3.90625 -6.203125 C 3.425781 -6.203125 3.03125 -6.09375 2.71875 -5.875 C 2.40625 -5.664062 2.175781 -5.363281 2.03125 -4.96875 C 1.882812 -4.570312 1.8125 -4.097656 1.8125 -3.546875 Z M 1.8125 -3.546875 "/></g></g></g><g fill="#d68e85" fill-opacity="1"><g transform="translate(21.447485, 10.824441)"><g><path d="M 3.984375 0 L 1.9375 -5.90625 L 1.90625 -5.90625 C 1.914062 -5.769531 1.925781 -5.585938 1.9375 -5.359375 C 1.945312 -5.128906 1.957031 -4.882812 1.96875 -4.625 C 1.976562 -4.363281 1.984375 -4.113281 1.984375 -3.875 L 1.984375 0 L 0.921875 0 L 0.921875 -7.078125 L 2.5625 -7.078125 L 4.515625 -1.421875 L 4.546875 -1.421875 L 6.578125 -7.078125 L 8.203125 -7.078125 L 8.203125 0 L 7.09375 0 L 7.09375 -3.9375 C 7.09375 -4.15625 7.09375 -4.390625 7.09375 -4.640625 C 7.101562 -4.890625 7.113281 -5.125 7.125 -5.34375 C 7.144531 -5.570312 7.15625 -5.753906 7.15625 -5.890625 L 7.125 -5.890625 L 5 0 Z M 3.984375 0 "/></g></g></g><g fill="#d68e85" fill-opacity="1"><g transform="translate(32.554482, 10.824441)"><g><path d="M 4.9375 0 L 0.921875 0 L 0.921875 -7.078125 L 4.9375 -7.078125 L 4.9375 -6.09375 L 2.09375 -6.09375 L 2.09375 -4.171875 L 4.75 -4.171875 L 4.75 -3.203125 L 2.09375 -3.203125 L 2.09375 -0.984375 L 4.9375 -0.984375 Z M 4.9375 0 "/></g></g></g><g fill="#d68e85" fill-opacity="1"><g transform="translate(40.063285, 10.824441)"><g><path d="M 6.828125 0 L 5.40625 0 L 1.9375 -5.640625 L 1.890625 -5.640625 C 1.910156 -5.453125 1.925781 -5.25 1.9375 -5.03125 C 1.945312 -4.820312 1.953125 -4.601562 1.953125 -4.375 C 1.960938 -4.15625 1.972656 -3.929688 1.984375 -3.703125 L 1.984375 0 L 0.921875 0 L 0.921875 -7.078125 L 2.34375 -7.078125 L 5.796875 -1.46875 L 5.84375 -1.46875 C 5.832031 -1.632812 5.820312 -1.820312 5.8125 -2.03125 C 5.800781 -2.238281 5.789062 -2.457031 5.78125 -2.6875 C 5.78125 -2.914062 5.773438 -3.140625 5.765625 -3.359375 L 5.765625 -7.078125 L 6.828125 -7.078125 Z M 6.828125 0 "/></g></g></g><g fill="#d68e85" fill-opacity="1"><g transform="translate(49.801614, 10.824441)"><g><path d="M 3.375 0 L 2.21875 0 L 2.21875 -6.078125 L 0.140625 -6.078125 L 0.140625 -7.078125 L 5.453125 -7.078125 L 5.453125 -6.078125 L 3.375 -6.078125 Z M 3.375 0 "/></g></g></g><g fill="#d68e85" fill-opacity="1"><g transform="translate(57.378125, 10.824441)"><g><path d="M 5.015625 -1.921875 C 5.015625 -1.503906 4.910156 -1.144531 4.703125 -0.84375 C 4.492188 -0.539062 4.195312 -0.304688 3.8125 -0.140625 C 3.4375 0.015625 2.984375 0.09375 2.453125 0.09375 C 2.191406 0.09375 1.941406 0.078125 1.703125 0.046875 C 1.472656 0.0234375 1.253906 -0.0078125 1.046875 -0.0625 C 0.835938 -0.125 0.648438 -0.195312 0.484375 -0.28125 L 0.484375 -1.375 C 0.773438 -1.25 1.097656 -1.132812 1.453125 -1.03125 C 1.804688 -0.925781 2.164062 -0.875 2.53125 -0.875 C 2.832031 -0.875 3.082031 -0.914062 3.28125 -1 C 3.476562 -1.082031 3.625 -1.195312 3.71875 -1.34375 C 3.8125 -1.488281 3.859375 -1.660156 3.859375 -1.859375 C 3.859375 -2.066406 3.800781 -2.242188 3.6875 -2.390625 C 3.582031 -2.535156 3.414062 -2.664062 3.1875 -2.78125 C 2.957031 -2.90625 2.671875 -3.035156 2.328125 -3.171875 C 2.097656 -3.265625 1.875 -3.367188 1.65625 -3.484375 C 1.445312 -3.609375 1.257812 -3.75 1.09375 -3.90625 C 0.9375 -4.070312 0.8125 -4.265625 0.71875 -4.484375 C 0.625 -4.703125 0.578125 -4.960938 0.578125 -5.265625 C 0.578125 -5.671875 0.671875 -6.015625 0.859375 -6.296875 C 1.046875 -6.578125 1.316406 -6.789062 1.671875 -6.9375 C 2.023438 -7.09375 2.429688 -7.171875 2.890625 -7.171875 C 3.265625 -7.171875 3.613281 -7.128906 3.9375 -7.046875 C 4.269531 -6.972656 4.59375 -6.867188 4.90625 -6.734375 L 4.546875 -5.796875 C 4.253906 -5.910156 3.972656 -6.003906 3.703125 -6.078125 C 3.429688 -6.148438 3.148438 -6.1875 2.859375 -6.1875 C 2.617188 -6.1875 2.410156 -6.148438 2.234375 -6.078125 C 2.066406 -6.003906 1.9375 -5.898438 1.84375 -5.765625 C 1.757812 -5.628906 1.71875 -5.46875 1.71875 -5.28125 C 1.71875 -5.082031 1.765625 -4.910156 1.859375 -4.765625 C 1.960938 -4.628906 2.125 -4.5 2.34375 -4.375 C 2.5625 -4.257812 2.835938 -4.132812 3.171875 -4 C 3.566406 -3.832031 3.898438 -3.660156 4.171875 -3.484375 C 4.441406 -3.304688 4.648438 -3.09375 4.796875 -2.84375 C 4.941406 -2.601562 5.015625 -2.296875 5.015625 -1.921875 Z M 5.015625 -1.921875 "/></g></g></g><g fill="#d68e85" fill-opacity="1"><g transform="translate(64.804711, 10.824441)"><g/></g></g><g fill="#d68e85" fill-opacity="1"><g transform="translate(69.358546, 10.824441)"><g><path d="M 3.984375 0 L 1.9375 -5.90625 L 1.90625 -5.90625 C 1.914062 -5.769531 1.925781 -5.585938 1.9375 -5.359375 C 1.945312 -5.128906 1.957031 -4.882812 1.96875 -4.625 C 1.976562 -4.363281 1.984375 -4.113281 1.984375 -3.875 L 1.984375 0 L 0.921875 0 L 0.921875 -7.078125 L 2.5625 -7.078125 L 4.515625 -1.421875 L 4.546875 -1.421875 L 6.578125 -7.078125 L 8.203125 -7.078125 L 8.203125 0 L 7.09375 0 L 7.09375 -3.9375 C 7.09375 -4.15625 7.09375 -4.390625 7.09375 -4.640625 C 7.101562 -4.890625 7.113281 -5.125 7.125 -5.34375 C 7.144531 -5.570312 7.15625 -5.753906 7.15625 -5.890625 L 7.125 -5.890625 L 5 0 Z M 3.984375 0 "/></g></g></g><g fill="#d68e85" fill-opacity="1"><g transform="translate(80.465543, 10.824441)"><g><path d="M 5.3125 0 L 4.625 -1.96875 L 1.921875 -1.96875 L 1.21875 0 L 0 0 L 2.625 -7.09375 L 3.921875 -7.09375 L 6.546875 0 Z M 4.3125 -2.953125 L 3.640625 -4.890625 C 3.617188 -4.972656 3.582031 -5.09375 3.53125 -5.25 C 3.488281 -5.40625 3.441406 -5.5625 3.390625 -5.71875 C 3.335938 -5.875 3.296875 -6.007812 3.265625 -6.125 C 3.234375 -5.988281 3.191406 -5.835938 3.140625 -5.671875 C 3.097656 -5.515625 3.054688 -5.363281 3.015625 -5.21875 C 2.972656 -5.082031 2.941406 -4.972656 2.921875 -4.890625 L 2.234375 -2.953125 Z M 4.3125 -2.953125 "/></g></g></g><g fill="#d68e85" fill-opacity="1"><g transform="translate(88.994801, 10.824441)"><g><path d="M 6.671875 -3.609375 C 6.671875 -2.804688 6.519531 -2.140625 6.21875 -1.609375 C 5.925781 -1.078125 5.5 -0.675781 4.9375 -0.40625 C 4.375 -0.132812 3.691406 0 2.890625 0 L 0.921875 0 L 0.921875 -7.078125 L 3.109375 -7.078125 C 3.835938 -7.078125 4.46875 -6.941406 5 -6.671875 C 5.53125 -6.410156 5.941406 -6.019531 6.234375 -5.5 C 6.523438 -4.988281 6.671875 -4.359375 6.671875 -3.609375 Z M 5.46875 -3.5625 C 5.46875 -4.144531 5.375 -4.625 5.1875 -5 C 5.007812 -5.375 4.742188 -5.648438 4.390625 -5.828125 C 4.035156 -6.015625 3.597656 -6.109375 3.078125 -6.109375 L 2.09375 -6.109375 L 2.09375 -0.96875 L 2.90625 -0.96875 C 3.757812 -0.96875 4.398438 -1.1875 4.828125 -1.625 C 5.253906 -2.0625 5.46875 -2.707031 5.46875 -3.5625 Z M 5.46875 -3.5625 "/></g></g></g><g fill="#d68e85" fill-opacity="1"><g transform="translate(98.234993, 10.824441)"><g><path d="M 4.9375 0 L 0.921875 0 L 0.921875 -7.078125 L 4.9375 -7.078125 L 4.9375 -6.09375 L 2.09375 -6.09375 L 2.09375 -4.171875 L 4.75 -4.171875 L 4.75 -3.203125 L 2.09375 -3.203125 L 2.09375 -0.984375 L 4.9375 -0.984375 Z M 4.9375 0 "/></g></g></g><g fill="#d68e85" fill-opacity="1"><g transform="translate(105.743796, 10.824441)"><g/></g></g><g fill="#d68e85" fill-opacity="1"><g transform="translate(110.297631, 10.824441)"><g><path d="M 6.671875 -3.609375 C 6.671875 -2.804688 6.519531 -2.140625 6.21875 -1.609375 C 5.925781 -1.078125 5.5 -0.675781 4.9375 -0.40625 C 4.375 -0.132812 3.691406 0 2.890625 0 L 0.921875 0 L 0.921875 -7.078125 L 3.109375 -7.078125 C 3.835938 -7.078125 4.46875 -6.941406 5 -6.671875 C 5.53125 -6.410156 5.941406 -6.019531 6.234375 -5.5 C 6.523438 -4.988281 6.671875 -4.359375 6.671875 -3.609375 Z M 5.46875 -3.5625 C 5.46875 -4.144531 5.375 -4.625 5.1875 -5 C 5.007812 -5.375 4.742188 -5.648438 4.390625 -5.828125 C 4.035156 -6.015625 3.597656 -6.109375 3.078125 -6.109375 L 2.09375 -6.109375 L 2.09375 -0.96875 L 2.90625 -0.96875 C 3.757812 -0.96875 4.398438 -1.1875 4.828125 -1.625 C 5.253906 -2.0625 5.46875 -2.707031 5.46875 -3.5625 Z M 5.46875 -3.5625 "/></g></g></g><g fill="#d68e85" fill-opacity="1"><g transform="translate(119.537823, 10.824441)"><g><path d="M 0.921875 0 L 0.921875 -7.078125 L 2.09375 -7.078125 L 2.09375 0 Z M 0.921875 0 "/></g></g></g><g fill="#d68e85" fill-opacity="1"><g transform="translate(124.541432, 10.824441)"><g><path d="M 6.171875 -7.078125 L 3.703125 0 L 2.46875 0 L 0 -7.078125 L 1.1875 -7.078125 L 2.6875 -2.640625 C 2.726562 -2.515625 2.773438 -2.359375 2.828125 -2.171875 C 2.878906 -1.984375 2.925781 -1.796875 2.96875 -1.609375 C 3.019531 -1.421875 3.0625 -1.257812 3.09375 -1.125 C 3.113281 -1.257812 3.144531 -1.421875 3.1875 -1.609375 C 3.238281 -1.796875 3.289062 -1.984375 3.34375 -2.171875 C 3.394531 -2.359375 3.441406 -2.515625 3.484375 -2.640625 L 4.984375 -7.078125 Z M 6.171875 -7.078125 "/></g></g></g><g fill="#d68e85" fill-opacity="1"><g transform="translate(132.693461, 10.824441)"><g><path d="M 0.921875 0 L 0.921875 -7.078125 L 2.09375 -7.078125 L 2.09375 0 Z M 0.921875 0 "/></g></g></g><g fill="#d68e85" fill-opacity="1"><g transform="translate(137.697069, 10.824441)"><g><path d="M 6.828125 0 L 5.40625 0 L 1.9375 -5.640625 L 1.890625 -5.640625 C 1.910156 -5.453125 1.925781 -5.25 1.9375 -5.03125 C 1.945312 -4.820312 1.953125 -4.601562 1.953125 -4.375 C 1.960938 -4.15625 1.972656 -3.929688 1.984375 -3.703125 L 1.984375 0 L 0.921875 0 L 0.921875 -7.078125 L 2.34375 -7.078125 L 5.796875 -1.46875 L 5.84375 -1.46875 C 5.832031 -1.632812 5.820312 -1.820312 5.8125 -2.03125 C 5.800781 -2.238281 5.789062 -2.457031 5.78125 -2.6875 C 5.78125 -2.914062 5.773438 -3.140625 5.765625 -3.359375 L 5.765625 -7.078125 L 6.828125 -7.078125 Z M 6.828125 0 "/></g></g></g><g fill="#d68e85" fill-opacity="1"><g transform="translate(147.435399, 10.824441)"><g><path d="M 4.9375 0 L 0.921875 0 L 0.921875 -7.078125 L 4.9375 -7.078125 L 4.9375 -6.09375 L 2.09375 -6.09375 L 2.09375 -4.171875 L 4.75 -4.171875 L 4.75 -3.203125 L 2.09375 -3.203125 L 2.09375 -0.984375 L 4.9375 -0.984375 Z M 4.9375 0 "/></g></g></g></g></g><g clip-path="url(#1ae79144ac)"><g transform="matrix(1, 0, 0, 1, 107, 36)"><g clip-path="url(#5519db4c8b)"><g fill="#d68e85" fill-opacity="1"><g transform="translate(1.479896, 24.088339)"><g><path d="M 8.59375 0 L 1.140625 0 L 1.140625 -23.0625 L 8.59375 -23.0625 C 10.15625 -23.0625 11.625 -22.757812 13 -22.15625 C 14.375 -21.5625 15.585938 -20.734375 16.640625 -19.671875 C 17.703125 -18.617188 18.53125 -17.394531 19.125 -16 C 19.726562 -14.613281 20.03125 -13.113281 20.03125 -11.5 C 20.03125 -9.90625 19.726562 -8.410156 19.125 -7.015625 C 18.53125 -5.628906 17.703125 -4.40625 16.640625 -3.34375 C 15.585938 -2.289062 14.375 -1.46875 13 -0.875 C 11.625 -0.289062 10.15625 0 8.59375 0 Z M 3.6875 -22.84375 L 3.6875 -0.265625 L 8.59375 -0.265625 C 9.832031 -0.265625 10.992188 -0.550781 12.078125 -1.125 C 13.171875 -1.707031 14.128906 -2.515625 14.953125 -3.546875 C 15.785156 -4.578125 16.4375 -5.765625 16.90625 -7.109375 C 17.375 -8.460938 17.609375 -9.925781 17.609375 -11.5 C 17.609375 -13.070312 17.375 -14.535156 16.90625 -15.890625 C 16.4375 -17.253906 15.785156 -18.457031 14.953125 -19.5 C 14.128906 -20.550781 13.171875 -21.367188 12.078125 -21.953125 C 10.992188 -22.546875 9.832031 -22.84375 8.59375 -22.84375 Z M 3.6875 -22.84375 "/></g></g></g><g fill="#d68e85" fill-opacity="1"><g transform="translate(23.856083, 24.088339)"><g><path d="M 1.140625 0 L 1.140625 -23.0625 L 3.59375 -23.0625 L 3.59375 0 Z M 1.140625 0 "/></g></g></g><g clip-path="url(#ebc3576df3)"><g fill="#d68e85" fill-opacity="1"><g transform="translate(29.801641, 24.088339)"><g><path d="M 20.578125 -23.09375 L 20.90625 -23.09375 L 19.21875 -19.109375 L 11.140625 0 L 10.875 0 L 1.140625 -23.09375 L 3.828125 -23.09375 L 12.21875 -3.265625 L 13.5 -6.375 Z M 20.578125 -23.09375 "/></g></g></g></g><g fill="#d68e85" fill-opacity="1"><g transform="translate(53.059792, 24.088339)"><g><path d="M 1.140625 0 L 1.140625 -23.0625 L 3.59375 -23.0625 L 3.59375 0 Z M 1.140625 0 "/></g></g></g><g fill="#d68e85" fill-opacity="1"><g transform="translate(59.005349, 24.088339)"><g><path d="M 1.140625 -23.0625 L 3.59375 -23.0625 C 5.375 -23.0625 6.957031 -22.457031 8.34375 -21.25 C 9.726562 -20.039062 10.890625 -18.488281 11.828125 -16.59375 C 12.785156 -14.8125 13.546875 -12.847656 14.109375 -10.703125 C 14.679688 -8.554688 15.085938 -6.425781 15.328125 -4.3125 L 15.328125 -23.0625 L 17.78125 -23.0625 L 17.78125 0 L 15.328125 0 C 15.328125 -1.738281 15.1875 -3.578125 14.90625 -5.515625 C 14.632812 -7.453125 14.234375 -9.367188 13.703125 -11.265625 C 13.171875 -13.160156 12.503906 -14.894531 11.703125 -16.46875 C 10.710938 -18.34375 9.550781 -19.875 8.21875 -21.0625 C 6.894531 -22.25 5.351562 -22.84375 3.59375 -22.84375 L 3.59375 0 L 1.140625 0 Z M 1.140625 -23.0625 "/></g></g></g><g fill="#d68e85" fill-opacity="1"><g transform="translate(79.12763, 24.088339)"><g><path d="M 3.65625 -15.390625 L 3.65625 -0.265625 L 9.1875 -0.265625 C 10.59375 -0.265625 11.75 -0.613281 12.65625 -1.3125 C 13.5625 -2.007812 14.304688 -3.179688 14.890625 -4.828125 L 14.140625 0 L 1.140625 0 L 1.140625 -23.0625 L 14.34375 -23.0625 L 14.34375 -20.453125 C 13.582031 -21.191406 12.84375 -21.726562 12.125 -22.0625 C 11.40625 -22.40625 10.59375 -22.617188 9.6875 -22.703125 C 8.78125 -22.796875 7.664062 -22.84375 6.34375 -22.84375 L 3.65625 -22.84375 L 3.65625 -17.546875 C 3.65625 -16.066406 3.90625 -14.929688 4.40625 -14.140625 C 4.90625 -13.359375 5.65625 -12.832031 6.65625 -12.5625 C 7.664062 -12.289062 8.921875 -12.15625 10.421875 -12.15625 L 10.421875 -9.578125 C 9.941406 -10.117188 9.367188 -10.546875 8.703125 -10.859375 C 8.035156 -11.179688 7.359375 -11.507812 6.671875 -11.84375 C 5.992188 -12.175781 5.378906 -12.609375 4.828125 -13.140625 C 4.285156 -13.679688 3.894531 -14.429688 3.65625 -15.390625 Z M 3.65625 -15.390625 "/></g></g></g><g fill="#d68e85" fill-opacity="1"><g transform="translate(96.375376, 24.088339)"><g/></g></g><g fill="#d68e85" fill-opacity="1"><g transform="translate(106.698084, 24.088339)"><g><path d="M 8.59375 0 L 1.140625 0 L 1.140625 -23.0625 L 8.59375 -23.0625 C 10.15625 -23.0625 11.625 -22.757812 13 -22.15625 C 14.375 -21.5625 15.585938 -20.734375 16.640625 -19.671875 C 17.703125 -18.617188 18.53125 -17.394531 19.125 -16 C 19.726562 -14.613281 20.03125 -13.113281 20.03125 -11.5 C 20.03125 -9.90625 19.726562 -8.410156 19.125 -7.015625 C 18.53125 -5.628906 17.703125 -4.40625 16.640625 -3.34375 C 15.585938 -2.289062 14.375 -1.46875 13 -0.875 C 11.625 -0.289062 10.15625 0 8.59375 0 Z M 3.6875 -22.84375 L 3.6875 -0.265625 L 8.59375 -0.265625 C 9.832031 -0.265625 10.992188 -0.550781 12.078125 -1.125 C 13.171875 -1.707031 14.128906 -2.515625 14.953125 -3.546875 C 15.785156 -4.578125 16.4375 -5.765625 16.90625 -7.109375 C 17.375 -8.460938 17.609375 -9.925781 17.609375 -11.5 C 17.609375 -13.070312 17.375 -14.535156 16.90625 -15.890625 C 16.4375 -17.253906 15.785156 -18.457031 14.953125 -19.5 C 14.128906 -20.550781 13.171875 -21.367188 12.078125 -21.953125 C 10.992188 -22.546875 9.832031 -22.84375 8.59375 -22.84375 Z M 3.6875 -22.84375 "/></g></g></g><g fill="#d68e85" fill-opacity="1"><g transform="translate(129.074271, 24.088339)"><g><path d="M 3.65625 -15.390625 L 3.65625 -0.265625 L 9.1875 -0.265625 C 10.59375 -0.265625 11.75 -0.613281 12.65625 -1.3125 C 13.5625 -2.007812 14.304688 -3.179688 14.890625 -4.828125 L 14.140625 0 L 1.140625 0 L 1.140625 -23.0625 L 14.34375 -23.0625 L 14.34375 -20.453125 C 13.582031 -21.191406 12.84375 -21.726562 12.125 -22.0625 C 11.40625 -22.40625 10.59375 -22.617188 9.6875 -22.703125 C 8.78125 -22.796875 7.664062 -22.84375 6.34375 -22.84375 L 3.65625 -22.84375 L 3.65625 -17.546875 C 3.65625 -16.066406 3.90625 -14.929688 4.40625 -14.140625 C 4.90625 -13.359375 5.65625 -12.832031 6.65625 -12.5625 C 7.664062 -12.289062 8.921875 -12.15625 10.421875 -12.15625 L 10.421875 -9.578125 C 9.941406 -10.117188 9.367188 -10.546875 8.703125 -10.859375 C 8.035156 -11.179688 7.359375 -11.507812 6.671875 -11.84375 C 5.992188 -12.175781 5.378906 -12.609375 4.828125 -13.140625 C 4.285156 -13.679688 3.894531 -14.429688 3.65625 -15.390625 Z M 3.65625 -15.390625 "/></g></g></g><g clip-path="url(#de8ee7ea0c)"><g fill="#d68e85" fill-opacity="1"><g transform="translate(146.322016, 24.088339)"><g><path d="M 8.921875 0 L 8.921875 -22.84375 C 7.765625 -22.84375 6.734375 -22.789062 5.828125 -22.6875 C 4.921875 -22.59375 4.09375 -22.382812 3.34375 -22.0625 C 2.59375 -21.75 1.859375 -21.242188 1.140625 -20.546875 L 1.140625 -23.09375 L 19.21875 -23.09375 L 19.21875 -20.546875 C 18.46875 -21.242188 17.71875 -21.75 16.96875 -22.0625 C 16.21875 -22.382812 15.394531 -22.59375 14.5 -22.6875 C 13.613281 -22.789062 12.59375 -22.84375 11.4375 -22.84375 L 11.4375 0 Z M 8.921875 0 "/></g></g></g></g><g fill="#d68e85" fill-opacity="1"><g transform="translate(167.881576, 24.088339)"><g><path d="M 17.015625 0 L 13.328125 -8.859375 C 11.929688 -8.722656 10.78125 -8.4375 9.875 -8 C 8.976562 -7.5625 8.25 -7.03125 7.6875 -6.40625 C 7.132812 -5.789062 6.6875 -5.144531 6.34375 -4.46875 C 6.007812 -3.800781 5.710938 -3.171875 5.453125 -2.578125 C 5.148438 -1.773438 4.816406 -1.101562 4.453125 -0.5625 C 4.097656 -0.03125 3.550781 0.222656 2.8125 0.203125 C 2.71875 0.171875 2.632812 0.144531 2.5625 0.125 C 2.488281 0.101562 2.394531 0.0507812 2.28125 -0.03125 C 1.394531 -0.425781 1.035156 -1.375 1.203125 -2.875 C 1.296875 -3.59375 1.457031 -4.40625 1.6875 -5.3125 C 1.914062 -6.21875 2.222656 -7.191406 2.609375 -8.234375 C 3.203125 -9.796875 3.894531 -11.453125 4.6875 -13.203125 C 5.476562 -14.960938 6.316406 -16.695312 7.203125 -18.40625 C 8.085938 -20.113281 8.941406 -21.664062 9.765625 -23.0625 L 10 -23.0625 L 19.765625 0 Z M 13.234375 -9.078125 L 8.421875 -20.25 C 7.421875 -18.332031 6.414062 -16.3125 5.40625 -14.1875 C 4.394531 -12.070312 3.539062 -10.066406 2.84375 -8.171875 C 2.445312 -7.117188 2.132812 -6.144531 1.90625 -5.25 C 1.675781 -4.363281 1.519531 -3.570312 1.4375 -2.875 C 1.414062 -2.195312 1.46875 -1.625 1.59375 -1.15625 C 1.726562 -0.6875 1.992188 -0.390625 2.390625 -0.265625 C 2.492188 -0.242188 2.570312 -0.21875 2.625 -0.1875 C 2.6875 -0.164062 2.757812 -0.132812 2.84375 -0.09375 C 3.5 -0.0507812 3.988281 -0.28125 4.3125 -0.78125 C 4.632812 -1.28125 4.925781 -1.898438 5.1875 -2.640625 C 5.457031 -3.253906 5.765625 -3.90625 6.109375 -4.59375 C 6.453125 -5.28125 6.910156 -5.9375 7.484375 -6.5625 C 8.066406 -7.195312 8.816406 -7.742188 9.734375 -8.203125 C 10.648438 -8.660156 11.816406 -8.953125 13.234375 -9.078125 Z M 13.234375 -9.078125 "/></g></g></g><g fill="#d68e85" fill-opacity="1"><g transform="translate(189.99643, 24.088339)"><g><path d="M 1.140625 0 L 1.140625 -23.0625 L 3.59375 -23.0625 L 3.59375 0 Z M 1.140625 0 "/></g></g></g><g fill="#d68e85" fill-opacity="1"><g transform="translate(195.942008, 24.088339)"><g><path d="M 14.96875 -4.828125 L 14.171875 0 L 1.140625 0 L 1.140625 -23.0625 L 3.75 -23.0625 L 3.75 -0.265625 L 9.28125 -0.265625 C 10.695312 -0.265625 11.84375 -0.613281 12.71875 -1.3125 C 13.601562 -2.007812 14.351562 -3.179688 14.96875 -4.828125 Z M 14.96875 -4.828125 "/></g></g></g></g></g></g></g></g></g></svg>