<svg xmlns="http://www.w3.org/2000/svg" xmlns:xlink="http://www.w3.org/1999/xlink" width="500" zoomAndPan="magnify" viewBox="0 0 375 74.999997" height="100" preserveAspectRatio="xMidYMid meet" version="1.0"><defs><g/><clipPath id="ffa5aa1f47"><rect x="0" width="276" y="0" height="22"/></clipPath><clipPath id="bbc415b198"><path d="M 0.238281 0 L 375 0 L 375 58 L 0.238281 58 Z M 0.238281 0 " clip-rule="nonzero"/></clipPath><clipPath id="c6f5f8fcb0"><rect x="0" width="375" y="0" height="58"/></clipPath><clipPath id="e80a67147d"><rect x="0" width="375" y="0" height="75"/></clipPath></defs><rect x="-37.5" width="450" fill="#ffffff" y="-7.5" height="89.999996" fill-opacity="1"/><rect x="-37.5" width="450" fill="#211e1e" y="-7.5" height="89.999996" fill-opacity="1"/><g transform="matrix(1, 0, 0, 1, 0.000000000000000028, -0.000000000000001893)"><g clip-path="url(#e80a67147d)"><g transform="matrix(1, 0, 0, 1, 52, 53)"><g clip-path="url(#ffa5aa1f47)"><g fill="#fcf7f7" fill-opacity="1"><g transform="translate(1.134404, 18.227446)"><g><path d="M 7.0625 0 L 3.453125 -10.484375 L 3.375 -10.484375 C 3.394531 -10.253906 3.414062 -9.9375 3.4375 -9.53125 C 3.457031 -9.125 3.472656 -8.6875 3.484375 -8.21875 C 3.503906 -7.757812 3.515625 -7.316406 3.515625 -6.890625 L 3.515625 0 L 1.65625 0 L 1.65625 -12.5625 L 4.546875 -12.5625 L 8.03125 -2.53125 L 8.078125 -2.53125 L 11.671875 -12.5625 L 14.5625 -12.5625 L 14.5625 0 L 12.59375 0 L 12.59375 -7 C 12.59375 -7.375 12.597656 -7.785156 12.609375 -8.234375 C 12.628906 -8.679688 12.648438 -9.101562 12.671875 -9.5 C 12.691406 -9.90625 12.707031 -10.226562 12.71875 -10.46875 L 12.640625 -10.46875 L 8.890625 0 Z M 7.0625 0 "/></g></g></g><g fill="#fcf7f7" fill-opacity="1"><g transform="translate(20.857002, 18.227446)"><g><path d="M 12.796875 -6.296875 C 12.796875 -5.328125 12.671875 -4.445312 12.421875 -3.65625 C 12.179688 -2.863281 11.816406 -2.179688 11.328125 -1.609375 C 10.847656 -1.035156 10.238281 -0.59375 9.5 -0.28125 C 8.769531 0.0195312 7.914062 0.171875 6.9375 0.171875 C 5.925781 0.171875 5.050781 0.0195312 4.3125 -0.28125 C 3.582031 -0.59375 2.972656 -1.035156 2.484375 -1.609375 C 2.003906 -2.179688 1.644531 -2.863281 1.40625 -3.65625 C 1.164062 -4.457031 1.046875 -5.34375 1.046875 -6.3125 C 1.046875 -7.601562 1.257812 -8.734375 1.6875 -9.703125 C 2.113281 -10.671875 2.765625 -11.421875 3.640625 -11.953125 C 4.515625 -12.484375 5.617188 -12.75 6.953125 -12.75 C 8.253906 -12.75 9.335938 -12.484375 10.203125 -11.953125 C 11.066406 -11.421875 11.710938 -10.671875 12.140625 -9.703125 C 12.578125 -8.742188 12.796875 -7.609375 12.796875 -6.296875 Z M 3.21875 -6.296875 C 3.21875 -5.328125 3.347656 -4.488281 3.609375 -3.78125 C 3.867188 -3.070312 4.269531 -2.523438 4.8125 -2.140625 C 5.363281 -1.765625 6.070312 -1.578125 6.9375 -1.578125 C 7.800781 -1.578125 8.503906 -1.765625 9.046875 -2.140625 C 9.585938 -2.523438 9.988281 -3.070312 10.25 -3.78125 C 10.507812 -4.488281 10.640625 -5.328125 10.640625 -6.296875 C 10.640625 -7.765625 10.34375 -8.914062 9.75 -9.75 C 9.164062 -10.582031 8.234375 -11 6.953125 -11 C 6.085938 -11 5.378906 -10.8125 4.828125 -10.4375 C 4.273438 -10.0625 3.867188 -9.519531 3.609375 -8.8125 C 3.347656 -8.113281 3.21875 -7.273438 3.21875 -6.296875 Z M 3.21875 -6.296875 "/></g></g></g><g fill="#fcf7f7" fill-opacity="1"><g transform="translate(38.217971, 18.227446)"><g><path d="M 7.0625 0 L 3.453125 -10.484375 L 3.375 -10.484375 C 3.394531 -10.253906 3.414062 -9.9375 3.4375 -9.53125 C 3.457031 -9.125 3.472656 -8.6875 3.484375 -8.21875 C 3.503906 -7.757812 3.515625 -7.316406 3.515625 -6.890625 L 3.515625 0 L 1.65625 0 L 1.65625 -12.5625 L 4.546875 -12.5625 L 8.03125 -2.53125 L 8.078125 -2.53125 L 11.671875 -12.5625 L 14.5625 -12.5625 L 14.5625 0 L 12.59375 0 L 12.59375 -7 C 12.59375 -7.375 12.597656 -7.785156 12.609375 -8.234375 C 12.628906 -8.679688 12.648438 -9.101562 12.671875 -9.5 C 12.691406 -9.90625 12.707031 -10.226562 12.71875 -10.46875 L 12.640625 -10.46875 L 8.890625 0 Z M 7.0625 0 "/></g></g></g><g fill="#fcf7f7" fill-opacity="1"><g transform="translate(57.940569, 18.227446)"><g><path d="M 8.765625 0 L 1.65625 0 L 1.65625 -12.5625 L 8.765625 -12.5625 L 8.765625 -10.828125 L 3.71875 -10.828125 L 3.71875 -7.40625 L 8.4375 -7.40625 L 8.4375 -5.6875 L 3.71875 -5.6875 L 3.71875 -1.75 L 8.765625 -1.75 Z M 8.765625 0 "/></g></g></g><g fill="#fcf7f7" fill-opacity="1"><g transform="translate(71.273886, 18.227446)"><g><path d="M 12.125 0 L 9.59375 0 L 3.4375 -10.03125 L 3.375 -10.03125 C 3.394531 -9.6875 3.414062 -9.328125 3.4375 -8.953125 C 3.457031 -8.578125 3.472656 -8.1875 3.484375 -7.78125 C 3.492188 -7.382812 3.503906 -6.976562 3.515625 -6.5625 L 3.515625 0 L 1.65625 0 L 1.65625 -12.5625 L 4.171875 -12.5625 L 10.3125 -2.609375 L 10.375 -2.609375 C 10.363281 -2.898438 10.347656 -3.234375 10.328125 -3.609375 C 10.304688 -3.984375 10.285156 -4.375 10.265625 -4.78125 C 10.253906 -5.1875 10.25 -5.578125 10.25 -5.953125 L 10.25 -12.5625 L 12.125 -12.5625 Z M 12.125 0 "/></g></g></g><g fill="#fcf7f7" fill-opacity="1"><g transform="translate(88.566153, 18.227446)"><g><path d="M 6 0 L 3.9375 0 L 3.9375 -10.8125 L 0.25 -10.8125 L 0.25 -12.5625 L 9.671875 -12.5625 L 9.671875 -10.8125 L 6 -10.8125 Z M 6 0 "/></g></g></g><g fill="#fcf7f7" fill-opacity="1"><g transform="translate(102.019698, 18.227446)"><g><path d="M 8.90625 -3.421875 C 8.90625 -2.671875 8.722656 -2.023438 8.359375 -1.484375 C 7.992188 -0.953125 7.46875 -0.539062 6.78125 -0.25 C 6.101562 0.03125 5.296875 0.171875 4.359375 0.171875 C 3.898438 0.171875 3.460938 0.144531 3.046875 0.09375 C 2.628906 0.0390625 2.234375 -0.03125 1.859375 -0.125 C 1.492188 -0.226562 1.160156 -0.351562 0.859375 -0.5 L 0.859375 -2.4375 C 1.367188 -2.21875 1.9375 -2.015625 2.5625 -1.828125 C 3.195312 -1.648438 3.84375 -1.5625 4.5 -1.5625 C 5.03125 -1.5625 5.46875 -1.628906 5.8125 -1.765625 C 6.164062 -1.910156 6.425781 -2.113281 6.59375 -2.375 C 6.769531 -2.632812 6.859375 -2.941406 6.859375 -3.296875 C 6.859375 -3.660156 6.757812 -3.972656 6.5625 -4.234375 C 6.363281 -4.492188 6.0625 -4.726562 5.65625 -4.9375 C 5.25 -5.15625 4.742188 -5.390625 4.140625 -5.640625 C 3.722656 -5.804688 3.328125 -5.992188 2.953125 -6.203125 C 2.578125 -6.410156 2.242188 -6.65625 1.953125 -6.9375 C 1.660156 -7.226562 1.429688 -7.570312 1.265625 -7.96875 C 1.097656 -8.363281 1.015625 -8.828125 1.015625 -9.359375 C 1.015625 -10.066406 1.179688 -10.671875 1.515625 -11.171875 C 1.859375 -11.679688 2.34375 -12.066406 2.96875 -12.328125 C 3.59375 -12.597656 4.316406 -12.734375 5.140625 -12.734375 C 5.804688 -12.734375 6.425781 -12.664062 7 -12.53125 C 7.582031 -12.394531 8.15625 -12.203125 8.71875 -11.953125 L 8.0625 -10.296875 C 7.550781 -10.503906 7.050781 -10.671875 6.5625 -10.796875 C 6.082031 -10.921875 5.585938 -10.984375 5.078125 -10.984375 C 4.648438 -10.984375 4.28125 -10.914062 3.96875 -10.78125 C 3.664062 -10.65625 3.4375 -10.472656 3.28125 -10.234375 C 3.125 -9.992188 3.046875 -9.710938 3.046875 -9.390625 C 3.046875 -9.023438 3.132812 -8.71875 3.3125 -8.46875 C 3.5 -8.21875 3.78125 -7.988281 4.15625 -7.78125 C 4.539062 -7.570312 5.035156 -7.34375 5.640625 -7.09375 C 6.328125 -6.8125 6.910156 -6.507812 7.390625 -6.1875 C 7.878906 -5.875 8.253906 -5.5 8.515625 -5.0625 C 8.773438 -4.625 8.90625 -4.078125 8.90625 -3.421875 Z M 8.90625 -3.421875 "/></g></g></g><g fill="#fcf7f7" fill-opacity="1"><g transform="translate(115.207023, 18.227446)"><g/></g></g><g fill="#fcf7f7" fill-opacity="1"><g transform="translate(123.293227, 18.227446)"><g><path d="M 7.0625 0 L 3.453125 -10.484375 L 3.375 -10.484375 C 3.394531 -10.253906 3.414062 -9.9375 3.4375 -9.53125 C 3.457031 -9.125 3.472656 -8.6875 3.484375 -8.21875 C 3.503906 -7.757812 3.515625 -7.316406 3.515625 -6.890625 L 3.515625 0 L 1.65625 0 L 1.65625 -12.5625 L 4.546875 -12.5625 L 8.03125 -2.53125 L 8.078125 -2.53125 L 11.671875 -12.5625 L 14.5625 -12.5625 L 14.5625 0 L 12.59375 0 L 12.59375 -7 C 12.59375 -7.375 12.597656 -7.785156 12.609375 -8.234375 C 12.628906 -8.679688 12.648438 -9.101562 12.671875 -9.5 C 12.691406 -9.90625 12.707031 -10.226562 12.71875 -10.46875 L 12.640625 -10.46875 L 8.890625 0 Z M 7.0625 0 "/></g></g></g><g fill="#fcf7f7" fill-opacity="1"><g transform="translate(143.015826, 18.227446)"><g><path d="M 9.4375 0 L 8.203125 -3.484375 L 3.40625 -3.484375 L 2.171875 0 L 0 0 L 4.671875 -12.609375 L 6.953125 -12.609375 L 11.625 0 Z M 7.671875 -5.25 L 6.484375 -8.6875 C 6.429688 -8.84375 6.363281 -9.054688 6.28125 -9.328125 C 6.195312 -9.597656 6.109375 -9.875 6.015625 -10.15625 C 5.929688 -10.4375 5.863281 -10.675781 5.8125 -10.875 C 5.75 -10.644531 5.675781 -10.382812 5.59375 -10.09375 C 5.507812 -9.800781 5.425781 -9.53125 5.34375 -9.28125 C 5.269531 -9.03125 5.21875 -8.832031 5.1875 -8.6875 L 3.984375 -5.25 Z M 7.671875 -5.25 "/></g></g></g><g fill="#fcf7f7" fill-opacity="1"><g transform="translate(158.161157, 18.227446)"><g><path d="M 11.84375 -6.40625 C 11.84375 -4.988281 11.578125 -3.804688 11.046875 -2.859375 C 10.523438 -1.910156 9.765625 -1.195312 8.765625 -0.71875 C 7.765625 -0.238281 6.554688 0 5.140625 0 L 1.65625 0 L 1.65625 -12.5625 L 5.515625 -12.5625 C 6.816406 -12.5625 7.9375 -12.328125 8.875 -11.859375 C 9.820312 -11.390625 10.550781 -10.695312 11.0625 -9.78125 C 11.582031 -8.875 11.84375 -7.75 11.84375 -6.40625 Z M 9.703125 -6.34375 C 9.703125 -7.375 9.539062 -8.21875 9.21875 -8.875 C 8.894531 -9.539062 8.414062 -10.035156 7.78125 -10.359375 C 7.15625 -10.679688 6.382812 -10.84375 5.46875 -10.84375 L 3.71875 -10.84375 L 3.71875 -1.734375 L 5.171875 -1.734375 C 6.691406 -1.734375 7.828125 -2.117188 8.578125 -2.890625 C 9.328125 -3.660156 9.703125 -4.8125 9.703125 -6.34375 Z M 9.703125 -6.34375 "/></g></g></g><g fill="#fcf7f7" fill-opacity="1"><g transform="translate(174.568886, 18.227446)"><g><path d="M 8.765625 0 L 1.65625 0 L 1.65625 -12.5625 L 8.765625 -12.5625 L 8.765625 -10.828125 L 3.71875 -10.828125 L 3.71875 -7.40625 L 8.4375 -7.40625 L 8.4375 -5.6875 L 3.71875 -5.6875 L 3.71875 -1.75 L 8.765625 -1.75 Z M 8.765625 0 "/></g></g></g><g fill="#fcf7f7" fill-opacity="1"><g transform="translate(187.902202, 18.227446)"><g/></g></g><g fill="#fcf7f7" fill-opacity="1"><g transform="translate(195.988407, 18.227446)"><g><path d="M 11.84375 -6.40625 C 11.84375 -4.988281 11.578125 -3.804688 11.046875 -2.859375 C 10.523438 -1.910156 9.765625 -1.195312 8.765625 -0.71875 C 7.765625 -0.238281 6.554688 0 5.140625 0 L 1.65625 0 L 1.65625 -12.5625 L 5.515625 -12.5625 C 6.816406 -12.5625 7.9375 -12.328125 8.875 -11.859375 C 9.820312 -11.390625 10.550781 -10.695312 11.0625 -9.78125 C 11.582031 -8.875 11.84375 -7.75 11.84375 -6.40625 Z M 9.703125 -6.34375 C 9.703125 -7.375 9.539062 -8.21875 9.21875 -8.875 C 8.894531 -9.539062 8.414062 -10.035156 7.78125 -10.359375 C 7.15625 -10.679688 6.382812 -10.84375 5.46875 -10.84375 L 3.71875 -10.84375 L 3.71875 -1.734375 L 5.171875 -1.734375 C 6.691406 -1.734375 7.828125 -2.117188 8.578125 -2.890625 C 9.328125 -3.660156 9.703125 -4.8125 9.703125 -6.34375 Z M 9.703125 -6.34375 "/></g></g></g><g fill="#fcf7f7" fill-opacity="1"><g transform="translate(212.396136, 18.227446)"><g><path d="M 1.65625 0 L 1.65625 -12.5625 L 3.71875 -12.5625 L 3.71875 0 Z M 1.65625 0 "/></g></g></g><g fill="#fcf7f7" fill-opacity="1"><g transform="translate(221.281001, 18.227446)"><g><path d="M 10.96875 -12.5625 L 6.578125 0 L 4.390625 0 L 0 -12.5625 L 2.109375 -12.5625 L 4.765625 -4.6875 C 4.835938 -4.457031 4.921875 -4.179688 5.015625 -3.859375 C 5.109375 -3.535156 5.195312 -3.207031 5.28125 -2.875 C 5.363281 -2.539062 5.429688 -2.242188 5.484375 -1.984375 C 5.523438 -2.242188 5.585938 -2.539062 5.671875 -2.875 C 5.753906 -3.207031 5.84375 -3.535156 5.9375 -3.859375 C 6.03125 -4.179688 6.113281 -4.460938 6.1875 -4.703125 L 8.84375 -12.5625 Z M 10.96875 -12.5625 "/></g></g></g><g fill="#fcf7f7" fill-opacity="1"><g transform="translate(235.756488, 18.227446)"><g><path d="M 1.65625 0 L 1.65625 -12.5625 L 3.71875 -12.5625 L 3.71875 0 Z M 1.65625 0 "/></g></g></g><g fill="#fcf7f7" fill-opacity="1"><g transform="translate(244.641353, 18.227446)"><g><path d="M 12.125 0 L 9.59375 0 L 3.4375 -10.03125 L 3.375 -10.03125 C 3.394531 -9.6875 3.414062 -9.328125 3.4375 -8.953125 C 3.457031 -8.578125 3.472656 -8.1875 3.484375 -7.78125 C 3.492188 -7.382812 3.503906 -6.976562 3.515625 -6.5625 L 3.515625 0 L 1.65625 0 L 1.65625 -12.5625 L 4.171875 -12.5625 L 10.3125 -2.609375 L 10.375 -2.609375 C 10.363281 -2.898438 10.347656 -3.234375 10.328125 -3.609375 C 10.304688 -3.984375 10.285156 -4.375 10.265625 -4.78125 C 10.253906 -5.1875 10.25 -5.578125 10.25 -5.953125 L 10.25 -12.5625 L 12.125 -12.5625 Z M 12.125 0 "/></g></g></g><g fill="#fcf7f7" fill-opacity="1"><g transform="translate(261.933619, 18.227446)"><g><path d="M 8.765625 0 L 1.65625 0 L 1.65625 -12.5625 L 8.765625 -12.5625 L 8.765625 -10.828125 L 3.71875 -10.828125 L 3.71875 -7.40625 L 8.4375 -7.40625 L 8.4375 -5.6875 L 3.71875 -5.6875 L 3.71875 -1.75 L 8.765625 -1.75 Z M 8.765625 0 "/></g></g></g></g></g><g clip-path="url(#bbc415b198)"><g transform="matrix(1, 0, 0, 1, 0.000000000000000028, -0.000000000000001893)"><g clip-path="url(#c6f5f8fcb0)"><g fill="#fcf7f7" fill-opacity="1"><g transform="translate(1.494146, 41.509274)"><g><path d="M 15.265625 0 L 2.03125 0 L 2.03125 -40.953125 L 15.265625 -40.953125 C 18.046875 -40.953125 20.65625 -40.421875 23.09375 -39.359375 C 25.53125 -38.296875 27.6875 -36.828125 29.5625 -34.953125 C 31.4375 -33.078125 32.90625 -30.898438 33.96875 -28.421875 C 35.03125 -25.953125 35.5625 -23.285156 35.5625 -20.421875 C 35.5625 -17.597656 35.03125 -14.945312 33.96875 -12.46875 C 32.90625 -10 31.4375 -7.828125 29.5625 -5.953125 C 27.6875 -4.078125 25.53125 -2.613281 23.09375 -1.5625 C 20.65625 -0.519531 18.046875 0 15.265625 0 Z M 6.5625 -40.546875 L 6.5625 -0.46875 L 15.265625 -0.46875 C 17.460938 -0.46875 19.523438 -0.976562 21.453125 -2 C 23.390625 -3.019531 25.09375 -4.445312 26.5625 -6.28125 C 28.039062 -8.125 29.191406 -10.242188 30.015625 -12.640625 C 30.847656 -15.046875 31.265625 -17.640625 31.265625 -20.421875 C 31.265625 -23.203125 30.847656 -25.800781 30.015625 -28.21875 C 29.191406 -30.632812 28.039062 -32.769531 26.5625 -34.625 C 25.09375 -36.488281 23.390625 -37.941406 21.453125 -38.984375 C 19.523438 -40.023438 17.460938 -40.546875 15.265625 -40.546875 Z M 6.5625 -40.546875 "/></g></g></g><g fill="#fcf7f7" fill-opacity="1"><g transform="translate(41.227351, 41.509274)"><g><path d="M 2.03125 0 L 2.03125 -40.953125 L 6.375 -40.953125 L 6.375 0 Z M 2.03125 0 "/></g></g></g><g fill="#fcf7f7" fill-opacity="1"><g transform="translate(51.784827, 41.509274)"><g><path d="M 36.546875 -41.015625 L 37.125 -41.015625 L 34.109375 -33.9375 L 19.78125 0 L 19.3125 0 L 2.03125 -41.015625 L 6.78125 -41.015625 L 21.703125 -5.796875 L 23.953125 -11.3125 Z M 36.546875 -41.015625 "/></g></g></g><g fill="#fcf7f7" fill-opacity="1"><g transform="translate(93.084128, 41.509274)"><g><path d="M 2.03125 0 L 2.03125 -40.953125 L 6.375 -40.953125 L 6.375 0 Z M 2.03125 0 "/></g></g></g><g fill="#fcf7f7" fill-opacity="1"><g transform="translate(103.641604, 41.509274)"><g><path d="M 2.03125 -40.953125 L 6.375 -40.953125 C 9.550781 -40.953125 12.363281 -39.878906 14.8125 -37.734375 C 17.269531 -35.585938 19.332031 -32.832031 21 -29.46875 C 22.695312 -26.300781 24.050781 -22.8125 25.0625 -19 C 26.070312 -15.1875 26.785156 -11.40625 27.203125 -7.65625 L 27.203125 -40.953125 L 31.5625 -40.953125 L 31.5625 0 L 27.203125 0 C 27.203125 -3.09375 26.960938 -6.359375 26.484375 -9.796875 C 26.003906 -13.242188 25.289062 -16.648438 24.34375 -20.015625 C 23.394531 -23.378906 22.203125 -26.453125 20.765625 -29.234375 C 19.023438 -32.566406 16.972656 -35.285156 14.609375 -37.390625 C 12.253906 -39.492188 9.507812 -40.546875 6.375 -40.546875 L 6.375 0 L 2.03125 0 Z M 2.03125 -40.953125 "/></g></g></g><g fill="#fcf7f7" fill-opacity="1"><g transform="translate(139.372567, 41.509274)"><g><path d="M 6.5 -27.328125 L 6.5 -0.46875 L 16.296875 -0.46875 C 18.816406 -0.46875 20.878906 -1.082031 22.484375 -2.3125 C 24.085938 -3.550781 25.410156 -5.644531 26.453125 -8.59375 L 25.125 0 L 2.03125 0 L 2.03125 -40.953125 L 25.46875 -40.953125 L 25.46875 -36.3125 C 24.113281 -37.632812 22.796875 -38.59375 21.515625 -39.1875 C 20.242188 -39.789062 18.804688 -40.164062 17.203125 -40.3125 C 15.597656 -40.46875 13.613281 -40.546875 11.25 -40.546875 L 6.5 -40.546875 L 6.5 -31.15625 C 6.5 -28.519531 6.941406 -26.503906 7.828125 -25.109375 C 8.722656 -23.722656 10.054688 -22.785156 11.828125 -22.296875 C 13.609375 -21.816406 15.832031 -21.578125 18.5 -21.578125 L 18.5 -17 C 17.65625 -17.96875 16.640625 -18.726562 15.453125 -19.28125 C 14.273438 -19.84375 13.078125 -20.425781 11.859375 -21.03125 C 10.640625 -21.632812 9.546875 -22.40625 8.578125 -23.34375 C 7.617188 -24.289062 6.925781 -25.617188 6.5 -27.328125 Z M 6.5 -27.328125 "/></g></g></g><g fill="#fcf7f7" fill-opacity="1"><g transform="translate(188.329186, 41.509274)"><g><path d="M 15.265625 0 L 2.03125 0 L 2.03125 -40.953125 L 15.265625 -40.953125 C 18.046875 -40.953125 20.65625 -40.421875 23.09375 -39.359375 C 25.53125 -38.296875 27.6875 -36.828125 29.5625 -34.953125 C 31.4375 -33.078125 32.90625 -30.898438 33.96875 -28.421875 C 35.03125 -25.953125 35.5625 -23.285156 35.5625 -20.421875 C 35.5625 -17.597656 35.03125 -14.945312 33.96875 -12.46875 C 32.90625 -10 31.4375 -7.828125 29.5625 -5.953125 C 27.6875 -4.078125 25.53125 -2.613281 23.09375 -1.5625 C 20.65625 -0.519531 18.046875 0 15.265625 0 Z M 6.5625 -40.546875 L 6.5625 -0.46875 L 15.265625 -0.46875 C 17.460938 -0.46875 19.523438 -0.976562 21.453125 -2 C 23.390625 -3.019531 25.09375 -4.445312 26.5625 -6.28125 C 28.039062 -8.125 29.191406 -10.242188 30.015625 -12.640625 C 30.847656 -15.046875 31.265625 -17.640625 31.265625 -20.421875 C 31.265625 -23.203125 30.847656 -25.800781 30.015625 -28.21875 C 29.191406 -30.632812 28.039062 -32.769531 26.5625 -34.625 C 25.09375 -36.488281 23.390625 -37.941406 21.453125 -38.984375 C 19.523438 -40.023438 17.460938 -40.546875 15.265625 -40.546875 Z M 6.5625 -40.546875 "/></g></g></g><g fill="#fcf7f7" fill-opacity="1"><g transform="translate(228.062391, 41.509274)"><g><path d="M 6.5 -27.328125 L 6.5 -0.46875 L 16.296875 -0.46875 C 18.816406 -0.46875 20.878906 -1.082031 22.484375 -2.3125 C 24.085938 -3.550781 25.410156 -5.644531 26.453125 -8.59375 L 25.125 0 L 2.03125 0 L 2.03125 -40.953125 L 25.46875 -40.953125 L 25.46875 -36.3125 C 24.113281 -37.632812 22.796875 -38.59375 21.515625 -39.1875 C 20.242188 -39.789062 18.804688 -40.164062 17.203125 -40.3125 C 15.597656 -40.46875 13.613281 -40.546875 11.25 -40.546875 L 6.5 -40.546875 L 6.5 -31.15625 C 6.5 -28.519531 6.941406 -26.503906 7.828125 -25.109375 C 8.722656 -23.722656 10.054688 -22.785156 11.828125 -22.296875 C 13.609375 -21.816406 15.832031 -21.578125 18.5 -21.578125 L 18.5 -17 C 17.65625 -17.96875 16.640625 -18.726562 15.453125 -19.28125 C 14.273438 -19.84375 13.078125 -20.425781 11.859375 -21.03125 C 10.640625 -21.632812 9.546875 -22.40625 8.578125 -23.34375 C 7.617188 -24.289062 6.925781 -25.617188 6.5 -27.328125 Z M 6.5 -27.328125 "/></g></g></g><g fill="#fcf7f7" fill-opacity="1"><g transform="translate(258.689065, 41.509274)"><g><path d="M 15.84375 0 L 15.84375 -40.546875 C 13.789062 -40.546875 11.960938 -40.457031 10.359375 -40.28125 C 8.753906 -40.113281 7.28125 -39.75 5.9375 -39.1875 C 4.601562 -38.625 3.300781 -37.722656 2.03125 -36.484375 L 2.03125 -41.015625 L 34.109375 -41.015625 L 34.109375 -36.484375 C 32.796875 -37.722656 31.472656 -38.625 30.140625 -39.1875 C 28.804688 -39.75 27.34375 -40.113281 25.75 -40.28125 C 24.164062 -40.457031 22.351562 -40.546875 20.3125 -40.546875 L 20.3125 0 Z M 15.84375 0 "/></g></g></g><g fill="#fcf7f7" fill-opacity="1"><g transform="translate(296.972191, 41.509274)"><g><path d="M 30.21875 0 L 23.671875 -15.71875 C 21.191406 -15.488281 19.148438 -14.984375 17.546875 -14.203125 C 15.941406 -13.429688 14.644531 -12.492188 13.65625 -11.390625 C 12.675781 -10.296875 11.882812 -9.148438 11.28125 -7.953125 C 10.6875 -6.753906 10.15625 -5.628906 9.6875 -4.578125 C 9.144531 -3.148438 8.554688 -1.960938 7.921875 -1.015625 C 7.285156 -0.0664062 6.304688 0.382812 4.984375 0.34375 C 4.828125 0.3125 4.679688 0.273438 4.546875 0.234375 C 4.410156 0.191406 4.25 0.09375 4.0625 -0.0625 C 2.476562 -0.757812 1.835938 -2.441406 2.140625 -5.109375 C 2.296875 -6.378906 2.578125 -7.816406 2.984375 -9.421875 C 3.390625 -11.023438 3.941406 -12.757812 4.640625 -14.625 C 5.679688 -17.40625 6.90625 -20.351562 8.3125 -23.46875 C 9.726562 -26.582031 11.21875 -29.65625 12.78125 -32.6875 C 14.351562 -35.726562 15.875 -38.484375 17.34375 -40.953125 L 17.75 -40.953125 L 35.09375 0 Z M 23.5 -16.125 L 14.96875 -35.96875 C 13.1875 -32.5625 11.394531 -28.972656 9.59375 -25.203125 C 7.800781 -21.429688 6.285156 -17.863281 5.046875 -14.5 C 4.347656 -12.644531 3.796875 -10.925781 3.390625 -9.34375 C 2.984375 -7.757812 2.703125 -6.347656 2.546875 -5.109375 C 2.515625 -3.910156 2.613281 -2.894531 2.84375 -2.0625 C 3.070312 -1.226562 3.535156 -0.695312 4.234375 -0.46875 C 4.429688 -0.425781 4.578125 -0.382812 4.671875 -0.34375 C 4.765625 -0.3125 4.890625 -0.253906 5.046875 -0.171875 C 6.203125 -0.0976562 7.070312 -0.503906 7.65625 -1.390625 C 8.238281 -2.285156 8.757812 -3.390625 9.21875 -4.703125 C 9.6875 -5.785156 10.226562 -6.9375 10.84375 -8.15625 C 11.46875 -9.375 12.289062 -10.539062 13.3125 -11.65625 C 14.34375 -12.78125 15.664062 -13.75 17.28125 -14.5625 C 18.90625 -15.375 20.976562 -15.894531 23.5 -16.125 Z M 23.5 -16.125 "/></g></g></g><g fill="#fcf7f7" fill-opacity="1"><g transform="translate(336.241348, 41.509274)"><g><path d="M 2.03125 0 L 2.03125 -40.953125 L 6.375 -40.953125 L 6.375 0 Z M 2.03125 0 "/></g></g></g><g fill="#fcf7f7" fill-opacity="1"><g transform="translate(346.798861, 41.509274)"><g><path d="M 26.578125 -8.59375 L 25.171875 0 L 2.03125 0 L 2.03125 -40.953125 L 6.671875 -40.953125 L 6.671875 -0.46875 L 16.46875 -0.46875 C 18.988281 -0.46875 21.03125 -1.082031 22.59375 -2.3125 C 24.164062 -3.550781 25.492188 -5.644531 26.578125 -8.59375 Z M 26.578125 -8.59375 "/></g></g></g></g></g></g></g></g></svg>