<svg xmlns="http://www.w3.org/2000/svg" xmlns:xlink="http://www.w3.org/1999/xlink" width="500" zoomAndPan="magnify" viewBox="0 0 375 74.999997" height="100" preserveAspectRatio="xMidYMid meet" version="1.0"><defs><g/><clipPath id="31b4e2d80e"><rect x="0" width="271" y="0" height="21"/></clipPath><clipPath id="6f7bc1e4ae"><rect x="0" width="373" y="0" height="59"/></clipPath></defs><rect x="-37.5" width="450" fill="#ffffff" y="-7.5" height="89.999996" fill-opacity="1"/><rect x="-37.5" width="450" fill="#f7f0ef" y="-7.5" height="89.999996" fill-opacity="1"/><g transform="matrix(1, 0, 0, 1, 53, 54)"><g clip-path="url(#31b4e2d80e)"><g fill="#d68e85" fill-opacity="1"><g transform="translate(1.621048, 17.625815)"><g><path d="M 6.9375 0 L 3.390625 -10.296875 L 3.3125 -10.296875 C 3.332031 -10.066406 3.351562 -9.75 3.375 -9.34375 C 3.394531 -8.945312 3.410156 -8.519531 3.421875 -8.0625 C 3.441406 -7.613281 3.453125 -7.179688 3.453125 -6.765625 L 3.453125 0 L 1.625 0 L 1.625 -12.328125 L 4.453125 -12.328125 L 7.875 -2.484375 L 7.921875 -2.484375 L 11.453125 -12.328125 L 14.296875 -12.328125 L 14.296875 0 L 12.359375 0 L 12.359375 -6.859375 C 12.359375 -7.234375 12.363281 -7.640625 12.375 -8.078125 C 12.394531 -8.523438 12.410156 -8.941406 12.421875 -9.328125 C 12.441406 -9.722656 12.460938 -10.039062 12.484375 -10.28125 L 12.40625 -10.28125 L 8.71875 0 Z M 6.9375 0 "/></g></g></g><g fill="#d68e85" fill-opacity="1"><g transform="translate(20.987324, 17.625815)"><g><path d="M 12.5625 -6.171875 C 12.5625 -5.222656 12.441406 -4.359375 12.203125 -3.578125 C 11.960938 -2.804688 11.601562 -2.140625 11.125 -1.578125 C 10.644531 -1.015625 10.046875 -0.582031 9.328125 -0.28125 C 8.609375 0.0195312 7.765625 0.171875 6.796875 0.171875 C 5.816406 0.171875 4.960938 0.0195312 4.234375 -0.28125 C 3.515625 -0.582031 2.914062 -1.015625 2.4375 -1.578125 C 1.96875 -2.140625 1.613281 -2.8125 1.375 -3.59375 C 1.144531 -4.375 1.03125 -5.242188 1.03125 -6.203125 C 1.03125 -7.472656 1.238281 -8.578125 1.65625 -9.515625 C 2.070312 -10.460938 2.707031 -11.195312 3.5625 -11.71875 C 4.425781 -12.25 5.507812 -12.515625 6.8125 -12.515625 C 8.101562 -12.515625 9.171875 -12.253906 10.015625 -11.734375 C 10.859375 -11.210938 11.492188 -10.476562 11.921875 -9.53125 C 12.347656 -8.582031 12.5625 -7.460938 12.5625 -6.171875 Z M 3.15625 -6.171875 C 3.15625 -5.222656 3.28125 -4.398438 3.53125 -3.703125 C 3.789062 -3.015625 4.1875 -2.484375 4.71875 -2.109375 C 5.257812 -1.734375 5.953125 -1.546875 6.796875 -1.546875 C 7.648438 -1.546875 8.34375 -1.734375 8.875 -2.109375 C 9.40625 -2.484375 9.796875 -3.015625 10.046875 -3.703125 C 10.304688 -4.398438 10.4375 -5.222656 10.4375 -6.171875 C 10.4375 -7.617188 10.144531 -8.75 9.5625 -9.5625 C 8.988281 -10.382812 8.070312 -10.796875 6.8125 -10.796875 C 5.976562 -10.796875 5.285156 -10.609375 4.734375 -10.234375 C 4.191406 -9.867188 3.789062 -9.34375 3.53125 -8.65625 C 3.28125 -7.96875 3.15625 -7.140625 3.15625 -6.171875 Z M 3.15625 -6.171875 "/></g></g></g><g fill="#d68e85" fill-opacity="1"><g transform="translate(38.034636, 17.625815)"><g><path d="M 6.9375 0 L 3.390625 -10.296875 L 3.3125 -10.296875 C 3.332031 -10.066406 3.351562 -9.75 3.375 -9.34375 C 3.394531 -8.945312 3.410156 -8.519531 3.421875 -8.0625 C 3.441406 -7.613281 3.453125 -7.179688 3.453125 -6.765625 L 3.453125 0 L 1.625 0 L 1.625 -12.328125 L 4.453125 -12.328125 L 7.875 -2.484375 L 7.921875 -2.484375 L 11.453125 -12.328125 L 14.296875 -12.328125 L 14.296875 0 L 12.359375 0 L 12.359375 -6.859375 C 12.359375 -7.234375 12.363281 -7.640625 12.375 -8.078125 C 12.394531 -8.523438 12.410156 -8.941406 12.421875 -9.328125 C 12.441406 -9.722656 12.460938 -10.039062 12.484375 -10.28125 L 12.40625 -10.28125 L 8.71875 0 Z M 6.9375 0 "/></g></g></g><g fill="#d68e85" fill-opacity="1"><g transform="translate(57.400911, 17.625815)"><g><path d="M 8.59375 0 L 1.625 0 L 1.625 -12.328125 L 8.59375 -12.328125 L 8.59375 -10.625 L 3.640625 -10.625 L 3.640625 -7.28125 L 8.28125 -7.28125 L 8.28125 -5.578125 L 3.640625 -5.578125 L 3.640625 -1.71875 L 8.59375 -1.71875 Z M 8.59375 0 "/></g></g></g><g fill="#d68e85" fill-opacity="1"><g transform="translate(70.493338, 17.625815)"><g><path d="M 11.90625 0 L 9.421875 0 L 3.375 -9.84375 L 3.3125 -9.84375 C 3.332031 -9.507812 3.347656 -9.15625 3.359375 -8.78125 C 3.378906 -8.414062 3.394531 -8.035156 3.40625 -7.640625 C 3.425781 -7.242188 3.441406 -6.84375 3.453125 -6.4375 L 3.453125 0 L 1.625 0 L 1.625 -12.328125 L 4.09375 -12.328125 L 10.109375 -2.546875 L 10.171875 -2.546875 C 10.160156 -2.835938 10.144531 -3.164062 10.125 -3.53125 C 10.113281 -3.90625 10.097656 -4.289062 10.078125 -4.6875 C 10.066406 -5.082031 10.0625 -5.46875 10.0625 -5.84375 L 10.0625 -12.328125 L 11.90625 -12.328125 Z M 11.90625 0 "/></g></g></g><g fill="#d68e85" fill-opacity="1"><g transform="translate(87.47319, 17.625815)"><g><path d="M 5.890625 0 L 3.859375 0 L 3.859375 -10.609375 L 0.25 -10.609375 L 0.25 -12.328125 L 9.5 -12.328125 L 9.5 -10.609375 L 5.890625 -10.609375 Z M 5.890625 0 "/></g></g></g><g fill="#d68e85" fill-opacity="1"><g transform="translate(100.683673, 17.625815)"><g><path d="M 8.734375 -3.359375 C 8.734375 -2.628906 8.550781 -2 8.1875 -1.46875 C 7.832031 -0.9375 7.320312 -0.53125 6.65625 -0.25 C 6 0.03125 5.207031 0.171875 4.28125 0.171875 C 3.832031 0.171875 3.398438 0.144531 2.984375 0.09375 C 2.578125 0.0390625 2.191406 -0.03125 1.828125 -0.125 C 1.472656 -0.226562 1.144531 -0.347656 0.84375 -0.484375 L 0.84375 -2.390625 C 1.34375 -2.171875 1.898438 -1.972656 2.515625 -1.796875 C 3.140625 -1.617188 3.769531 -1.53125 4.40625 -1.53125 C 4.925781 -1.53125 5.359375 -1.597656 5.703125 -1.734375 C 6.054688 -1.878906 6.316406 -2.078125 6.484375 -2.328125 C 6.648438 -2.585938 6.734375 -2.890625 6.734375 -3.234375 C 6.734375 -3.597656 6.632812 -3.90625 6.4375 -4.15625 C 6.238281 -4.40625 5.941406 -4.632812 5.546875 -4.84375 C 5.148438 -5.0625 4.65625 -5.289062 4.0625 -5.53125 C 3.65625 -5.695312 3.269531 -5.882812 2.90625 -6.09375 C 2.539062 -6.300781 2.210938 -6.539062 1.921875 -6.8125 C 1.640625 -7.09375 1.414062 -7.425781 1.25 -7.8125 C 1.082031 -8.195312 1 -8.65625 1 -9.1875 C 1 -9.875 1.164062 -10.460938 1.5 -10.953125 C 1.832031 -11.453125 2.300781 -11.832031 2.90625 -12.09375 C 3.519531 -12.363281 4.234375 -12.5 5.046875 -12.5 C 5.691406 -12.5 6.300781 -12.429688 6.875 -12.296875 C 7.445312 -12.160156 8.007812 -11.972656 8.5625 -11.734375 L 7.921875 -10.09375 C 7.410156 -10.300781 6.914062 -10.46875 6.4375 -10.59375 C 5.96875 -10.71875 5.484375 -10.78125 4.984375 -10.78125 C 4.554688 -10.78125 4.191406 -10.710938 3.890625 -10.578125 C 3.597656 -10.453125 3.375 -10.269531 3.21875 -10.03125 C 3.070312 -9.800781 3 -9.53125 3 -9.21875 C 3 -8.851562 3.085938 -8.546875 3.265625 -8.296875 C 3.441406 -8.054688 3.710938 -7.832031 4.078125 -7.625 C 4.453125 -7.425781 4.9375 -7.207031 5.53125 -6.96875 C 6.207031 -6.6875 6.78125 -6.390625 7.25 -6.078125 C 7.726562 -5.765625 8.09375 -5.394531 8.34375 -4.96875 C 8.601562 -4.539062 8.734375 -4.003906 8.734375 -3.359375 Z M 8.734375 -3.359375 "/></g></g></g><g fill="#d68e85" fill-opacity="1"><g transform="translate(113.632746, 17.625815)"><g/></g></g><g fill="#d68e85" fill-opacity="1"><g transform="translate(121.57286, 17.625815)"><g><path d="M 6.9375 0 L 3.390625 -10.296875 L 3.3125 -10.296875 C 3.332031 -10.066406 3.351562 -9.75 3.375 -9.34375 C 3.394531 -8.945312 3.410156 -8.519531 3.421875 -8.0625 C 3.441406 -7.613281 3.453125 -7.179688 3.453125 -6.765625 L 3.453125 0 L 1.625 0 L 1.625 -12.328125 L 4.453125 -12.328125 L 7.875 -2.484375 L 7.921875 -2.484375 L 11.453125 -12.328125 L 14.296875 -12.328125 L 14.296875 0 L 12.359375 0 L 12.359375 -6.859375 C 12.359375 -7.234375 12.363281 -7.640625 12.375 -8.078125 C 12.394531 -8.523438 12.410156 -8.941406 12.421875 -9.328125 C 12.441406 -9.722656 12.460938 -10.039062 12.484375 -10.28125 L 12.40625 -10.28125 L 8.71875 0 Z M 6.9375 0 "/></g></g></g><g fill="#d68e85" fill-opacity="1"><g transform="translate(140.939135, 17.625815)"><g><path d="M 9.25 0 L 8.046875 -3.421875 L 3.34375 -3.421875 L 2.140625 0 L 0 0 L 4.59375 -12.375 L 6.828125 -12.375 L 11.40625 0 Z M 7.53125 -5.15625 L 6.359375 -8.53125 C 6.316406 -8.675781 6.25 -8.878906 6.15625 -9.140625 C 6.070312 -9.410156 5.988281 -9.6875 5.90625 -9.96875 C 5.820312 -10.25 5.753906 -10.484375 5.703125 -10.671875 C 5.640625 -10.441406 5.566406 -10.179688 5.484375 -9.890625 C 5.410156 -9.609375 5.332031 -9.34375 5.25 -9.09375 C 5.175781 -8.851562 5.117188 -8.664062 5.078125 -8.53125 L 3.90625 -5.15625 Z M 7.53125 -5.15625 "/></g></g></g><g fill="#d68e85" fill-opacity="1"><g transform="translate(155.810839, 17.625815)"><g><path d="M 11.625 -6.28125 C 11.625 -4.894531 11.363281 -3.734375 10.84375 -2.796875 C 10.332031 -1.867188 9.582031 -1.171875 8.59375 -0.703125 C 7.613281 -0.234375 6.429688 0 5.046875 0 L 1.625 0 L 1.625 -12.328125 L 5.40625 -12.328125 C 6.6875 -12.328125 7.789062 -12.097656 8.71875 -11.640625 C 9.644531 -11.179688 10.359375 -10.503906 10.859375 -9.609375 C 11.367188 -8.710938 11.625 -7.601562 11.625 -6.28125 Z M 9.515625 -6.21875 C 9.515625 -7.226562 9.351562 -8.054688 9.03125 -8.703125 C 8.71875 -9.359375 8.253906 -9.84375 7.640625 -10.15625 C 7.023438 -10.476562 6.269531 -10.640625 5.375 -10.640625 L 3.640625 -10.640625 L 3.640625 -1.6875 L 5.078125 -1.6875 C 6.566406 -1.6875 7.675781 -2.066406 8.40625 -2.828125 C 9.144531 -3.585938 9.515625 -4.71875 9.515625 -6.21875 Z M 9.515625 -6.21875 "/></g></g></g><g fill="#d68e85" fill-opacity="1"><g transform="translate(171.922134, 17.625815)"><g><path d="M 8.59375 0 L 1.625 0 L 1.625 -12.328125 L 8.59375 -12.328125 L 8.59375 -10.625 L 3.640625 -10.625 L 3.640625 -7.28125 L 8.28125 -7.28125 L 8.28125 -5.578125 L 3.640625 -5.578125 L 3.640625 -1.71875 L 8.59375 -1.71875 Z M 8.59375 0 "/></g></g></g><g fill="#d68e85" fill-opacity="1"><g transform="translate(185.014561, 17.625815)"><g/></g></g><g fill="#d68e85" fill-opacity="1"><g transform="translate(192.954674, 17.625815)"><g><path d="M 11.625 -6.28125 C 11.625 -4.894531 11.363281 -3.734375 10.84375 -2.796875 C 10.332031 -1.867188 9.582031 -1.171875 8.59375 -0.703125 C 7.613281 -0.234375 6.429688 0 5.046875 0 L 1.625 0 L 1.625 -12.328125 L 5.40625 -12.328125 C 6.6875 -12.328125 7.789062 -12.097656 8.71875 -11.640625 C 9.644531 -11.179688 10.359375 -10.503906 10.859375 -9.609375 C 11.367188 -8.710938 11.625 -7.601562 11.625 -6.28125 Z M 9.515625 -6.21875 C 9.515625 -7.226562 9.351562 -8.054688 9.03125 -8.703125 C 8.71875 -9.359375 8.253906 -9.84375 7.640625 -10.15625 C 7.023438 -10.476562 6.269531 -10.640625 5.375 -10.640625 L 3.640625 -10.640625 L 3.640625 -1.6875 L 5.078125 -1.6875 C 6.566406 -1.6875 7.675781 -2.066406 8.40625 -2.828125 C 9.144531 -3.585938 9.515625 -4.71875 9.515625 -6.21875 Z M 9.515625 -6.21875 "/></g></g></g><g fill="#d68e85" fill-opacity="1"><g transform="translate(209.065969, 17.625815)"><g><path d="M 1.625 0 L 1.625 -12.328125 L 3.640625 -12.328125 L 3.640625 0 Z M 1.625 0 "/></g></g></g><g fill="#d68e85" fill-opacity="1"><g transform="translate(217.790313, 17.625815)"><g><path d="M 10.75 -12.328125 L 6.453125 0 L 4.3125 0 L 0 -12.328125 L 2.078125 -12.328125 L 4.671875 -4.609375 C 4.742188 -4.378906 4.828125 -4.101562 4.921875 -3.78125 C 5.015625 -3.46875 5.101562 -3.144531 5.1875 -2.8125 C 5.269531 -2.488281 5.332031 -2.203125 5.375 -1.953125 C 5.425781 -2.203125 5.488281 -2.488281 5.5625 -2.8125 C 5.644531 -3.144531 5.726562 -3.46875 5.8125 -3.78125 C 5.90625 -4.101562 5.992188 -4.378906 6.078125 -4.609375 L 8.6875 -12.328125 Z M 10.75 -12.328125 "/></g></g></g><g fill="#d68e85" fill-opacity="1"><g transform="translate(232.004275, 17.625815)"><g><path d="M 1.625 0 L 1.625 -12.328125 L 3.640625 -12.328125 L 3.640625 0 Z M 1.625 0 "/></g></g></g><g fill="#d68e85" fill-opacity="1"><g transform="translate(240.728619, 17.625815)"><g><path d="M 11.90625 0 L 9.421875 0 L 3.375 -9.84375 L 3.3125 -9.84375 C 3.332031 -9.507812 3.347656 -9.15625 3.359375 -8.78125 C 3.378906 -8.414062 3.394531 -8.035156 3.40625 -7.640625 C 3.425781 -7.242188 3.441406 -6.84375 3.453125 -6.4375 L 3.453125 0 L 1.625 0 L 1.625 -12.328125 L 4.09375 -12.328125 L 10.109375 -2.546875 L 10.171875 -2.546875 C 10.160156 -2.835938 10.144531 -3.164062 10.125 -3.53125 C 10.113281 -3.90625 10.097656 -4.289062 10.078125 -4.6875 C 10.066406 -5.082031 10.0625 -5.46875 10.0625 -5.84375 L 10.0625 -12.328125 L 11.90625 -12.328125 Z M 11.90625 0 "/></g></g></g><g fill="#d68e85" fill-opacity="1"><g transform="translate(257.708471, 17.625815)"><g><path d="M 8.59375 0 L 1.625 0 L 1.625 -12.328125 L 8.59375 -12.328125 L 8.59375 -10.625 L 3.640625 -10.625 L 3.640625 -7.28125 L 8.28125 -7.28125 L 8.28125 -5.578125 L 3.640625 -5.578125 L 3.640625 -1.71875 L 8.59375 -1.71875 Z M 8.59375 0 "/></g></g></g></g></g><g transform="matrix(1, 0, 0, 1, 2, -0.000000000000001887)"><g clip-path="url(#6f7bc1e4ae)"><g fill="#d68e85" fill-opacity="1"><g transform="translate(1.904582, 42.444555)"><g><path d="M 14.984375 0 L 2 0 L 2 -40.21875 L 14.984375 -40.21875 C 17.710938 -40.21875 20.273438 -39.695312 22.671875 -38.65625 C 25.066406 -37.613281 27.179688 -36.171875 29.015625 -34.328125 C 30.859375 -32.484375 32.300781 -30.34375 33.34375 -27.90625 C 34.394531 -25.476562 34.921875 -22.859375 34.921875 -20.046875 C 34.921875 -17.273438 34.394531 -14.675781 33.34375 -12.25 C 32.300781 -9.820312 30.859375 -7.6875 29.015625 -5.84375 C 27.179688 -4 25.066406 -2.5625 22.671875 -1.53125 C 20.273438 -0.507812 17.710938 0 14.984375 0 Z M 6.4375 -39.828125 L 6.4375 -0.453125 L 14.984375 -0.453125 C 17.148438 -0.453125 19.179688 -0.953125 21.078125 -1.953125 C 22.972656 -2.960938 24.640625 -4.367188 26.078125 -6.171875 C 27.523438 -7.984375 28.65625 -10.066406 29.46875 -12.421875 C 30.289062 -14.773438 30.703125 -17.316406 30.703125 -20.046875 C 30.703125 -22.785156 30.289062 -25.34375 29.46875 -27.71875 C 28.65625 -30.09375 27.523438 -32.191406 26.078125 -34.015625 C 24.640625 -35.835938 22.972656 -37.257812 21.078125 -38.28125 C 19.179688 -39.3125 17.148438 -39.828125 14.984375 -39.828125 Z M 6.4375 -39.828125 "/></g></g></g><g fill="#d68e85" fill-opacity="1"><g transform="translate(40.919938, 42.444555)"><g><path d="M 2 0 L 2 -40.21875 L 6.265625 -40.21875 L 6.265625 0 Z M 2 0 "/></g></g></g><g fill="#d68e85" fill-opacity="1"><g transform="translate(51.286675, 42.444555)"><g><path d="M 35.890625 -40.28125 L 36.453125 -40.28125 L 33.5 -33.328125 L 19.421875 0 L 18.96875 0 L 2 -40.28125 L 6.671875 -40.28125 L 21.3125 -5.703125 L 23.53125 -11.109375 Z M 35.890625 -40.28125 "/></g></g></g><g fill="#d68e85" fill-opacity="1"><g transform="translate(91.839831, 42.444555)"><g><path d="M 2 0 L 2 -40.21875 L 6.265625 -40.21875 L 6.265625 0 Z M 2 0 "/></g></g></g><g fill="#d68e85" fill-opacity="1"><g transform="translate(102.206568, 42.444555)"><g><path d="M 2 -40.21875 L 6.265625 -40.21875 C 9.378906 -40.21875 12.140625 -39.160156 14.546875 -37.046875 C 16.960938 -34.941406 18.988281 -32.238281 20.625 -28.9375 C 22.289062 -25.820312 23.617188 -22.394531 24.609375 -18.65625 C 25.597656 -14.914062 26.300781 -11.203125 26.71875 -7.515625 L 26.71875 -40.21875 L 30.984375 -40.21875 L 30.984375 0 L 26.71875 0 C 26.71875 -3.039062 26.476562 -6.25 26 -9.625 C 25.53125 -13.007812 24.828125 -16.351562 23.890625 -19.65625 C 22.960938 -22.957031 21.796875 -25.976562 20.390625 -28.71875 C 18.679688 -31.976562 16.664062 -34.644531 14.34375 -36.71875 C 12.03125 -38.789062 9.335938 -39.828125 6.265625 -39.828125 L 6.265625 0 L 2 0 Z M 2 -40.21875 "/></g></g></g><g fill="#d68e85" fill-opacity="1"><g transform="translate(137.291989, 42.444555)"><g><path d="M 6.375 -26.828125 L 6.375 -0.453125 L 16.015625 -0.453125 C 18.484375 -0.453125 20.503906 -1.0625 22.078125 -2.28125 C 23.648438 -3.5 24.953125 -5.550781 25.984375 -8.4375 L 24.671875 0 L 2 0 L 2 -40.21875 L 25.015625 -40.21875 L 25.015625 -35.65625 C 23.679688 -36.945312 22.382812 -37.882812 21.125 -38.46875 C 19.875 -39.0625 18.460938 -39.4375 16.890625 -39.59375 C 15.316406 -39.75 13.367188 -39.828125 11.046875 -39.828125 L 6.375 -39.828125 L 6.375 -30.59375 C 6.375 -28.007812 6.8125 -26.03125 7.6875 -24.65625 C 8.5625 -23.289062 9.867188 -22.367188 11.609375 -21.890625 C 13.359375 -21.421875 15.546875 -21.1875 18.171875 -21.1875 L 18.171875 -16.6875 C 17.335938 -17.632812 16.335938 -18.382812 15.171875 -18.9375 C 14.015625 -19.488281 12.835938 -20.054688 11.640625 -20.640625 C 10.453125 -21.234375 9.378906 -21.992188 8.421875 -22.921875 C 7.472656 -23.859375 6.789062 -25.160156 6.375 -26.828125 Z M 6.375 -26.828125 "/></g></g></g><g fill="#d68e85" fill-opacity="1"><g transform="translate(167.365339, 42.444555)"><g/></g></g><g fill="#d68e85" fill-opacity="1"><g transform="translate(185.364122, 42.444555)"><g><path d="M 14.984375 0 L 2 0 L 2 -40.21875 L 14.984375 -40.21875 C 17.710938 -40.21875 20.273438 -39.695312 22.671875 -38.65625 C 25.066406 -37.613281 27.179688 -36.171875 29.015625 -34.328125 C 30.859375 -32.484375 32.300781 -30.34375 33.34375 -27.90625 C 34.394531 -25.476562 34.921875 -22.859375 34.921875 -20.046875 C 34.921875 -17.273438 34.394531 -14.675781 33.34375 -12.25 C 32.300781 -9.820312 30.859375 -7.6875 29.015625 -5.84375 C 27.179688 -4 25.066406 -2.5625 22.671875 -1.53125 C 20.273438 -0.507812 17.710938 0 14.984375 0 Z M 6.4375 -39.828125 L 6.4375 -0.453125 L 14.984375 -0.453125 C 17.148438 -0.453125 19.179688 -0.953125 21.078125 -1.953125 C 22.972656 -2.960938 24.640625 -4.367188 26.078125 -6.171875 C 27.523438 -7.984375 28.65625 -10.066406 29.46875 -12.421875 C 30.289062 -14.773438 30.703125 -17.316406 30.703125 -20.046875 C 30.703125 -22.785156 30.289062 -25.34375 29.46875 -27.71875 C 28.65625 -30.09375 27.523438 -32.191406 26.078125 -34.015625 C 24.640625 -35.835938 22.972656 -37.257812 21.078125 -38.28125 C 19.179688 -39.3125 17.148438 -39.828125 14.984375 -39.828125 Z M 6.4375 -39.828125 "/></g></g></g><g fill="#d68e85" fill-opacity="1"><g transform="translate(224.379477, 42.444555)"><g><path d="M 6.375 -26.828125 L 6.375 -0.453125 L 16.015625 -0.453125 C 18.484375 -0.453125 20.503906 -1.0625 22.078125 -2.28125 C 23.648438 -3.5 24.953125 -5.550781 25.984375 -8.4375 L 24.671875 0 L 2 0 L 2 -40.21875 L 25.015625 -40.21875 L 25.015625 -35.65625 C 23.679688 -36.945312 22.382812 -37.882812 21.125 -38.46875 C 19.875 -39.0625 18.460938 -39.4375 16.890625 -39.59375 C 15.316406 -39.75 13.367188 -39.828125 11.046875 -39.828125 L 6.375 -39.828125 L 6.375 -30.59375 C 6.375 -28.007812 6.8125 -26.03125 7.6875 -24.65625 C 8.5625 -23.289062 9.867188 -22.367188 11.609375 -21.890625 C 13.359375 -21.421875 15.546875 -21.1875 18.171875 -21.1875 L 18.171875 -16.6875 C 17.335938 -17.632812 16.335938 -18.382812 15.171875 -18.9375 C 14.015625 -19.488281 12.835938 -20.054688 11.640625 -20.640625 C 10.453125 -21.234375 9.378906 -21.992188 8.421875 -22.921875 C 7.472656 -23.859375 6.789062 -25.160156 6.375 -26.828125 Z M 6.375 -26.828125 "/></g></g></g><g fill="#d68e85" fill-opacity="1"><g transform="translate(254.452827, 42.444555)"><g><path d="M 15.546875 0 L 15.546875 -39.828125 C 13.535156 -39.828125 11.742188 -39.738281 10.171875 -39.5625 C 8.597656 -39.394531 7.15625 -39.035156 5.84375 -38.484375 C 4.53125 -37.929688 3.25 -37.046875 2 -35.828125 L 2 -40.28125 L 33.5 -40.28125 L 33.5 -35.828125 C 32.207031 -37.046875 30.90625 -37.929688 29.59375 -38.484375 C 28.28125 -39.035156 26.84375 -39.394531 25.28125 -39.5625 C 23.726562 -39.738281 21.945312 -39.828125 19.9375 -39.828125 L 19.9375 0 Z M 15.546875 0 "/></g></g></g><g fill="#d68e85" fill-opacity="1"><g transform="translate(292.044302, 42.444555)"><g><path d="M 29.6875 0 L 23.25 -15.4375 C 20.8125 -15.207031 18.804688 -14.710938 17.234375 -13.953125 C 15.660156 -13.191406 14.390625 -12.269531 13.421875 -11.1875 C 12.453125 -10.113281 11.671875 -8.984375 11.078125 -7.796875 C 10.492188 -6.617188 9.972656 -5.519531 9.515625 -4.5 C 8.984375 -3.09375 8.40625 -1.921875 7.78125 -0.984375 C 7.15625 -0.0546875 6.195312 0.382812 4.90625 0.34375 C 4.75 0.300781 4.601562 0.257812 4.46875 0.21875 C 4.332031 0.1875 4.171875 0.09375 3.984375 -0.0625 C 2.429688 -0.738281 1.804688 -2.390625 2.109375 -5.015625 C 2.253906 -6.265625 2.523438 -7.675781 2.921875 -9.25 C 3.328125 -10.832031 3.875 -12.535156 4.5625 -14.359375 C 5.582031 -17.085938 6.785156 -19.976562 8.171875 -23.03125 C 9.554688 -26.09375 11.019531 -29.113281 12.5625 -32.09375 C 14.101562 -35.082031 15.59375 -37.789062 17.03125 -40.21875 L 17.4375 -40.21875 L 34.46875 0 Z M 23.078125 -15.84375 L 14.703125 -35.328125 C 12.953125 -31.984375 11.191406 -28.457031 9.421875 -24.75 C 7.660156 -21.050781 6.171875 -17.546875 4.953125 -14.234375 C 4.273438 -12.410156 3.734375 -10.722656 3.328125 -9.171875 C 2.929688 -7.617188 2.65625 -6.234375 2.5 -5.015625 C 2.46875 -3.835938 2.566406 -2.835938 2.796875 -2.015625 C 3.023438 -1.203125 3.476562 -0.679688 4.15625 -0.453125 C 4.34375 -0.421875 4.484375 -0.382812 4.578125 -0.34375 C 4.679688 -0.300781 4.804688 -0.242188 4.953125 -0.171875 C 6.097656 -0.0976562 6.953125 -0.492188 7.515625 -1.359375 C 8.085938 -2.234375 8.601562 -3.316406 9.0625 -4.609375 C 9.507812 -5.671875 10.035156 -6.800781 10.640625 -8 C 11.253906 -9.195312 12.0625 -10.347656 13.0625 -11.453125 C 14.070312 -12.554688 15.375 -13.503906 16.96875 -14.296875 C 18.570312 -15.097656 20.609375 -15.613281 23.078125 -15.84375 Z M 23.078125 -15.84375 "/></g></g></g><g fill="#d68e85" fill-opacity="1"><g transform="translate(330.603994, 42.444555)"><g><path d="M 2 0 L 2 -40.21875 L 6.265625 -40.21875 L 6.265625 0 Z M 2 0 "/></g></g></g><g fill="#d68e85" fill-opacity="1"><g transform="translate(340.970767, 42.444555)"><g><path d="M 26.09375 -8.4375 L 24.71875 0 L 2 0 L 2 -40.21875 L 6.546875 -40.21875 L 6.546875 -0.453125 L 16.171875 -0.453125 C 18.640625 -0.453125 20.644531 -1.0625 22.1875 -2.28125 C 23.726562 -3.5 25.03125 -5.550781 26.09375 -8.4375 Z M 26.09375 -8.4375 "/></g></g></g></g></g></svg>