<svg xmlns="http://www.w3.org/2000/svg" xmlns:xlink="http://www.w3.org/1999/xlink" width="1080" zoomAndPan="magnify" viewBox="0 0 810 449.999984" height="600" preserveAspectRatio="xMidYMid meet" version="1.0"><defs><g/><clipPath id="1a0d88e7e2"><path d="M 0.441406 287 L 809 287 L 809 412 L 0.441406 412 Z M 0.441406 287 " clip-rule="nonzero"/></clipPath><clipPath id="d65a78c06a"><rect x="0" width="809" y="0" height="125"/></clipPath><clipPath id="cf383f5eb6"><rect x="0" width="809" y="0" height="450"/></clipPath></defs><rect x="-81" width="972" fill="#ffffff" y="-44.999998" height="539.99998" fill-opacity="1"/><rect x="-81" width="972" fill="#fcf7f7" y="-44.999998" height="539.99998" fill-opacity="1"/><g transform="matrix(1, 0, 0, 1, 1, 0)"><g clip-path="url(#cf383f5eb6)"><g fill="#000000" fill-opacity="1"><g transform="translate(142.225793, 440.639217)"><g><path d="M 13.671875 0 L 6.6875 -20.296875 L 6.53125 -20.296875 C 6.5625 -19.835938 6.597656 -19.210938 6.640625 -18.421875 C 6.691406 -17.640625 6.734375 -16.800781 6.765625 -15.90625 C 6.796875 -15.007812 6.8125 -14.148438 6.8125 -13.328125 L 6.8125 0 L 3.1875 0 L 3.1875 -24.296875 L 8.796875 -24.296875 L 15.515625 -4.90625 L 15.625 -4.90625 L 22.578125 -24.296875 L 28.171875 -24.296875 L 28.171875 0 L 24.359375 0 L 24.359375 -13.53125 C 24.359375 -14.269531 24.367188 -15.070312 24.390625 -15.9375 C 24.421875 -16.800781 24.457031 -17.617188 24.5 -18.390625 C 24.539062 -19.171875 24.570312 -19.789062 24.59375 -20.25 L 24.453125 -20.25 L 17.203125 0 Z M 13.671875 0 "/></g></g></g><g fill="#000000" fill-opacity="1"><g transform="translate(180.379427, 440.639217)"><g><path d="M 24.765625 -12.1875 C 24.765625 -10.3125 24.523438 -8.601562 24.046875 -7.0625 C 23.578125 -5.53125 22.867188 -4.210938 21.921875 -3.109375 C 20.984375 -2.015625 19.804688 -1.164062 18.390625 -0.5625 C 16.972656 0.03125 15.3125 0.328125 13.40625 0.328125 C 11.46875 0.328125 9.785156 0.03125 8.359375 -0.5625 C 6.941406 -1.164062 5.765625 -2.019531 4.828125 -3.125 C 3.890625 -4.226562 3.1875 -5.550781 2.71875 -7.09375 C 2.257812 -8.632812 2.03125 -10.34375 2.03125 -12.21875 C 2.03125 -14.71875 2.441406 -16.898438 3.265625 -18.765625 C 4.085938 -20.628906 5.34375 -22.078125 7.03125 -23.109375 C 8.726562 -24.148438 10.863281 -24.671875 13.4375 -24.671875 C 15.96875 -24.671875 18.066406 -24.15625 19.734375 -23.125 C 21.410156 -22.09375 22.664062 -20.644531 23.5 -18.78125 C 24.34375 -16.914062 24.765625 -14.71875 24.765625 -12.1875 Z M 6.21875 -12.1875 C 6.21875 -10.3125 6.472656 -8.6875 6.984375 -7.3125 C 7.492188 -5.945312 8.273438 -4.894531 9.328125 -4.15625 C 10.390625 -3.425781 11.75 -3.0625 13.40625 -3.0625 C 15.082031 -3.0625 16.445312 -3.425781 17.5 -4.15625 C 18.550781 -4.894531 19.328125 -5.945312 19.828125 -7.3125 C 20.328125 -8.6875 20.578125 -10.3125 20.578125 -12.1875 C 20.578125 -15.03125 20.007812 -17.253906 18.875 -18.859375 C 17.738281 -20.472656 15.925781 -21.28125 13.4375 -21.28125 C 11.78125 -21.28125 10.414062 -20.914062 9.34375 -20.1875 C 8.28125 -19.457031 7.492188 -18.410156 6.984375 -17.046875 C 6.472656 -15.691406 6.21875 -14.070312 6.21875 -12.1875 Z M 6.21875 -12.1875 "/></g></g></g><g fill="#000000" fill-opacity="1"><g transform="translate(213.964908, 440.639217)"><g><path d="M 13.671875 0 L 6.6875 -20.296875 L 6.53125 -20.296875 C 6.5625 -19.835938 6.597656 -19.210938 6.640625 -18.421875 C 6.691406 -17.640625 6.734375 -16.800781 6.765625 -15.90625 C 6.796875 -15.007812 6.8125 -14.148438 6.8125 -13.328125 L 6.8125 0 L 3.1875 0 L 3.1875 -24.296875 L 8.796875 -24.296875 L 15.515625 -4.90625 L 15.625 -4.90625 L 22.578125 -24.296875 L 28.171875 -24.296875 L 28.171875 0 L 24.359375 0 L 24.359375 -13.53125 C 24.359375 -14.269531 24.367188 -15.070312 24.390625 -15.9375 C 24.421875 -16.800781 24.457031 -17.617188 24.5 -18.390625 C 24.539062 -19.171875 24.570312 -19.789062 24.59375 -20.25 L 24.453125 -20.25 L 17.203125 0 Z M 13.671875 0 "/></g></g></g><g fill="#000000" fill-opacity="1"><g transform="translate(252.118541, 440.639217)"><g><path d="M 16.953125 0 L 3.1875 0 L 3.1875 -24.296875 L 16.953125 -24.296875 L 16.953125 -20.9375 L 7.171875 -20.9375 L 7.171875 -14.34375 L 16.328125 -14.34375 L 16.328125 -11 L 7.171875 -11 L 7.171875 -3.375 L 16.953125 -3.375 Z M 16.953125 0 "/></g></g></g><g fill="#000000" fill-opacity="1"><g transform="translate(277.913247, 440.639217)"><g><path d="M 23.46875 0 L 18.5625 0 L 6.65625 -19.390625 L 6.515625 -19.390625 C 6.554688 -18.734375 6.597656 -18.039062 6.640625 -17.3125 C 6.679688 -16.582031 6.710938 -15.828125 6.734375 -15.046875 C 6.765625 -14.273438 6.789062 -13.488281 6.8125 -12.6875 L 6.8125 0 L 3.1875 0 L 3.1875 -24.296875 L 8.0625 -24.296875 L 19.9375 -5.03125 L 20.0625 -5.03125 C 20.03125 -5.59375 20 -6.238281 19.96875 -6.96875 C 19.9375 -7.707031 19.90625 -8.46875 19.875 -9.25 C 19.851562 -10.03125 19.835938 -10.785156 19.828125 -11.515625 L 19.828125 -24.296875 L 23.46875 -24.296875 Z M 23.46875 0 "/></g></g></g><g fill="#000000" fill-opacity="1"><g transform="translate(311.365836, 440.639217)"><g><path d="M 11.609375 0 L 7.609375 0 L 7.609375 -20.90625 L 0.5 -20.90625 L 0.5 -24.296875 L 18.703125 -24.296875 L 18.703125 -20.90625 L 11.609375 -20.90625 Z M 11.609375 0 "/></g></g></g><g fill="#000000" fill-opacity="1"><g transform="translate(337.393102, 440.639217)"><g><path d="M 17.21875 -6.609375 C 17.21875 -5.171875 16.863281 -3.929688 16.15625 -2.890625 C 15.457031 -1.847656 14.453125 -1.050781 13.140625 -0.5 C 11.828125 0.0507812 10.257812 0.328125 8.4375 0.328125 C 7.550781 0.328125 6.703125 0.273438 5.890625 0.171875 C 5.085938 0.078125 4.328125 -0.0625 3.609375 -0.25 C 2.898438 -0.445312 2.25 -0.6875 1.65625 -0.96875 L 1.65625 -4.71875 C 2.644531 -4.289062 3.75 -3.898438 4.96875 -3.546875 C 6.1875 -3.203125 7.425781 -3.03125 8.6875 -3.03125 C 9.71875 -3.03125 10.570312 -3.164062 11.25 -3.4375 C 11.9375 -3.707031 12.445312 -4.09375 12.78125 -4.59375 C 13.113281 -5.09375 13.28125 -5.679688 13.28125 -6.359375 C 13.28125 -7.078125 13.082031 -7.6875 12.6875 -8.1875 C 12.300781 -8.6875 11.71875 -9.144531 10.9375 -9.5625 C 10.15625 -9.976562 9.179688 -10.425781 8.015625 -10.90625 C 7.210938 -11.21875 6.445312 -11.578125 5.71875 -11.984375 C 5 -12.398438 4.351562 -12.882812 3.78125 -13.4375 C 3.21875 -14 2.769531 -14.65625 2.4375 -15.40625 C 2.113281 -16.164062 1.953125 -17.0625 1.953125 -18.09375 C 1.953125 -19.46875 2.28125 -20.640625 2.9375 -21.609375 C 3.601562 -22.585938 4.535156 -23.335938 5.734375 -23.859375 C 6.941406 -24.378906 8.347656 -24.640625 9.953125 -24.640625 C 11.222656 -24.640625 12.421875 -24.503906 13.546875 -24.234375 C 14.671875 -23.972656 15.773438 -23.597656 16.859375 -23.109375 L 15.609375 -19.90625 C 14.609375 -20.3125 13.640625 -20.632812 12.703125 -20.875 C 11.765625 -21.125 10.8125 -21.25 9.84375 -21.25 C 9 -21.25 8.28125 -21.117188 7.6875 -20.859375 C 7.101562 -20.609375 6.660156 -20.253906 6.359375 -19.796875 C 6.054688 -19.335938 5.90625 -18.789062 5.90625 -18.15625 C 5.90625 -17.445312 6.078125 -16.851562 6.421875 -16.375 C 6.773438 -15.894531 7.316406 -15.453125 8.046875 -15.046875 C 8.785156 -14.648438 9.738281 -14.207031 10.90625 -13.71875 C 12.238281 -13.164062 13.375 -12.582031 14.3125 -11.96875 C 15.25 -11.363281 15.96875 -10.640625 16.46875 -9.796875 C 16.96875 -8.953125 17.21875 -7.890625 17.21875 -6.609375 Z M 17.21875 -6.609375 "/></g></g></g><g fill="#000000" fill-opacity="1"><g transform="translate(362.905413, 440.639217)"><g/></g></g><g fill="#000000" fill-opacity="1"><g transform="translate(378.550516, 440.639217)"><g><path d="M 13.671875 0 L 6.6875 -20.296875 L 6.53125 -20.296875 C 6.5625 -19.835938 6.597656 -19.210938 6.640625 -18.421875 C 6.691406 -17.640625 6.734375 -16.800781 6.765625 -15.90625 C 6.796875 -15.007812 6.8125 -14.148438 6.8125 -13.328125 L 6.8125 0 L 3.1875 0 L 3.1875 -24.296875 L 8.796875 -24.296875 L 15.515625 -4.90625 L 15.625 -4.90625 L 22.578125 -24.296875 L 28.171875 -24.296875 L 28.171875 0 L 24.359375 0 L 24.359375 -13.53125 C 24.359375 -14.269531 24.367188 -15.070312 24.390625 -15.9375 C 24.421875 -16.800781 24.457031 -17.617188 24.5 -18.390625 C 24.539062 -19.171875 24.570312 -19.789062 24.59375 -20.25 L 24.453125 -20.25 L 17.203125 0 Z M 13.671875 0 "/></g></g></g><g fill="#000000" fill-opacity="1"><g transform="translate(416.704149, 440.639217)"><g><path d="M 18.25 0 L 15.875 -6.75 L 6.578125 -6.75 L 4.203125 0 L 0 0 L 9.046875 -24.390625 L 13.453125 -24.390625 L 22.484375 0 Z M 14.84375 -10.171875 L 12.53125 -16.8125 C 12.4375 -17.101562 12.304688 -17.507812 12.140625 -18.03125 C 11.972656 -18.5625 11.804688 -19.097656 11.640625 -19.640625 C 11.484375 -20.191406 11.347656 -20.65625 11.234375 -21.03125 C 11.117188 -20.582031 10.976562 -20.078125 10.8125 -19.515625 C 10.65625 -18.953125 10.503906 -18.425781 10.359375 -17.9375 C 10.210938 -17.457031 10.097656 -17.082031 10.015625 -16.8125 L 7.6875 -10.171875 Z M 14.84375 -10.171875 "/></g></g></g><g fill="#000000" fill-opacity="1"><g transform="translate(446.003873, 440.639217)"><g><path d="M 22.921875 -12.375 C 22.921875 -9.644531 22.410156 -7.363281 21.390625 -5.53125 C 20.367188 -3.695312 18.890625 -2.316406 16.953125 -1.390625 C 15.015625 -0.460938 12.675781 0 9.9375 0 L 3.1875 0 L 3.1875 -24.296875 L 10.671875 -24.296875 C 13.179688 -24.296875 15.347656 -23.84375 17.171875 -22.9375 C 19.003906 -22.03125 20.421875 -20.691406 21.421875 -18.921875 C 22.421875 -17.160156 22.921875 -14.976562 22.921875 -12.375 Z M 18.765625 -12.265625 C 18.765625 -14.253906 18.445312 -15.890625 17.8125 -17.171875 C 17.1875 -18.460938 16.269531 -19.421875 15.0625 -20.046875 C 13.851562 -20.671875 12.359375 -20.984375 10.578125 -20.984375 L 7.171875 -20.984375 L 7.171875 -3.34375 L 10 -3.34375 C 12.9375 -3.34375 15.128906 -4.085938 16.578125 -5.578125 C 18.035156 -7.078125 18.765625 -9.304688 18.765625 -12.265625 Z M 18.765625 -12.265625 "/></g></g></g><g fill="#000000" fill-opacity="1"><g transform="translate(477.745482, 440.639217)"><g><path d="M 16.953125 0 L 3.1875 0 L 3.1875 -24.296875 L 16.953125 -24.296875 L 16.953125 -20.9375 L 7.171875 -20.9375 L 7.171875 -14.34375 L 16.328125 -14.34375 L 16.328125 -11 L 7.171875 -11 L 7.171875 -3.375 L 16.953125 -3.375 Z M 16.953125 0 "/></g></g></g><g fill="#000000" fill-opacity="1"><g transform="translate(503.540188, 440.639217)"><g/></g></g><g fill="#000000" fill-opacity="1"><g transform="translate(519.185291, 440.639217)"><g><path d="M 22.921875 -12.375 C 22.921875 -9.644531 22.410156 -7.363281 21.390625 -5.53125 C 20.367188 -3.695312 18.890625 -2.316406 16.953125 -1.390625 C 15.015625 -0.460938 12.675781 0 9.9375 0 L 3.1875 0 L 3.1875 -24.296875 L 10.671875 -24.296875 C 13.179688 -24.296875 15.347656 -23.84375 17.171875 -22.9375 C 19.003906 -22.03125 20.421875 -20.691406 21.421875 -18.921875 C 22.421875 -17.160156 22.921875 -14.976562 22.921875 -12.375 Z M 18.765625 -12.265625 C 18.765625 -14.253906 18.445312 -15.890625 17.8125 -17.171875 C 17.1875 -18.460938 16.269531 -19.421875 15.0625 -20.046875 C 13.851562 -20.671875 12.359375 -20.984375 10.578125 -20.984375 L 7.171875 -20.984375 L 7.171875 -3.34375 L 10 -3.34375 C 12.9375 -3.34375 15.128906 -4.085938 16.578125 -5.578125 C 18.035156 -7.078125 18.765625 -9.304688 18.765625 -12.265625 Z M 18.765625 -12.265625 "/></g></g></g><g fill="#000000" fill-opacity="1"><g transform="translate(550.926899, 440.639217)"><g><path d="M 3.1875 0 L 3.1875 -24.296875 L 7.171875 -24.296875 L 7.171875 0 Z M 3.1875 0 "/></g></g></g><g fill="#000000" fill-opacity="1"><g transform="translate(568.116868, 440.639217)"><g><path d="M 21.203125 -24.296875 L 12.71875 0 L 8.484375 0 L 0 -24.296875 L 4.09375 -24.296875 L 9.203125 -9.078125 C 9.359375 -8.628906 9.523438 -8.085938 9.703125 -7.453125 C 9.890625 -6.828125 10.0625 -6.191406 10.21875 -5.546875 C 10.382812 -4.910156 10.507812 -4.34375 10.59375 -3.84375 C 10.6875 -4.34375 10.8125 -4.910156 10.96875 -5.546875 C 11.132812 -6.191406 11.304688 -6.828125 11.484375 -7.453125 C 11.660156 -8.085938 11.828125 -8.632812 11.984375 -9.09375 L 17.109375 -24.296875 Z M 21.203125 -24.296875 "/></g></g></g><g fill="#000000" fill-opacity="1"><g transform="translate(596.120898, 440.639217)"><g><path d="M 3.1875 0 L 3.1875 -24.296875 L 7.171875 -24.296875 L 7.171875 0 Z M 3.1875 0 "/></g></g></g><g fill="#000000" fill-opacity="1"><g transform="translate(613.310867, 440.639217)"><g><path d="M 23.46875 0 L 18.5625 0 L 6.65625 -19.390625 L 6.515625 -19.390625 C 6.554688 -18.734375 6.597656 -18.039062 6.640625 -17.3125 C 6.679688 -16.582031 6.710938 -15.828125 6.734375 -15.046875 C 6.765625 -14.273438 6.789062 -13.488281 6.8125 -12.6875 L 6.8125 0 L 3.1875 0 L 3.1875 -24.296875 L 8.0625 -24.296875 L 19.9375 -5.03125 L 20.0625 -5.03125 C 20.03125 -5.59375 20 -6.238281 19.96875 -6.96875 C 19.9375 -7.707031 19.90625 -8.46875 19.875 -9.25 C 19.851562 -10.03125 19.835938 -10.785156 19.828125 -11.515625 L 19.828125 -24.296875 L 23.46875 -24.296875 Z M 23.46875 0 "/></g></g></g><g fill="#000000" fill-opacity="1"><g transform="translate(646.763456, 440.639217)"><g><path d="M 16.953125 0 L 3.1875 0 L 3.1875 -24.296875 L 16.953125 -24.296875 L 16.953125 -20.9375 L 7.171875 -20.9375 L 7.171875 -14.34375 L 16.328125 -14.34375 L 16.328125 -11 L 7.171875 -11 L 7.171875 -3.375 L 16.953125 -3.375 Z M 16.953125 0 "/></g></g></g><g fill="#000000" fill-opacity="1"><g transform="translate(280.636839, 201.404655)"><g><path d="M 73.84375 0 L 9.828125 0 L 9.828125 -198.203125 L 73.84375 -198.203125 C 87.3125 -198.203125 99.941406 -195.628906 111.734375 -190.484375 C 123.523438 -185.335938 133.957031 -178.222656 143.03125 -169.140625 C 152.113281 -160.066406 159.226562 -149.539062 164.375 -137.5625 C 169.519531 -125.582031 172.09375 -112.671875 172.09375 -98.828125 C 172.09375 -85.160156 169.519531 -72.335938 164.375 -60.359375 C 159.226562 -48.378906 152.113281 -37.847656 143.03125 -28.765625 C 133.957031 -19.691406 123.523438 -12.628906 111.734375 -7.578125 C 99.941406 -2.523438 87.3125 0 73.84375 0 Z M 31.71875 -196.25 L 31.71875 -2.25 L 73.84375 -2.25 C 84.507812 -2.25 94.519531 -4.726562 103.875 -9.6875 C 113.238281 -14.644531 121.472656 -21.566406 128.578125 -30.453125 C 135.691406 -39.347656 141.257812 -49.597656 145.28125 -61.203125 C 149.3125 -72.804688 151.328125 -85.347656 151.328125 -98.828125 C 151.328125 -112.296875 149.3125 -124.878906 145.28125 -136.578125 C 141.257812 -148.273438 135.691406 -158.613281 128.578125 -167.59375 C 121.472656 -176.582031 113.238281 -183.601562 103.875 -188.65625 C 94.519531 -193.71875 84.507812 -196.25 73.84375 -196.25 Z M 31.71875 -196.25 "/></g></g></g><g fill="#000000" fill-opacity="1"><g transform="translate(351.665315, 255.317018)"><g><path d="M 73.84375 0 L 9.828125 0 L 9.828125 -198.203125 L 73.84375 -198.203125 C 87.3125 -198.203125 99.941406 -195.628906 111.734375 -190.484375 C 123.523438 -185.335938 133.957031 -178.222656 143.03125 -169.140625 C 152.113281 -160.066406 159.226562 -149.539062 164.375 -137.5625 C 169.519531 -125.582031 172.09375 -112.671875 172.09375 -98.828125 C 172.09375 -85.160156 169.519531 -72.335938 164.375 -60.359375 C 159.226562 -48.378906 152.113281 -37.847656 143.03125 -28.765625 C 133.957031 -19.691406 123.523438 -12.628906 111.734375 -7.578125 C 99.941406 -2.523438 87.3125 0 73.84375 0 Z M 31.71875 -196.25 L 31.71875 -2.25 L 73.84375 -2.25 C 84.507812 -2.25 94.519531 -4.726562 103.875 -9.6875 C 113.238281 -14.644531 121.472656 -21.566406 128.578125 -30.453125 C 135.691406 -39.347656 141.257812 -49.597656 145.28125 -61.203125 C 149.3125 -72.804688 151.328125 -85.347656 151.328125 -98.828125 C 151.328125 -112.296875 149.3125 -124.878906 145.28125 -136.578125 C 141.257812 -148.273438 135.691406 -158.613281 128.578125 -167.59375 C 121.472656 -176.582031 113.238281 -183.601562 103.875 -188.65625 C 94.519531 -193.71875 84.507812 -196.25 73.84375 -196.25 Z M 31.71875 -196.25 "/></g></g></g><g clip-path="url(#1a0d88e7e2)"><g transform="matrix(1, 0, 0, 1, -0.000000000000000222, 287)"><g clip-path="url(#d65a78c06a)"><g fill="#000000" fill-opacity="1"><g transform="translate(1.073214, 92.078241)"><g><path d="M 32.875 0 L 4.375 0 L 4.375 -88.265625 L 32.875 -88.265625 C 38.875 -88.265625 44.5 -87.117188 49.75 -84.828125 C 55 -82.535156 59.644531 -79.367188 63.6875 -75.328125 C 67.738281 -71.285156 70.910156 -66.59375 73.203125 -61.25 C 75.492188 -55.914062 76.640625 -50.164062 76.640625 -44 C 76.640625 -37.914062 75.492188 -32.207031 73.203125 -26.875 C 70.910156 -21.539062 67.738281 -16.851562 63.6875 -12.8125 C 59.644531 -8.769531 55 -5.625 49.75 -3.375 C 44.5 -1.125 38.875 0 32.875 0 Z M 14.125 -87.390625 L 14.125 -1 L 32.875 -1 C 37.625 -1 42.082031 -2.101562 46.25 -4.3125 C 50.414062 -6.519531 54.082031 -9.601562 57.25 -13.5625 C 60.414062 -17.519531 62.894531 -22.082031 64.6875 -27.25 C 66.488281 -32.414062 67.390625 -38 67.390625 -44 C 67.390625 -50 66.488281 -55.601562 64.6875 -60.8125 C 62.894531 -66.03125 60.414062 -70.640625 57.25 -74.640625 C 54.082031 -78.640625 50.414062 -81.765625 46.25 -84.015625 C 42.082031 -86.265625 37.625 -87.390625 32.875 -87.390625 Z M 14.125 -87.390625 "/></g></g></g><g fill="#000000" fill-opacity="1"><g transform="translate(86.707098, 92.078241)"><g><path d="M 4.375 0 L 4.375 -88.265625 L 13.75 -88.265625 L 13.75 0 Z M 4.375 0 "/></g></g></g><g fill="#000000" fill-opacity="1"><g transform="translate(109.459724, 92.078241)"><g><path d="M 78.765625 -88.390625 L 80.015625 -88.390625 L 73.515625 -73.140625 L 42.625 0 L 41.625 0 L 4.375 -88.390625 L 14.625 -88.390625 L 46.75 -12.5 L 51.625 -24.375 Z M 78.765625 -88.390625 "/></g></g></g><g fill="#000000" fill-opacity="1"><g transform="translate(198.468936, 92.078241)"><g><path d="M 4.375 0 L 4.375 -88.265625 L 13.75 -88.265625 L 13.75 0 Z M 4.375 0 "/></g></g></g><g fill="#000000" fill-opacity="1"><g transform="translate(221.221563, 92.078241)"><g><path d="M 4.375 -88.265625 L 13.75 -88.265625 C 20.582031 -88.265625 26.644531 -85.953125 31.9375 -81.328125 C 37.226562 -76.703125 41.664062 -70.765625 45.25 -63.515625 C 48.914062 -56.671875 51.832031 -49.144531 54 -40.9375 C 56.164062 -32.726562 57.707031 -24.582031 58.625 -16.5 L 58.625 -88.265625 L 68.015625 -88.265625 L 68.015625 0 L 58.625 0 C 58.625 -6.664062 58.101562 -13.707031 57.0625 -21.125 C 56.019531 -28.539062 54.476562 -35.875 52.4375 -43.125 C 50.394531 -50.375 47.832031 -57.003906 44.75 -63.015625 C 41 -70.179688 36.582031 -76.035156 31.5 -80.578125 C 26.414062 -85.117188 20.5 -87.390625 13.75 -87.390625 L 13.75 0 L 4.375 0 Z M 4.375 -88.265625 "/></g></g></g><g fill="#000000" fill-opacity="1"><g transform="translate(298.229582, 92.078241)"><g><path d="M 14 -58.875 L 14 -1 L 35.125 -1 C 40.539062 -1 44.976562 -2.332031 48.4375 -5 C 51.894531 -7.664062 54.75 -12.164062 57 -18.5 L 54.125 0 L 4.375 0 L 4.375 -88.265625 L 54.875 -88.265625 L 54.875 -78.265625 C 51.957031 -81.097656 49.125 -83.160156 46.375 -84.453125 C 43.625 -85.742188 40.519531 -86.554688 37.0625 -86.890625 C 33.601562 -87.222656 29.332031 -87.390625 24.25 -87.390625 L 14 -87.390625 L 14 -67.140625 C 14 -61.460938 14.957031 -57.125 16.875 -54.125 C 18.789062 -51.125 21.664062 -49.101562 25.5 -48.0625 C 29.332031 -47.019531 34.125 -46.5 39.875 -46.5 L 39.875 -36.625 C 38.039062 -38.707031 35.851562 -40.351562 33.3125 -41.5625 C 30.769531 -42.769531 28.1875 -44.019531 25.5625 -45.3125 C 22.9375 -46.601562 20.582031 -48.269531 18.5 -50.3125 C 16.414062 -52.351562 14.914062 -55.207031 14 -58.875 Z M 14 -58.875 "/></g></g></g><g fill="#000000" fill-opacity="1"><g transform="translate(364.236513, 92.078241)"><g/></g></g><g fill="#000000" fill-opacity="1"><g transform="translate(403.740804, 92.078241)"><g><path d="M 32.875 0 L 4.375 0 L 4.375 -88.265625 L 32.875 -88.265625 C 38.875 -88.265625 44.5 -87.117188 49.75 -84.828125 C 55 -82.535156 59.644531 -79.367188 63.6875 -75.328125 C 67.738281 -71.285156 70.910156 -66.59375 73.203125 -61.25 C 75.492188 -55.914062 76.640625 -50.164062 76.640625 -44 C 76.640625 -37.914062 75.492188 -32.207031 73.203125 -26.875 C 70.910156 -21.539062 67.738281 -16.851562 63.6875 -12.8125 C 59.644531 -8.769531 55 -5.625 49.75 -3.375 C 44.5 -1.125 38.875 0 32.875 0 Z M 14.125 -87.390625 L 14.125 -1 L 32.875 -1 C 37.625 -1 42.082031 -2.101562 46.25 -4.3125 C 50.414062 -6.519531 54.082031 -9.601562 57.25 -13.5625 C 60.414062 -17.519531 62.894531 -22.082031 64.6875 -27.25 C 66.488281 -32.414062 67.390625 -38 67.390625 -44 C 67.390625 -50 66.488281 -55.601562 64.6875 -60.8125 C 62.894531 -66.03125 60.414062 -70.640625 57.25 -74.640625 C 54.082031 -78.640625 50.414062 -81.765625 46.25 -84.015625 C 42.082031 -86.265625 37.625 -87.390625 32.875 -87.390625 Z M 14.125 -87.390625 "/></g></g></g><g fill="#000000" fill-opacity="1"><g transform="translate(489.374688, 92.078241)"><g><path d="M 14 -58.875 L 14 -1 L 35.125 -1 C 40.539062 -1 44.976562 -2.332031 48.4375 -5 C 51.894531 -7.664062 54.75 -12.164062 57 -18.5 L 54.125 0 L 4.375 0 L 4.375 -88.265625 L 54.875 -88.265625 L 54.875 -78.265625 C 51.957031 -81.097656 49.125 -83.160156 46.375 -84.453125 C 43.625 -85.742188 40.519531 -86.554688 37.0625 -86.890625 C 33.601562 -87.222656 29.332031 -87.390625 24.25 -87.390625 L 14 -87.390625 L 14 -67.140625 C 14 -61.460938 14.957031 -57.125 16.875 -54.125 C 18.789062 -51.125 21.664062 -49.101562 25.5 -48.0625 C 29.332031 -47.019531 34.125 -46.5 39.875 -46.5 L 39.875 -36.625 C 38.039062 -38.707031 35.851562 -40.351562 33.3125 -41.5625 C 30.769531 -42.769531 28.1875 -44.019531 25.5625 -45.3125 C 22.9375 -46.601562 20.582031 -48.269531 18.5 -50.3125 C 16.414062 -52.351562 14.914062 -55.207031 14 -58.875 Z M 14 -58.875 "/></g></g></g><g fill="#000000" fill-opacity="1"><g transform="translate(555.38162, 92.078241)"><g><path d="M 34.125 0 L 34.125 -87.390625 C 29.707031 -87.390625 25.769531 -87.203125 22.3125 -86.828125 C 18.851562 -86.453125 15.6875 -85.660156 12.8125 -84.453125 C 9.9375 -83.242188 7.125 -81.304688 4.375 -78.640625 L 4.375 -88.390625 L 73.515625 -88.390625 L 73.515625 -78.640625 C 70.679688 -81.304688 67.820312 -83.242188 64.9375 -84.453125 C 62.0625 -85.660156 58.914062 -86.453125 55.5 -86.828125 C 52.082031 -87.203125 48.164062 -87.390625 43.75 -87.390625 L 43.75 0 Z M 34.125 0 "/></g></g></g><g fill="#000000" fill-opacity="1"><g transform="translate(637.890153, 92.078241)"><g><path d="M 65.140625 0 L 51 -33.875 C 45.664062 -33.375 41.269531 -32.289062 37.8125 -30.625 C 34.351562 -28.957031 31.5625 -26.9375 29.4375 -24.5625 C 27.3125 -22.1875 25.601562 -19.707031 24.3125 -17.125 C 23.019531 -14.539062 21.875 -12.125 20.875 -9.875 C 19.707031 -6.789062 18.4375 -4.226562 17.0625 -2.1875 C 15.6875 -0.144531 13.582031 0.832031 10.75 0.75 C 10.414062 0.664062 10.101562 0.582031 9.8125 0.5 C 9.519531 0.414062 9.164062 0.207031 8.75 -0.125 C 5.332031 -1.625 3.957031 -5.25 4.625 -11 C 4.957031 -13.75 5.5625 -16.851562 6.4375 -20.3125 C 7.3125 -23.769531 8.5 -27.5 10 -31.5 C 12.25 -37.5 14.894531 -43.851562 17.9375 -50.5625 C 20.976562 -57.269531 24.1875 -63.894531 27.5625 -70.4375 C 30.9375 -76.988281 34.207031 -82.929688 37.375 -88.265625 L 38.25 -88.265625 L 75.640625 0 Z M 50.625 -34.75 L 32.25 -77.515625 C 28.414062 -70.179688 24.5625 -62.445312 20.6875 -54.3125 C 16.8125 -46.1875 13.539062 -38.5 10.875 -31.25 C 9.375 -27.25 8.1875 -23.539062 7.3125 -20.125 C 6.4375 -16.707031 5.832031 -13.664062 5.5 -11 C 5.414062 -8.414062 5.625 -6.226562 6.125 -4.4375 C 6.625 -2.644531 7.625 -1.5 9.125 -1 C 9.539062 -0.914062 9.851562 -0.832031 10.0625 -0.75 C 10.269531 -0.664062 10.539062 -0.539062 10.875 -0.375 C 13.375 -0.207031 15.25 -1.082031 16.5 -3 C 17.75 -4.914062 18.875 -7.289062 19.875 -10.125 C 20.875 -12.457031 22.039062 -14.9375 23.375 -17.5625 C 24.707031 -20.1875 26.476562 -22.707031 28.6875 -25.125 C 30.894531 -27.539062 33.75 -29.625 37.25 -31.375 C 40.75 -33.125 45.207031 -34.25 50.625 -34.75 Z M 50.625 -34.75 "/></g></g></g><g fill="#000000" fill-opacity="1"><g transform="translate(722.523989, 92.078241)"><g><path d="M 4.375 0 L 4.375 -88.265625 L 13.75 -88.265625 L 13.75 0 Z M 4.375 0 "/></g></g></g><g fill="#000000" fill-opacity="1"><g transform="translate(745.276586, 92.078241)"><g><path d="M 57.25 -18.5 L 54.25 0 L 4.375 0 L 4.375 -88.265625 L 14.375 -88.265625 L 14.375 -1 L 35.5 -1 C 40.914062 -1 45.3125 -2.332031 48.6875 -5 C 52.0625 -7.664062 54.914062 -12.164062 57.25 -18.5 Z M 57.25 -18.5 "/></g></g></g></g></g></g></g></g></svg>