<svg xmlns="http://www.w3.org/2000/svg" xmlns:xlink="http://www.w3.org/1999/xlink" width="500" zoomAndPan="magnify" viewBox="0 0 375 374.999991" height="500" preserveAspectRatio="xMidYMid meet" version="1.0"><defs><g/><clipPath id="c1aa6b4fd1"><rect x="0" width="245" y="0" height="309"/></clipPath><clipPath id="375c2021ee"><rect x="0" width="248" y="0" height="368"/></clipPath></defs><rect x="-37.5" width="450" fill="#ffffff" y="-37.499999" height="449.999989" fill-opacity="1"/><rect x="-37.5" width="450" fill="#211e1e" y="-37.499999" height="449.999989" fill-opacity="1"/><g transform="matrix(1, 0, 0, 1, 111, 66)"><g clip-path="url(#c1aa6b4fd1)"><g fill="#fcf7f7" fill-opacity="1"><g transform="translate(0.393483, 279.545414)"><g><path d="M 98.9375 0 L 13.171875 0 L 13.171875 -265.578125 L 98.9375 -265.578125 C 116.988281 -265.578125 133.914062 -262.128906 149.71875 -255.234375 C 165.519531 -248.335938 179.5 -238.804688 191.65625 -226.640625 C 203.820312 -214.484375 213.351562 -200.378906 220.25 -184.328125 C 227.144531 -168.273438 230.59375 -150.96875 230.59375 -132.40625 C 230.59375 -114.101562 227.144531 -96.925781 220.25 -80.875 C 213.351562 -64.820312 203.820312 -50.710938 191.65625 -38.546875 C 179.5 -26.390625 165.519531 -16.925781 149.71875 -10.15625 C 133.914062 -3.382812 116.988281 0 98.9375 0 Z M 42.5 -262.9375 L 42.5 -3.015625 L 98.9375 -3.015625 C 113.226562 -3.015625 126.640625 -6.335938 139.171875 -12.984375 C 151.710938 -19.628906 162.75 -28.90625 172.28125 -40.8125 C 181.8125 -52.726562 189.269531 -66.457031 194.65625 -82 C 200.050781 -97.550781 202.75 -114.351562 202.75 -132.40625 C 202.75 -150.46875 200.050781 -167.332031 194.65625 -183 C 189.269531 -198.675781 181.8125 -212.53125 172.28125 -224.5625 C 162.75 -236.601562 151.710938 -246.007812 139.171875 -252.78125 C 126.640625 -259.550781 113.226562 -262.9375 98.9375 -262.9375 Z M 42.5 -262.9375 "/></g></g></g></g></g><g transform="matrix(1, 0, 0, 1, 26, 7)"><g clip-path="url(#375c2021ee)"><g fill="#fcf7f7" fill-opacity="1"><g transform="translate(2.194847, 278.791204)"><g><path d="M 98.9375 0 L 13.171875 0 L 13.171875 -265.578125 L 98.9375 -265.578125 C 116.988281 -265.578125 133.914062 -262.128906 149.71875 -255.234375 C 165.519531 -248.335938 179.5 -238.804688 191.65625 -226.640625 C 203.820312 -214.484375 213.351562 -200.378906 220.25 -184.328125 C 227.144531 -168.273438 230.59375 -150.96875 230.59375 -132.40625 C 230.59375 -114.101562 227.144531 -96.925781 220.25 -80.875 C 213.351562 -64.820312 203.820312 -50.710938 191.65625 -38.546875 C 179.5 -26.390625 165.519531 -16.925781 149.71875 -10.15625 C 133.914062 -3.382812 116.988281 0 98.9375 0 Z M 42.5 -262.9375 L 42.5 -3.015625 L 98.9375 -3.015625 C 113.226562 -3.015625 126.640625 -6.335938 139.171875 -12.984375 C 151.710938 -19.628906 162.75 -28.90625 172.28125 -40.8125 C 181.8125 -52.726562 189.269531 -66.457031 194.65625 -82 C 200.050781 -97.550781 202.75 -114.351562 202.75 -132.40625 C 202.75 -150.46875 200.050781 -167.332031 194.65625 -183 C 189.269531 -198.675781 181.8125 -212.53125 172.28125 -224.5625 C 162.75 -236.601562 151.710938 -246.007812 139.171875 -252.78125 C 126.640625 -259.550781 113.226562 -262.9375 98.9375 -262.9375 Z M 42.5 -262.9375 "/></g></g></g></g></g></svg>