<svg xmlns="http://www.w3.org/2000/svg" xmlns:xlink="http://www.w3.org/1999/xlink" width="500" zoomAndPan="magnify" viewBox="0 0 375 74.999997" height="100" preserveAspectRatio="xMidYMid meet" version="1.0"><defs><g/><clipPath id="232dc0e6a5"><rect x="0" width="269" y="0" height="21"/></clipPath><clipPath id="5d1bf5c693"><path d="M 0.28125 0.199219 L 366.519531 0.199219 L 366.519531 57 L 0.28125 57 Z M 0.28125 0.199219 " clip-rule="nonzero"/></clipPath><clipPath id="b521bd7219"><rect x="0" width="367" y="0" height="57"/></clipPath><clipPath id="eacfed9b98"><rect x="0" width="367" y="0" height="74"/></clipPath></defs><rect x="-37.5" width="450" fill="#ffffff" y="-7.5" height="89.999996" fill-opacity="1"/><rect x="-37.5" width="450" fill="#fcf7f7" y="-7.5" height="89.999996" fill-opacity="1"/><g transform="matrix(1, 0, 0, 1, 5, 1)"><g clip-path="url(#eacfed9b98)"><g transform="matrix(1, 0, 0, 1, 50, 53)"><g clip-path="url(#232dc0e6a5)"><g fill="#000000" fill-opacity="1"><g transform="translate(1.11879, 17.224506)"><g><path d="M 6.859375 0 L 3.359375 -10.1875 L 3.28125 -10.1875 C 3.289062 -9.957031 3.304688 -9.644531 3.328125 -9.25 C 3.359375 -8.851562 3.378906 -8.429688 3.390625 -7.984375 C 3.410156 -7.535156 3.421875 -7.101562 3.421875 -6.6875 L 3.421875 0 L 1.59375 0 L 1.59375 -12.1875 L 4.40625 -12.1875 L 7.78125 -2.453125 L 7.84375 -2.453125 L 11.328125 -12.1875 L 14.140625 -12.1875 L 14.140625 0 L 12.21875 0 L 12.21875 -6.78125 C 12.21875 -7.15625 12.222656 -7.554688 12.234375 -7.984375 C 12.253906 -8.421875 12.273438 -8.832031 12.296875 -9.21875 C 12.316406 -9.613281 12.332031 -9.929688 12.34375 -10.171875 L 12.28125 -10.171875 L 8.625 0 Z M 6.859375 0 "/></g></g></g><g fill="#000000" fill-opacity="1"><g transform="translate(20.266912, 17.224506)"><g><path d="M 12.421875 -6.109375 C 12.421875 -5.171875 12.300781 -4.316406 12.0625 -3.546875 C 11.832031 -2.773438 11.476562 -2.113281 11 -1.5625 C 10.53125 -1.007812 9.9375 -0.582031 9.21875 -0.28125 C 8.507812 0.0195312 7.679688 0.171875 6.734375 0.171875 C 5.753906 0.171875 4.90625 0.0195312 4.1875 -0.28125 C 3.476562 -0.582031 2.890625 -1.007812 2.421875 -1.5625 C 1.953125 -2.125 1.597656 -2.789062 1.359375 -3.5625 C 1.128906 -4.332031 1.015625 -5.1875 1.015625 -6.125 C 1.015625 -7.382812 1.222656 -8.484375 1.640625 -9.421875 C 2.054688 -10.359375 2.6875 -11.085938 3.53125 -11.609375 C 4.375 -12.128906 5.445312 -12.390625 6.75 -12.390625 C 8.007812 -12.390625 9.0625 -12.128906 9.90625 -11.609375 C 10.75 -11.085938 11.378906 -10.359375 11.796875 -9.421875 C 12.210938 -8.484375 12.421875 -7.378906 12.421875 -6.109375 Z M 3.125 -6.109375 C 3.125 -5.171875 3.25 -4.359375 3.5 -3.671875 C 3.757812 -2.984375 4.15625 -2.453125 4.6875 -2.078125 C 5.21875 -1.710938 5.898438 -1.53125 6.734375 -1.53125 C 7.566406 -1.53125 8.25 -1.710938 8.78125 -2.078125 C 9.3125 -2.453125 9.703125 -2.984375 9.953125 -3.671875 C 10.203125 -4.359375 10.328125 -5.171875 10.328125 -6.109375 C 10.328125 -7.535156 10.039062 -8.65625 9.46875 -9.46875 C 8.894531 -10.28125 7.988281 -10.6875 6.75 -10.6875 C 5.914062 -10.6875 5.226562 -10.5 4.6875 -10.125 C 4.15625 -9.757812 3.757812 -9.234375 3.5 -8.546875 C 3.25 -7.867188 3.125 -7.054688 3.125 -6.109375 Z M 3.125 -6.109375 "/></g></g></g><g fill="#000000" fill-opacity="1"><g transform="translate(37.122193, 17.224506)"><g><path d="M 6.859375 0 L 3.359375 -10.1875 L 3.28125 -10.1875 C 3.289062 -9.957031 3.304688 -9.644531 3.328125 -9.25 C 3.359375 -8.851562 3.378906 -8.429688 3.390625 -7.984375 C 3.410156 -7.535156 3.421875 -7.101562 3.421875 -6.6875 L 3.421875 0 L 1.59375 0 L 1.59375 -12.1875 L 4.40625 -12.1875 L 7.78125 -2.453125 L 7.84375 -2.453125 L 11.328125 -12.1875 L 14.140625 -12.1875 L 14.140625 0 L 12.21875 0 L 12.21875 -6.78125 C 12.21875 -7.15625 12.222656 -7.554688 12.234375 -7.984375 C 12.253906 -8.421875 12.273438 -8.832031 12.296875 -9.21875 C 12.316406 -9.613281 12.332031 -9.929688 12.34375 -10.171875 L 12.28125 -10.171875 L 8.625 0 Z M 6.859375 0 "/></g></g></g><g fill="#000000" fill-opacity="1"><g transform="translate(56.270315, 17.224506)"><g><path d="M 8.5 0 L 1.59375 0 L 1.59375 -12.1875 L 8.5 -12.1875 L 8.5 -10.5 L 3.609375 -10.5 L 3.609375 -7.203125 L 8.203125 -7.203125 L 8.203125 -5.515625 L 3.609375 -5.515625 L 3.609375 -1.6875 L 8.5 -1.6875 Z M 8.5 0 "/></g></g></g><g fill="#000000" fill-opacity="1"><g transform="translate(69.215261, 17.224506)"><g><path d="M 11.78125 0 L 9.3125 0 L 3.34375 -9.734375 L 3.265625 -9.734375 C 3.285156 -9.398438 3.304688 -9.050781 3.328125 -8.6875 C 3.347656 -8.320312 3.363281 -7.941406 3.375 -7.546875 C 3.394531 -7.160156 3.410156 -6.769531 3.421875 -6.375 L 3.421875 0 L 1.59375 0 L 1.59375 -12.1875 L 4.046875 -12.1875 L 10 -2.53125 L 10.0625 -2.53125 C 10.050781 -2.8125 10.035156 -3.132812 10.015625 -3.5 C 10.003906 -3.863281 9.988281 -4.242188 9.96875 -4.640625 C 9.957031 -5.035156 9.953125 -5.414062 9.953125 -5.78125 L 9.953125 -12.1875 L 11.78125 -12.1875 Z M 11.78125 0 "/></g></g></g><g fill="#000000" fill-opacity="1"><g transform="translate(86.003842, 17.224506)"><g><path d="M 5.828125 0 L 3.8125 0 L 3.8125 -10.484375 L 0.25 -10.484375 L 0.25 -12.1875 L 9.390625 -12.1875 L 9.390625 -10.484375 L 5.828125 -10.484375 Z M 5.828125 0 "/></g></g></g><g fill="#000000" fill-opacity="1"><g transform="translate(99.065515, 17.224506)"><g><path d="M 8.640625 -3.3125 C 8.640625 -2.59375 8.460938 -1.972656 8.109375 -1.453125 C 7.753906 -0.929688 7.25 -0.53125 6.59375 -0.25 C 5.9375 0.03125 5.148438 0.171875 4.234375 0.171875 C 3.785156 0.171875 3.359375 0.144531 2.953125 0.09375 C 2.554688 0.0390625 2.175781 -0.03125 1.8125 -0.125 C 1.457031 -0.226562 1.128906 -0.347656 0.828125 -0.484375 L 0.828125 -2.375 C 1.328125 -2.15625 1.878906 -1.957031 2.484375 -1.78125 C 3.097656 -1.601562 3.722656 -1.515625 4.359375 -1.515625 C 4.878906 -1.515625 5.304688 -1.582031 5.640625 -1.71875 C 5.984375 -1.851562 6.238281 -2.046875 6.40625 -2.296875 C 6.570312 -2.554688 6.65625 -2.851562 6.65625 -3.1875 C 6.65625 -3.550781 6.554688 -3.859375 6.359375 -4.109375 C 6.171875 -4.359375 5.878906 -4.585938 5.484375 -4.796875 C 5.097656 -5.003906 4.609375 -5.226562 4.015625 -5.46875 C 3.617188 -5.632812 3.238281 -5.816406 2.875 -6.015625 C 2.507812 -6.222656 2.179688 -6.460938 1.890625 -6.734375 C 1.609375 -7.015625 1.382812 -7.347656 1.21875 -7.734375 C 1.0625 -8.117188 0.984375 -8.566406 0.984375 -9.078125 C 0.984375 -9.765625 1.144531 -10.351562 1.46875 -10.84375 C 1.800781 -11.332031 2.269531 -11.707031 2.875 -11.96875 C 3.476562 -12.226562 4.1875 -12.359375 5 -12.359375 C 5.632812 -12.359375 6.234375 -12.289062 6.796875 -12.15625 C 7.359375 -12.03125 7.914062 -11.84375 8.46875 -11.59375 L 7.828125 -9.984375 C 7.328125 -10.191406 6.84375 -10.359375 6.375 -10.484375 C 5.90625 -10.609375 5.425781 -10.671875 4.9375 -10.671875 C 4.507812 -10.671875 4.148438 -10.601562 3.859375 -10.46875 C 3.566406 -10.34375 3.34375 -10.164062 3.1875 -9.9375 C 3.03125 -9.707031 2.953125 -9.429688 2.953125 -9.109375 C 2.953125 -8.753906 3.039062 -8.457031 3.21875 -8.21875 C 3.394531 -7.976562 3.664062 -7.753906 4.03125 -7.546875 C 4.40625 -7.347656 4.882812 -7.128906 5.46875 -6.890625 C 6.144531 -6.609375 6.71875 -6.3125 7.1875 -6 C 7.65625 -5.695312 8.015625 -5.332031 8.265625 -4.90625 C 8.515625 -4.488281 8.640625 -3.957031 8.640625 -3.3125 Z M 8.640625 -3.3125 "/></g></g></g><g fill="#000000" fill-opacity="1"><g transform="translate(111.868721, 17.224506)"><g/></g></g><g fill="#000000" fill-opacity="1"><g transform="translate(119.719393, 17.224506)"><g><path d="M 6.859375 0 L 3.359375 -10.1875 L 3.28125 -10.1875 C 3.289062 -9.957031 3.304688 -9.644531 3.328125 -9.25 C 3.359375 -8.851562 3.378906 -8.429688 3.390625 -7.984375 C 3.410156 -7.535156 3.421875 -7.101562 3.421875 -6.6875 L 3.421875 0 L 1.59375 0 L 1.59375 -12.1875 L 4.40625 -12.1875 L 7.78125 -2.453125 L 7.84375 -2.453125 L 11.328125 -12.1875 L 14.140625 -12.1875 L 14.140625 0 L 12.21875 0 L 12.21875 -6.78125 C 12.21875 -7.15625 12.222656 -7.554688 12.234375 -7.984375 C 12.253906 -8.421875 12.273438 -8.832031 12.296875 -9.21875 C 12.316406 -9.613281 12.332031 -9.929688 12.34375 -10.171875 L 12.28125 -10.171875 L 8.625 0 Z M 6.859375 0 "/></g></g></g><g fill="#000000" fill-opacity="1"><g transform="translate(138.867515, 17.224506)"><g><path d="M 9.15625 0 L 7.96875 -3.390625 L 3.296875 -3.390625 L 2.109375 0 L 0 0 L 4.53125 -12.234375 L 6.75 -12.234375 L 11.28125 0 Z M 7.453125 -5.109375 L 6.28125 -8.4375 C 6.238281 -8.582031 6.175781 -8.785156 6.09375 -9.046875 C 6.007812 -9.316406 5.925781 -9.585938 5.84375 -9.859375 C 5.757812 -10.140625 5.691406 -10.375 5.640625 -10.5625 C 5.578125 -10.332031 5.503906 -10.078125 5.421875 -9.796875 C 5.347656 -9.515625 5.273438 -9.25 5.203125 -9 C 5.128906 -8.757812 5.070312 -8.570312 5.03125 -8.4375 L 3.859375 -5.109375 Z M 7.453125 -5.109375 "/></g></g></g><g fill="#000000" fill-opacity="1"><g transform="translate(153.571695, 17.224506)"><g><path d="M 11.5 -6.21875 C 11.5 -4.84375 11.242188 -3.691406 10.734375 -2.765625 C 10.222656 -1.847656 9.476562 -1.15625 8.5 -0.6875 C 7.53125 -0.226562 6.359375 0 4.984375 0 L 1.59375 0 L 1.59375 -12.1875 L 5.359375 -12.1875 C 6.617188 -12.1875 7.707031 -11.957031 8.625 -11.5 C 9.539062 -11.050781 10.25 -10.382812 10.75 -9.5 C 11.25 -8.613281 11.5 -7.519531 11.5 -6.21875 Z M 9.421875 -6.15625 C 9.421875 -7.15625 9.257812 -7.976562 8.9375 -8.625 C 8.625 -9.269531 8.160156 -9.75 7.546875 -10.0625 C 6.941406 -10.375 6.195312 -10.53125 5.3125 -10.53125 L 3.609375 -10.53125 L 3.609375 -1.671875 L 5.015625 -1.671875 C 6.492188 -1.671875 7.597656 -2.046875 8.328125 -2.796875 C 9.054688 -3.546875 9.421875 -4.664062 9.421875 -6.15625 Z M 9.421875 -6.15625 "/></g></g></g><g fill="#000000" fill-opacity="1"><g transform="translate(169.501503, 17.224506)"><g><path d="M 8.5 0 L 1.59375 0 L 1.59375 -12.1875 L 8.5 -12.1875 L 8.5 -10.5 L 3.609375 -10.5 L 3.609375 -7.203125 L 8.203125 -7.203125 L 8.203125 -5.515625 L 3.609375 -5.515625 L 3.609375 -1.6875 L 8.5 -1.6875 Z M 8.5 0 "/></g></g></g><g fill="#000000" fill-opacity="1"><g transform="translate(182.446449, 17.224506)"><g/></g></g><g fill="#000000" fill-opacity="1"><g transform="translate(190.29712, 17.224506)"><g><path d="M 11.5 -6.21875 C 11.5 -4.84375 11.242188 -3.691406 10.734375 -2.765625 C 10.222656 -1.847656 9.476562 -1.15625 8.5 -0.6875 C 7.53125 -0.226562 6.359375 0 4.984375 0 L 1.59375 0 L 1.59375 -12.1875 L 5.359375 -12.1875 C 6.617188 -12.1875 7.707031 -11.957031 8.625 -11.5 C 9.539062 -11.050781 10.25 -10.382812 10.75 -9.5 C 11.25 -8.613281 11.5 -7.519531 11.5 -6.21875 Z M 9.421875 -6.15625 C 9.421875 -7.15625 9.257812 -7.976562 8.9375 -8.625 C 8.625 -9.269531 8.160156 -9.75 7.546875 -10.0625 C 6.941406 -10.375 6.195312 -10.53125 5.3125 -10.53125 L 3.609375 -10.53125 L 3.609375 -1.671875 L 5.015625 -1.671875 C 6.492188 -1.671875 7.597656 -2.046875 8.328125 -2.796875 C 9.054688 -3.546875 9.421875 -4.664062 9.421875 -6.15625 Z M 9.421875 -6.15625 "/></g></g></g><g fill="#000000" fill-opacity="1"><g transform="translate(206.226928, 17.224506)"><g><path d="M 1.59375 0 L 1.59375 -12.1875 L 3.609375 -12.1875 L 3.609375 0 Z M 1.59375 0 "/></g></g></g><g fill="#000000" fill-opacity="1"><g transform="translate(214.852996, 17.224506)"><g><path d="M 10.640625 -12.1875 L 6.375 0 L 4.265625 0 L 0 -12.1875 L 2.046875 -12.1875 L 4.625 -4.546875 C 4.695312 -4.328125 4.78125 -4.054688 4.875 -3.734375 C 4.96875 -3.421875 5.050781 -3.101562 5.125 -2.78125 C 5.207031 -2.457031 5.269531 -2.171875 5.3125 -1.921875 C 5.363281 -2.171875 5.425781 -2.457031 5.5 -2.78125 C 5.582031 -3.101562 5.664062 -3.421875 5.75 -3.734375 C 5.84375 -4.054688 5.929688 -4.332031 6.015625 -4.5625 L 8.59375 -12.1875 Z M 10.640625 -12.1875 "/></g></g></g><g fill="#000000" fill-opacity="1"><g transform="translate(228.906843, 17.224506)"><g><path d="M 1.59375 0 L 1.59375 -12.1875 L 3.609375 -12.1875 L 3.609375 0 Z M 1.59375 0 "/></g></g></g><g fill="#000000" fill-opacity="1"><g transform="translate(237.532911, 17.224506)"><g><path d="M 11.78125 0 L 9.3125 0 L 3.34375 -9.734375 L 3.265625 -9.734375 C 3.285156 -9.398438 3.304688 -9.050781 3.328125 -8.6875 C 3.347656 -8.320312 3.363281 -7.941406 3.375 -7.546875 C 3.394531 -7.160156 3.410156 -6.769531 3.421875 -6.375 L 3.421875 0 L 1.59375 0 L 1.59375 -12.1875 L 4.046875 -12.1875 L 10 -2.53125 L 10.0625 -2.53125 C 10.050781 -2.8125 10.035156 -3.132812 10.015625 -3.5 C 10.003906 -3.863281 9.988281 -4.242188 9.96875 -4.640625 C 9.957031 -5.035156 9.953125 -5.414062 9.953125 -5.78125 L 9.953125 -12.1875 L 11.78125 -12.1875 Z M 11.78125 0 "/></g></g></g><g fill="#000000" fill-opacity="1"><g transform="translate(254.321492, 17.224506)"><g><path d="M 8.5 0 L 1.59375 0 L 1.59375 -12.1875 L 8.5 -12.1875 L 8.5 -10.5 L 3.609375 -10.5 L 3.609375 -7.203125 L 8.203125 -7.203125 L 8.203125 -5.515625 L 3.609375 -5.515625 L 3.609375 -1.6875 L 8.5 -1.6875 Z M 8.5 0 "/></g></g></g></g></g><g clip-path="url(#5d1bf5c693)"><g transform="matrix(1, 0, 0, 1, -0.000000000000000888, -0.000000000000001776)"><g clip-path="url(#b521bd7219)"><g fill="#000000" fill-opacity="1"><g transform="translate(0.979612, 41.371956)"><g><path d="M 14.8125 0 L 1.96875 0 L 1.96875 -39.765625 L 14.8125 -39.765625 C 17.519531 -39.765625 20.054688 -39.25 22.421875 -38.21875 C 24.785156 -37.1875 26.878906 -35.757812 28.703125 -33.9375 C 30.523438 -32.113281 31.953125 -30 32.984375 -27.59375 C 34.015625 -25.195312 34.53125 -22.609375 34.53125 -19.828125 C 34.53125 -17.085938 34.015625 -14.515625 32.984375 -12.109375 C 31.953125 -9.703125 30.523438 -7.585938 28.703125 -5.765625 C 26.878906 -3.953125 24.785156 -2.535156 22.421875 -1.515625 C 20.054688 -0.503906 17.519531 0 14.8125 0 Z M 6.359375 -39.375 L 6.359375 -0.453125 L 14.8125 -0.453125 C 16.957031 -0.453125 18.96875 -0.945312 20.84375 -1.9375 C 22.71875 -2.9375 24.367188 -4.328125 25.796875 -6.109375 C 27.222656 -7.890625 28.335938 -9.941406 29.140625 -12.265625 C 29.953125 -14.597656 30.359375 -17.117188 30.359375 -19.828125 C 30.359375 -22.535156 29.953125 -25.0625 29.140625 -27.40625 C 28.335938 -29.75 27.222656 -31.820312 25.796875 -33.625 C 24.367188 -35.425781 22.71875 -36.832031 20.84375 -37.84375 C 18.96875 -38.863281 16.957031 -39.375 14.8125 -39.375 Z M 6.359375 -39.375 "/></g></g></g><g fill="#000000" fill-opacity="1"><g transform="translate(39.555468, 41.371956)"><g><path d="M 1.96875 0 L 1.96875 -39.765625 L 6.203125 -39.765625 L 6.203125 0 Z M 1.96875 0 "/></g></g></g><g fill="#000000" fill-opacity="1"><g transform="translate(49.805426, 41.371956)"><g><path d="M 35.484375 -39.828125 L 36.046875 -39.828125 L 33.125 -32.953125 L 19.203125 0 L 18.75 0 L 1.96875 -39.828125 L 6.59375 -39.828125 L 21.0625 -5.625 L 23.265625 -10.984375 Z M 35.484375 -39.828125 "/></g></g></g><g fill="#000000" fill-opacity="1"><g transform="translate(89.901759, 41.371956)"><g><path d="M 1.96875 0 L 1.96875 -39.765625 L 6.203125 -39.765625 L 6.203125 0 Z M 1.96875 0 "/></g></g></g><g fill="#000000" fill-opacity="1"><g transform="translate(100.151717, 41.371956)"><g><path d="M 1.96875 -39.765625 L 6.203125 -39.765625 C 9.273438 -39.765625 12.003906 -38.722656 14.390625 -36.640625 C 16.773438 -34.554688 18.773438 -31.878906 20.390625 -28.609375 C 22.046875 -25.535156 23.359375 -22.148438 24.328125 -18.453125 C 25.304688 -14.753906 26.003906 -11.082031 26.421875 -7.4375 L 26.421875 -39.765625 L 30.640625 -39.765625 L 30.640625 0 L 26.421875 0 C 26.421875 -3 26.1875 -6.171875 25.71875 -9.515625 C 25.25 -12.859375 24.550781 -16.160156 23.625 -19.421875 C 22.707031 -22.691406 21.554688 -25.679688 20.171875 -28.390625 C 18.472656 -31.617188 16.476562 -34.253906 14.1875 -36.296875 C 11.90625 -38.347656 9.242188 -39.375 6.203125 -39.375 L 6.203125 0 L 1.96875 0 Z M 1.96875 -39.765625 "/></g></g></g><g fill="#000000" fill-opacity="1"><g transform="translate(134.841909, 41.371956)"><g><path d="M 6.3125 -26.53125 L 6.3125 -0.453125 L 15.828125 -0.453125 C 18.265625 -0.453125 20.265625 -1.050781 21.828125 -2.25 C 23.390625 -3.457031 24.675781 -5.488281 25.6875 -8.34375 L 24.390625 0 L 1.96875 0 L 1.96875 -39.765625 L 24.734375 -39.765625 L 24.734375 -35.265625 C 23.410156 -36.535156 22.128906 -37.460938 20.890625 -38.046875 C 19.648438 -38.628906 18.25 -38.992188 16.6875 -39.140625 C 15.132812 -39.296875 13.210938 -39.375 10.921875 -39.375 L 6.3125 -39.375 L 6.3125 -30.25 C 6.3125 -27.695312 6.742188 -25.742188 7.609375 -24.390625 C 8.472656 -23.035156 9.765625 -22.125 11.484375 -21.65625 C 13.210938 -21.1875 15.375 -20.953125 17.96875 -20.953125 L 17.96875 -16.5 C 17.144531 -17.4375 16.160156 -18.175781 15.015625 -18.71875 C 13.867188 -19.269531 12.703125 -19.835938 11.515625 -20.421875 C 10.335938 -21.003906 9.273438 -21.753906 8.328125 -22.671875 C 7.390625 -23.585938 6.71875 -24.875 6.3125 -26.53125 Z M 6.3125 -26.53125 "/></g></g></g><g fill="#000000" fill-opacity="1"><g transform="translate(164.576489, 41.371956)"><g/></g></g><g fill="#000000" fill-opacity="1"><g transform="translate(182.372518, 41.371956)"><g><path d="M 14.8125 0 L 1.96875 0 L 1.96875 -39.765625 L 14.8125 -39.765625 C 17.519531 -39.765625 20.054688 -39.25 22.421875 -38.21875 C 24.785156 -37.1875 26.878906 -35.757812 28.703125 -33.9375 C 30.523438 -32.113281 31.953125 -30 32.984375 -27.59375 C 34.015625 -25.195312 34.53125 -22.609375 34.53125 -19.828125 C 34.53125 -17.085938 34.015625 -14.515625 32.984375 -12.109375 C 31.953125 -9.703125 30.523438 -7.585938 28.703125 -5.765625 C 26.878906 -3.953125 24.785156 -2.535156 22.421875 -1.515625 C 20.054688 -0.503906 17.519531 0 14.8125 0 Z M 6.359375 -39.375 L 6.359375 -0.453125 L 14.8125 -0.453125 C 16.957031 -0.453125 18.96875 -0.945312 20.84375 -1.9375 C 22.71875 -2.9375 24.367188 -4.328125 25.796875 -6.109375 C 27.222656 -7.890625 28.335938 -9.941406 29.140625 -12.265625 C 29.953125 -14.597656 30.359375 -17.117188 30.359375 -19.828125 C 30.359375 -22.535156 29.953125 -25.0625 29.140625 -27.40625 C 28.335938 -29.75 27.222656 -31.820312 25.796875 -33.625 C 24.367188 -35.425781 22.71875 -36.832031 20.84375 -37.84375 C 18.96875 -38.863281 16.957031 -39.375 14.8125 -39.375 Z M 6.359375 -39.375 "/></g></g></g><g fill="#000000" fill-opacity="1"><g transform="translate(220.948374, 41.371956)"><g><path d="M 6.3125 -26.53125 L 6.3125 -0.453125 L 15.828125 -0.453125 C 18.265625 -0.453125 20.265625 -1.050781 21.828125 -2.25 C 23.390625 -3.457031 24.675781 -5.488281 25.6875 -8.34375 L 24.390625 0 L 1.96875 0 L 1.96875 -39.765625 L 24.734375 -39.765625 L 24.734375 -35.265625 C 23.410156 -36.535156 22.128906 -37.460938 20.890625 -38.046875 C 19.648438 -38.628906 18.25 -38.992188 16.6875 -39.140625 C 15.132812 -39.296875 13.210938 -39.375 10.921875 -39.375 L 6.3125 -39.375 L 6.3125 -30.25 C 6.3125 -27.695312 6.742188 -25.742188 7.609375 -24.390625 C 8.472656 -23.035156 9.765625 -22.125 11.484375 -21.65625 C 13.210938 -21.1875 15.375 -20.953125 17.96875 -20.953125 L 17.96875 -16.5 C 17.144531 -17.4375 16.160156 -18.175781 15.015625 -18.71875 C 13.867188 -19.269531 12.703125 -19.835938 11.515625 -20.421875 C 10.335938 -21.003906 9.273438 -21.753906 8.328125 -22.671875 C 7.390625 -23.585938 6.71875 -24.875 6.3125 -26.53125 Z M 6.3125 -26.53125 "/></g></g></g><g fill="#000000" fill-opacity="1"><g transform="translate(250.682954, 41.371956)"><g><path d="M 15.375 0 L 15.375 -39.375 C 13.382812 -39.375 11.609375 -39.285156 10.046875 -39.109375 C 8.492188 -38.941406 7.066406 -38.585938 5.765625 -38.046875 C 4.472656 -37.503906 3.207031 -36.632812 1.96875 -35.4375 L 1.96875 -39.828125 L 33.125 -39.828125 L 33.125 -35.4375 C 31.84375 -36.632812 30.550781 -37.503906 29.25 -38.046875 C 27.957031 -38.585938 26.539062 -38.941406 25 -39.109375 C 23.46875 -39.285156 21.707031 -39.375 19.71875 -39.375 L 19.71875 0 Z M 15.375 0 "/></g></g></g><g fill="#000000" fill-opacity="1"><g transform="translate(287.850969, 41.371956)"><g><path d="M 29.34375 0 L 22.984375 -15.265625 C 20.578125 -15.035156 18.59375 -14.546875 17.03125 -13.796875 C 15.476562 -13.046875 14.222656 -12.132812 13.265625 -11.0625 C 12.304688 -10 11.535156 -8.882812 10.953125 -7.71875 C 10.367188 -6.550781 9.851562 -5.460938 9.40625 -4.453125 C 8.882812 -3.054688 8.3125 -1.898438 7.6875 -0.984375 C 7.070312 -0.0664062 6.125 0.375 4.84375 0.34375 C 4.695312 0.300781 4.554688 0.257812 4.421875 0.21875 C 4.285156 0.1875 4.125 0.09375 3.9375 -0.0625 C 2.40625 -0.726562 1.785156 -2.359375 2.078125 -4.953125 C 2.234375 -6.191406 2.507812 -7.585938 2.90625 -9.140625 C 3.300781 -10.703125 3.832031 -12.382812 4.5 -14.1875 C 5.519531 -16.894531 6.710938 -19.757812 8.078125 -22.78125 C 9.453125 -25.800781 10.898438 -28.785156 12.421875 -31.734375 C 13.941406 -34.679688 15.414062 -37.359375 16.84375 -39.765625 L 17.234375 -39.765625 L 34.078125 0 Z M 22.8125 -15.65625 L 14.53125 -34.921875 C 12.800781 -31.617188 11.0625 -28.132812 9.3125 -24.46875 C 7.570312 -20.8125 6.101562 -17.347656 4.90625 -14.078125 C 4.226562 -12.273438 3.691406 -10.601562 3.296875 -9.0625 C 2.898438 -7.53125 2.628906 -6.160156 2.484375 -4.953125 C 2.441406 -3.785156 2.53125 -2.796875 2.75 -1.984375 C 2.976562 -1.179688 3.429688 -0.671875 4.109375 -0.453125 C 4.296875 -0.410156 4.4375 -0.367188 4.53125 -0.328125 C 4.625 -0.296875 4.75 -0.242188 4.90625 -0.171875 C 6.03125 -0.0976562 6.875 -0.488281 7.4375 -1.34375 C 8 -2.207031 8.503906 -3.28125 8.953125 -4.5625 C 9.398438 -5.613281 9.925781 -6.726562 10.53125 -7.90625 C 11.132812 -9.09375 11.929688 -10.226562 12.921875 -11.3125 C 13.921875 -12.40625 15.207031 -13.347656 16.78125 -14.140625 C 18.363281 -14.929688 20.375 -15.4375 22.8125 -15.65625 Z M 22.8125 -15.65625 "/></g></g></g><g fill="#000000" fill-opacity="1"><g transform="translate(325.976294, 41.371956)"><g><path d="M 1.96875 0 L 1.96875 -39.765625 L 6.203125 -39.765625 L 6.203125 0 Z M 1.96875 0 "/></g></g></g><g fill="#000000" fill-opacity="1"><g transform="translate(336.226287, 41.371956)"><g><path d="M 25.796875 -8.34375 L 24.453125 0 L 1.96875 0 L 1.96875 -39.765625 L 6.484375 -39.765625 L 6.484375 -0.453125 L 16 -0.453125 C 18.4375 -0.453125 20.414062 -1.050781 21.9375 -2.25 C 23.457031 -3.457031 24.742188 -5.488281 25.796875 -8.34375 Z M 25.796875 -8.34375 "/></g></g></g></g></g></g></g></g></svg>