<svg xmlns="http://www.w3.org/2000/svg" xmlns:xlink="http://www.w3.org/1999/xlink" width="500" zoomAndPan="magnify" viewBox="0 0 375 374.999991" height="500" preserveAspectRatio="xMidYMid meet" version="1.0"><defs><g/></defs><rect x="-37.5" width="450" fill="#ffffff" y="-37.499999" height="449.999989" fill-opacity="1"/><rect x="-37.5" width="450" fill="#f7f0ef" y="-37.499999" height="449.999989" fill-opacity="1"/><g fill="#d68e85" fill-opacity="1"><g transform="translate(101.054594, 360.019166)"><g><path d="M 105.515625 0 L 14.046875 0 L 14.046875 -283.234375 L 105.515625 -283.234375 C 124.765625 -283.234375 142.8125 -279.550781 159.65625 -272.1875 C 176.507812 -264.832031 191.421875 -254.671875 204.390625 -241.703125 C 217.367188 -228.734375 227.535156 -213.691406 234.890625 -196.578125 C 242.242188 -179.460938 245.921875 -161.007812 245.921875 -141.21875 C 245.921875 -121.6875 242.242188 -103.363281 234.890625 -86.25 C 227.535156 -69.132812 217.367188 -54.085938 204.390625 -41.109375 C 191.421875 -28.140625 176.507812 -18.046875 159.65625 -10.828125 C 142.8125 -3.609375 124.765625 0 105.515625 0 Z M 45.328125 -280.421875 L 45.328125 -3.203125 L 105.515625 -3.203125 C 120.753906 -3.203125 135.0625 -6.742188 148.4375 -13.828125 C 161.8125 -20.921875 173.578125 -30.816406 183.734375 -43.515625 C 193.898438 -56.222656 201.859375 -70.867188 207.609375 -87.453125 C 213.359375 -104.035156 216.234375 -121.957031 216.234375 -141.21875 C 216.234375 -160.46875 213.359375 -178.453125 207.609375 -195.171875 C 201.859375 -211.890625 193.898438 -226.664062 183.734375 -239.5 C 173.578125 -252.332031 161.8125 -262.359375 148.4375 -269.578125 C 135.0625 -276.804688 120.753906 -280.421875 105.515625 -280.421875 Z M 45.328125 -280.421875 "/></g></g></g><g fill="#d68e85" fill-opacity="1"><g transform="translate(17.836053, 300.264947)"><g><path d="M 105.515625 0 L 14.046875 0 L 14.046875 -283.234375 L 105.515625 -283.234375 C 124.765625 -283.234375 142.8125 -279.550781 159.65625 -272.1875 C 176.507812 -264.832031 191.421875 -254.671875 204.390625 -241.703125 C 217.367188 -228.734375 227.535156 -213.691406 234.890625 -196.578125 C 242.242188 -179.460938 245.921875 -161.007812 245.921875 -141.21875 C 245.921875 -121.6875 242.242188 -103.363281 234.890625 -86.25 C 227.535156 -69.132812 217.367188 -54.085938 204.390625 -41.109375 C 191.421875 -28.140625 176.507812 -18.046875 159.65625 -10.828125 C 142.8125 -3.609375 124.765625 0 105.515625 0 Z M 45.328125 -280.421875 L 45.328125 -3.203125 L 105.515625 -3.203125 C 120.753906 -3.203125 135.0625 -6.742188 148.4375 -13.828125 C 161.8125 -20.921875 173.578125 -30.816406 183.734375 -43.515625 C 193.898438 -56.222656 201.859375 -70.867188 207.609375 -87.453125 C 213.359375 -104.035156 216.234375 -121.957031 216.234375 -141.21875 C 216.234375 -160.46875 213.359375 -178.453125 207.609375 -195.171875 C 201.859375 -211.890625 193.898438 -226.664062 183.734375 -239.5 C 173.578125 -252.332031 161.8125 -262.359375 148.4375 -269.578125 C 135.0625 -276.804688 120.753906 -280.421875 105.515625 -280.421875 Z M 45.328125 -280.421875 "/></g></g></g></svg>