<svg xmlns="http://www.w3.org/2000/svg" xmlns:xlink="http://www.w3.org/1999/xlink" width="1080" zoomAndPan="magnify" viewBox="0 0 810 449.999984" height="600" preserveAspectRatio="xMidYMid meet" version="1.0"><defs><g/><clipPath id="7b98d4b51d"><path d="M 0.0390625 284 L 792.28125 284 L 792.28125 407 L 0.0390625 407 Z M 0.0390625 284 " clip-rule="nonzero"/></clipPath><clipPath id="c9cf2bff5e"><rect x="0" width="793" y="0" height="123"/></clipPath><clipPath id="558aec10db"><rect x="0" width="793" y="0" height="445"/></clipPath></defs><rect x="-81" width="972" fill="#ffffff" y="-44.999998" height="539.99998" fill-opacity="1"/><rect x="-81" width="972" fill="#fcf7f7" y="-44.999998" height="539.99998" fill-opacity="1"/><g transform="matrix(1, 0, 0, 1, 11, 0)"><g clip-path="url(#558aec10db)"><g fill="#d68e85" fill-opacity="1"><g transform="translate(138.467718, 434.262391)"><g><path d="M 13.34375 0 L 6.515625 -19.8125 L 6.375 -19.8125 C 6.40625 -19.363281 6.441406 -18.753906 6.484375 -17.984375 C 6.523438 -17.222656 6.5625 -16.398438 6.59375 -15.515625 C 6.632812 -14.640625 6.65625 -13.804688 6.65625 -13.015625 L 6.65625 0 L 3.109375 0 L 3.109375 -23.71875 L 8.578125 -23.71875 L 15.15625 -4.78125 L 15.25 -4.78125 L 22.046875 -23.71875 L 27.5 -23.71875 L 27.5 0 L 23.78125 0 L 23.78125 -13.203125 C 23.78125 -13.929688 23.789062 -14.710938 23.8125 -15.546875 C 23.84375 -16.390625 23.875 -17.191406 23.90625 -17.953125 C 23.945312 -18.710938 23.976562 -19.316406 24 -19.765625 L 23.875 -19.765625 L 16.78125 0 Z M 13.34375 0 "/></g></g></g><g fill="#d68e85" fill-opacity="1"><g transform="translate(175.711584, 434.262391)"><g><path d="M 24.171875 -11.890625 C 24.171875 -10.054688 23.941406 -8.390625 23.484375 -6.890625 C 23.023438 -5.398438 22.332031 -4.113281 21.40625 -3.03125 C 20.488281 -1.957031 19.335938 -1.128906 17.953125 -0.546875 C 16.566406 0.0351562 14.945312 0.328125 13.09375 0.328125 C 11.195312 0.328125 9.550781 0.0351562 8.15625 -0.546875 C 6.769531 -1.128906 5.617188 -1.960938 4.703125 -3.046875 C 3.796875 -4.128906 3.113281 -5.421875 2.65625 -6.921875 C 2.207031 -8.429688 1.984375 -10.097656 1.984375 -11.921875 C 1.984375 -14.367188 2.382812 -16.5 3.1875 -18.3125 C 3.988281 -20.132812 5.210938 -21.550781 6.859375 -22.5625 C 8.515625 -23.582031 10.601562 -24.09375 13.125 -24.09375 C 15.582031 -24.09375 17.628906 -23.585938 19.265625 -22.578125 C 20.898438 -21.566406 22.125 -20.148438 22.9375 -18.328125 C 23.757812 -16.515625 24.171875 -14.367188 24.171875 -11.890625 Z M 6.0625 -11.890625 C 6.0625 -10.054688 6.3125 -8.472656 6.8125 -7.140625 C 7.3125 -5.804688 8.078125 -4.78125 9.109375 -4.0625 C 10.140625 -3.34375 11.46875 -2.984375 13.09375 -2.984375 C 14.71875 -2.984375 16.046875 -3.34375 17.078125 -4.0625 C 18.109375 -4.78125 18.863281 -5.804688 19.34375 -7.140625 C 19.832031 -8.472656 20.078125 -10.054688 20.078125 -11.890625 C 20.078125 -14.671875 19.519531 -16.847656 18.40625 -18.421875 C 17.300781 -19.992188 15.539062 -20.78125 13.125 -20.78125 C 11.5 -20.78125 10.164062 -20.421875 9.125 -19.703125 C 8.082031 -18.992188 7.3125 -17.972656 6.8125 -16.640625 C 6.3125 -15.316406 6.0625 -13.734375 6.0625 -11.890625 Z M 6.0625 -11.890625 "/></g></g></g><g fill="#d68e85" fill-opacity="1"><g transform="translate(208.496225, 434.262391)"><g><path d="M 13.34375 0 L 6.515625 -19.8125 L 6.375 -19.8125 C 6.40625 -19.363281 6.441406 -18.753906 6.484375 -17.984375 C 6.523438 -17.222656 6.5625 -16.398438 6.59375 -15.515625 C 6.632812 -14.640625 6.65625 -13.804688 6.65625 -13.015625 L 6.65625 0 L 3.109375 0 L 3.109375 -23.71875 L 8.578125 -23.71875 L 15.15625 -4.78125 L 15.25 -4.78125 L 22.046875 -23.71875 L 27.5 -23.71875 L 27.5 0 L 23.78125 0 L 23.78125 -13.203125 C 23.78125 -13.929688 23.789062 -14.710938 23.8125 -15.546875 C 23.84375 -16.390625 23.875 -17.191406 23.90625 -17.953125 C 23.945312 -18.710938 23.976562 -19.316406 24 -19.765625 L 23.875 -19.765625 L 16.78125 0 Z M 13.34375 0 "/></g></g></g><g fill="#d68e85" fill-opacity="1"><g transform="translate(245.740092, 434.262391)"><g><path d="M 16.546875 0 L 3.109375 0 L 3.109375 -23.71875 L 16.546875 -23.71875 L 16.546875 -20.4375 L 7 -20.4375 L 7 -14 L 15.9375 -14 L 15.9375 -10.734375 L 7 -10.734375 L 7 -3.296875 L 16.546875 -3.296875 Z M 16.546875 0 "/></g></g></g><g fill="#d68e85" fill-opacity="1"><g transform="translate(270.919727, 434.262391)"><g><path d="M 22.90625 0 L 18.125 0 L 6.5 -18.921875 L 6.359375 -18.921875 C 6.398438 -18.285156 6.4375 -17.609375 6.46875 -16.890625 C 6.507812 -16.179688 6.546875 -15.445312 6.578125 -14.6875 C 6.609375 -13.9375 6.632812 -13.171875 6.65625 -12.390625 L 6.65625 0 L 3.109375 0 L 3.109375 -23.71875 L 7.859375 -23.71875 L 19.46875 -4.921875 L 19.578125 -4.921875 C 19.554688 -5.460938 19.53125 -6.09375 19.5 -6.8125 C 19.46875 -7.53125 19.4375 -8.269531 19.40625 -9.03125 C 19.375 -9.789062 19.351562 -10.523438 19.34375 -11.234375 L 19.34375 -23.71875 L 22.90625 -23.71875 Z M 22.90625 0 "/></g></g></g><g fill="#d68e85" fill-opacity="1"><g transform="translate(303.574645, 434.262391)"><g><path d="M 11.34375 0 L 7.421875 0 L 7.421875 -20.40625 L 0.484375 -20.40625 L 0.484375 -23.71875 L 18.265625 -23.71875 L 18.265625 -20.40625 L 11.34375 -20.40625 Z M 11.34375 0 "/></g></g></g><g fill="#d68e85" fill-opacity="1"><g transform="translate(328.981296, 434.262391)"><g><path d="M 16.796875 -6.453125 C 16.796875 -5.046875 16.453125 -3.832031 15.765625 -2.8125 C 15.085938 -1.800781 14.109375 -1.023438 12.828125 -0.484375 C 11.546875 0.0546875 10.015625 0.328125 8.234375 0.328125 C 7.367188 0.328125 6.539062 0.273438 5.75 0.171875 C 4.96875 0.078125 4.226562 -0.0625 3.53125 -0.25 C 2.832031 -0.4375 2.195312 -0.664062 1.625 -0.9375 L 1.625 -4.609375 C 2.582031 -4.179688 3.65625 -3.796875 4.84375 -3.453125 C 6.039062 -3.117188 7.253906 -2.953125 8.484375 -2.953125 C 9.484375 -2.953125 10.316406 -3.082031 10.984375 -3.34375 C 11.648438 -3.613281 12.144531 -3.992188 12.46875 -4.484375 C 12.789062 -4.972656 12.953125 -5.550781 12.953125 -6.21875 C 12.953125 -6.914062 12.765625 -7.503906 12.390625 -7.984375 C 12.015625 -8.472656 11.441406 -8.921875 10.671875 -9.328125 C 9.910156 -9.734375 8.957031 -10.171875 7.8125 -10.640625 C 7.039062 -10.953125 6.300781 -11.304688 5.59375 -11.703125 C 4.882812 -12.109375 4.253906 -12.582031 3.703125 -13.125 C 3.148438 -13.664062 2.710938 -14.304688 2.390625 -15.046875 C 2.066406 -15.785156 1.90625 -16.65625 1.90625 -17.65625 C 1.90625 -19 2.226562 -20.144531 2.875 -21.09375 C 3.519531 -22.050781 4.425781 -22.78125 5.59375 -23.28125 C 6.769531 -23.789062 8.144531 -24.046875 9.71875 -24.046875 C 10.957031 -24.046875 12.125 -23.914062 13.21875 -23.65625 C 14.320312 -23.40625 15.40625 -23.039062 16.46875 -22.5625 L 15.234375 -19.4375 C 14.253906 -19.832031 13.304688 -20.148438 12.390625 -20.390625 C 11.484375 -20.628906 10.554688 -20.75 9.609375 -20.75 C 8.785156 -20.75 8.085938 -20.625 7.515625 -20.375 C 6.941406 -20.125 6.503906 -19.773438 6.203125 -19.328125 C 5.910156 -18.878906 5.765625 -18.347656 5.765625 -17.734375 C 5.765625 -17.035156 5.929688 -16.453125 6.265625 -15.984375 C 6.609375 -15.515625 7.140625 -15.082031 7.859375 -14.6875 C 8.578125 -14.300781 9.503906 -13.867188 10.640625 -13.390625 C 11.953125 -12.859375 13.0625 -12.289062 13.96875 -11.6875 C 14.882812 -11.09375 15.582031 -10.382812 16.0625 -9.5625 C 16.550781 -8.738281 16.796875 -7.703125 16.796875 -6.453125 Z M 16.796875 -6.453125 "/></g></g></g><g fill="#d68e85" fill-opacity="1"><g transform="translate(353.885271, 434.262391)"><g/></g></g><g fill="#d68e85" fill-opacity="1"><g transform="translate(369.157319, 434.262391)"><g><path d="M 13.34375 0 L 6.515625 -19.8125 L 6.375 -19.8125 C 6.40625 -19.363281 6.441406 -18.753906 6.484375 -17.984375 C 6.523438 -17.222656 6.5625 -16.398438 6.59375 -15.515625 C 6.632812 -14.640625 6.65625 -13.804688 6.65625 -13.015625 L 6.65625 0 L 3.109375 0 L 3.109375 -23.71875 L 8.578125 -23.71875 L 15.15625 -4.78125 L 15.25 -4.78125 L 22.046875 -23.71875 L 27.5 -23.71875 L 27.5 0 L 23.78125 0 L 23.78125 -13.203125 C 23.78125 -13.929688 23.789062 -14.710938 23.8125 -15.546875 C 23.84375 -16.390625 23.875 -17.191406 23.90625 -17.953125 C 23.945312 -18.710938 23.976562 -19.316406 24 -19.765625 L 23.875 -19.765625 L 16.78125 0 Z M 13.34375 0 "/></g></g></g><g fill="#d68e85" fill-opacity="1"><g transform="translate(406.401185, 434.262391)"><g><path d="M 17.8125 0 L 15.484375 -6.578125 L 6.421875 -6.578125 L 4.109375 0 L 0 0 L 8.828125 -23.8125 L 13.140625 -23.8125 L 21.953125 0 Z M 14.484375 -9.921875 L 12.234375 -16.421875 C 12.140625 -16.703125 12.007812 -17.097656 11.84375 -17.609375 C 11.6875 -18.117188 11.523438 -18.640625 11.359375 -19.171875 C 11.203125 -19.710938 11.070312 -20.164062 10.96875 -20.53125 C 10.851562 -20.09375 10.71875 -19.597656 10.5625 -19.046875 C 10.40625 -18.503906 10.253906 -17.992188 10.109375 -17.515625 C 9.960938 -17.035156 9.851562 -16.671875 9.78125 -16.421875 L 7.515625 -9.921875 Z M 14.484375 -9.921875 "/></g></g></g><g fill="#d68e85" fill-opacity="1"><g transform="translate(435.002263, 434.262391)"><g><path d="M 22.375 -12.078125 C 22.375 -9.410156 21.875 -7.179688 20.875 -5.390625 C 19.882812 -3.597656 18.441406 -2.25 16.546875 -1.34375 C 14.648438 -0.445312 12.367188 0 9.703125 0 L 3.109375 0 L 3.109375 -23.71875 L 10.40625 -23.71875 C 12.863281 -23.71875 14.984375 -23.273438 16.765625 -22.390625 C 18.554688 -21.503906 19.9375 -20.195312 20.90625 -18.46875 C 21.882812 -16.75 22.375 -14.617188 22.375 -12.078125 Z M 18.3125 -11.96875 C 18.3125 -13.914062 18.003906 -15.515625 17.390625 -16.765625 C 16.785156 -18.023438 15.890625 -18.957031 14.703125 -19.5625 C 13.515625 -20.175781 12.054688 -20.484375 10.328125 -20.484375 L 7 -20.484375 L 7 -3.265625 L 9.765625 -3.265625 C 12.628906 -3.265625 14.769531 -3.992188 16.1875 -5.453125 C 17.601562 -6.910156 18.3125 -9.082031 18.3125 -11.96875 Z M 18.3125 -11.96875 "/></g></g></g><g fill="#d68e85" fill-opacity="1"><g transform="translate(465.986998, 434.262391)"><g><path d="M 16.546875 0 L 3.109375 0 L 3.109375 -23.71875 L 16.546875 -23.71875 L 16.546875 -20.4375 L 7 -20.4375 L 7 -14 L 15.9375 -14 L 15.9375 -10.734375 L 7 -10.734375 L 7 -3.296875 L 16.546875 -3.296875 Z M 16.546875 0 "/></g></g></g><g fill="#d68e85" fill-opacity="1"><g transform="translate(491.166634, 434.262391)"><g/></g></g><g fill="#d68e85" fill-opacity="1"><g transform="translate(506.438682, 434.262391)"><g><path d="M 22.375 -12.078125 C 22.375 -9.410156 21.875 -7.179688 20.875 -5.390625 C 19.882812 -3.597656 18.441406 -2.25 16.546875 -1.34375 C 14.648438 -0.445312 12.367188 0 9.703125 0 L 3.109375 0 L 3.109375 -23.71875 L 10.40625 -23.71875 C 12.863281 -23.71875 14.984375 -23.273438 16.765625 -22.390625 C 18.554688 -21.503906 19.9375 -20.195312 20.90625 -18.46875 C 21.882812 -16.75 22.375 -14.617188 22.375 -12.078125 Z M 18.3125 -11.96875 C 18.3125 -13.914062 18.003906 -15.515625 17.390625 -16.765625 C 16.785156 -18.023438 15.890625 -18.957031 14.703125 -19.5625 C 13.515625 -20.175781 12.054688 -20.484375 10.328125 -20.484375 L 7 -20.484375 L 7 -3.265625 L 9.765625 -3.265625 C 12.628906 -3.265625 14.769531 -3.992188 16.1875 -5.453125 C 17.601562 -6.910156 18.3125 -9.082031 18.3125 -11.96875 Z M 18.3125 -11.96875 "/></g></g></g><g fill="#d68e85" fill-opacity="1"><g transform="translate(537.423418, 434.262391)"><g><path d="M 3.109375 0 L 3.109375 -23.71875 L 7 -23.71875 L 7 0 Z M 3.109375 0 "/></g></g></g><g fill="#d68e85" fill-opacity="1"><g transform="translate(554.203495, 434.262391)"><g><path d="M 20.703125 -23.71875 L 12.40625 0 L 8.28125 0 L 0 -23.71875 L 3.984375 -23.71875 L 8.984375 -8.859375 C 9.140625 -8.421875 9.304688 -7.894531 9.484375 -7.28125 C 9.660156 -6.664062 9.828125 -6.046875 9.984375 -5.421875 C 10.140625 -4.796875 10.257812 -4.238281 10.34375 -3.75 C 10.4375 -4.238281 10.5625 -4.796875 10.71875 -5.421875 C 10.875 -6.046875 11.035156 -6.664062 11.203125 -7.28125 C 11.378906 -7.894531 11.539062 -8.425781 11.6875 -8.875 L 16.703125 -23.71875 Z M 20.703125 -23.71875 "/></g></g></g><g fill="#d68e85" fill-opacity="1"><g transform="translate(581.539774, 434.262391)"><g><path d="M 3.109375 0 L 3.109375 -23.71875 L 7 -23.71875 L 7 0 Z M 3.109375 0 "/></g></g></g><g fill="#d68e85" fill-opacity="1"><g transform="translate(598.319851, 434.262391)"><g><path d="M 22.90625 0 L 18.125 0 L 6.5 -18.921875 L 6.359375 -18.921875 C 6.398438 -18.285156 6.4375 -17.609375 6.46875 -16.890625 C 6.507812 -16.179688 6.546875 -15.445312 6.578125 -14.6875 C 6.609375 -13.9375 6.632812 -13.171875 6.65625 -12.390625 L 6.65625 0 L 3.109375 0 L 3.109375 -23.71875 L 7.859375 -23.71875 L 19.46875 -4.921875 L 19.578125 -4.921875 C 19.554688 -5.460938 19.53125 -6.09375 19.5 -6.8125 C 19.46875 -7.53125 19.4375 -8.269531 19.40625 -9.03125 C 19.375 -9.789062 19.351562 -10.523438 19.34375 -11.234375 L 19.34375 -23.71875 L 22.90625 -23.71875 Z M 22.90625 0 "/></g></g></g><g fill="#d68e85" fill-opacity="1"><g transform="translate(630.974769, 434.262391)"><g><path d="M 16.546875 0 L 3.109375 0 L 3.109375 -23.71875 L 16.546875 -23.71875 L 16.546875 -20.4375 L 7 -20.4375 L 7 -14 L 15.9375 -14 L 15.9375 -10.734375 L 7 -10.734375 L 7 -3.296875 L 16.546875 -3.296875 Z M 16.546875 0 "/></g></g></g><g fill="#d68e85" fill-opacity="1"><g transform="translate(273.578364, 200.732341)"><g><path d="M 72.078125 0 L 9.59375 0 L 9.59375 -193.484375 L 72.078125 -193.484375 C 85.234375 -193.484375 97.566406 -190.972656 109.078125 -185.953125 C 120.585938 -180.929688 130.769531 -173.988281 139.625 -165.125 C 148.488281 -156.257812 155.429688 -145.976562 160.453125 -134.28125 C 165.484375 -122.59375 168 -109.988281 168 -96.46875 C 168 -83.132812 165.484375 -70.617188 160.453125 -58.921875 C 155.429688 -47.234375 148.488281 -36.957031 139.625 -28.09375 C 130.769531 -19.226562 120.585938 -12.328125 109.078125 -7.390625 C 97.566406 -2.460938 85.234375 0 72.078125 0 Z M 30.96875 -191.5625 L 30.96875 -2.1875 L 72.078125 -2.1875 C 82.492188 -2.1875 92.269531 -4.609375 101.40625 -9.453125 C 110.539062 -14.296875 118.578125 -21.054688 125.515625 -29.734375 C 132.460938 -38.410156 137.898438 -48.410156 141.828125 -59.734375 C 145.753906 -71.066406 147.71875 -83.3125 147.71875 -96.46875 C 147.71875 -109.625 145.753906 -121.910156 141.828125 -133.328125 C 137.898438 -144.742188 132.460938 -154.835938 125.515625 -163.609375 C 118.578125 -172.378906 110.539062 -179.226562 101.40625 -184.15625 C 92.269531 -189.09375 82.492188 -191.5625 72.078125 -191.5625 Z M 30.96875 -191.5625 "/></g></g></g><g fill="#d68e85" fill-opacity="1"><g transform="translate(342.913186, 253.359175)"><g><path d="M 72.078125 0 L 9.59375 0 L 9.59375 -193.484375 L 72.078125 -193.484375 C 85.234375 -193.484375 97.566406 -190.972656 109.078125 -185.953125 C 120.585938 -180.929688 130.769531 -173.988281 139.625 -165.125 C 148.488281 -156.257812 155.429688 -145.976562 160.453125 -134.28125 C 165.484375 -122.59375 168 -109.988281 168 -96.46875 C 168 -83.132812 165.484375 -70.617188 160.453125 -58.921875 C 155.429688 -47.234375 148.488281 -36.957031 139.625 -28.09375 C 130.769531 -19.226562 120.585938 -12.328125 109.078125 -7.390625 C 97.566406 -2.460938 85.234375 0 72.078125 0 Z M 30.96875 -191.5625 L 30.96875 -2.1875 L 72.078125 -2.1875 C 82.492188 -2.1875 92.269531 -4.609375 101.40625 -9.453125 C 110.539062 -14.296875 118.578125 -21.054688 125.515625 -29.734375 C 132.460938 -38.410156 137.898438 -48.410156 141.828125 -59.734375 C 145.753906 -71.066406 147.71875 -83.3125 147.71875 -96.46875 C 147.71875 -109.625 145.753906 -121.910156 141.828125 -133.328125 C 137.898438 -144.742188 132.460938 -154.835938 125.515625 -163.609375 C 118.578125 -172.378906 110.539062 -179.226562 101.40625 -184.15625 C 92.269531 -189.09375 82.492188 -191.5625 72.078125 -191.5625 Z M 30.96875 -191.5625 "/></g></g></g><g clip-path="url(#7b98d4b51d)"><g transform="matrix(1, 0, 0, 1, -0.000000000000001776, 284)"><g clip-path="url(#c9cf2bff5e)"><g fill="#d68e85" fill-opacity="1"><g transform="translate(0.680914, 90.169345)"><g><path d="M 32.09375 0 L 4.265625 0 L 4.265625 -86.15625 L 32.09375 -86.15625 C 37.945312 -86.15625 43.4375 -85.035156 48.5625 -82.796875 C 53.6875 -80.554688 58.222656 -77.460938 62.171875 -73.515625 C 66.117188 -69.578125 69.210938 -65.003906 71.453125 -59.796875 C 73.691406 -54.585938 74.8125 -48.972656 74.8125 -42.953125 C 74.8125 -37.015625 73.691406 -31.441406 71.453125 -26.234375 C 69.210938 -21.023438 66.117188 -16.445312 62.171875 -12.5 C 58.222656 -8.5625 53.6875 -5.492188 48.5625 -3.296875 C 43.4375 -1.097656 37.945312 0 32.09375 0 Z M 13.796875 -85.296875 L 13.796875 -0.96875 L 32.09375 -0.96875 C 36.726562 -0.96875 41.078125 -2.046875 45.140625 -4.203125 C 49.210938 -6.359375 52.796875 -9.367188 55.890625 -13.234375 C 58.984375 -17.097656 61.40625 -21.550781 63.15625 -26.59375 C 64.90625 -31.644531 65.78125 -37.097656 65.78125 -42.953125 C 65.78125 -48.804688 64.90625 -54.273438 63.15625 -59.359375 C 61.40625 -64.453125 58.984375 -68.945312 55.890625 -72.84375 C 52.796875 -76.75 49.210938 -79.800781 45.140625 -82 C 41.078125 -84.195312 36.726562 -85.296875 32.09375 -85.296875 Z M 13.796875 -85.296875 "/></g></g></g><g fill="#d68e85" fill-opacity="1"><g transform="translate(84.272874, 90.169345)"><g><path d="M 4.265625 0 L 4.265625 -86.15625 L 13.421875 -86.15625 L 13.421875 0 Z M 4.265625 0 "/></g></g></g><g fill="#d68e85" fill-opacity="1"><g transform="translate(106.482968, 90.169345)"><g><path d="M 76.875 -86.28125 L 78.09375 -86.28125 L 71.75 -71.390625 L 41.609375 0 L 40.640625 0 L 4.265625 -86.28125 L 14.28125 -86.28125 L 45.640625 -12.203125 L 50.40625 -23.796875 Z M 76.875 -86.28125 "/></g></g></g><g fill="#d68e85" fill-opacity="1"><g transform="translate(193.369772, 90.169345)"><g><path d="M 4.265625 0 L 4.265625 -86.15625 L 13.421875 -86.15625 L 13.421875 0 Z M 4.265625 0 "/></g></g></g><g fill="#d68e85" fill-opacity="1"><g transform="translate(215.579866, 90.169345)"><g><path d="M 4.265625 -86.15625 L 13.421875 -86.15625 C 20.097656 -86.15625 26.015625 -83.894531 31.171875 -79.375 C 36.335938 -74.863281 40.671875 -69.066406 44.171875 -61.984375 C 47.753906 -55.316406 50.601562 -47.972656 52.71875 -39.953125 C 54.832031 -31.941406 56.335938 -23.992188 57.234375 -16.109375 L 57.234375 -86.15625 L 66.390625 -86.15625 L 66.390625 0 L 57.234375 0 C 57.234375 -6.507812 56.722656 -13.382812 55.703125 -20.625 C 54.691406 -27.863281 53.1875 -35.019531 51.1875 -42.09375 C 49.195312 -49.175781 46.695312 -55.644531 43.6875 -61.5 C 40.03125 -68.5 35.71875 -74.210938 30.75 -78.640625 C 25.789062 -83.078125 20.015625 -85.296875 13.421875 -85.296875 L 13.421875 0 L 4.265625 0 Z M 4.265625 -86.15625 "/></g></g></g><g fill="#d68e85" fill-opacity="1"><g transform="translate(290.751643, 90.169345)"><g><path d="M 13.671875 -57.484375 L 13.671875 -0.96875 L 34.296875 -0.96875 C 39.578125 -0.96875 43.90625 -2.269531 47.28125 -4.875 C 50.65625 -7.476562 53.441406 -11.875 55.640625 -18.0625 L 52.84375 0 L 4.265625 0 L 4.265625 -86.15625 L 53.578125 -86.15625 L 53.578125 -76.390625 C 50.722656 -79.160156 47.953125 -81.175781 45.265625 -82.4375 C 42.585938 -83.695312 39.5625 -84.488281 36.1875 -84.8125 C 32.8125 -85.132812 28.640625 -85.296875 23.671875 -85.296875 L 13.671875 -85.296875 L 13.671875 -65.53125 C 13.671875 -60 14.601562 -55.769531 16.46875 -52.84375 C 18.34375 -49.914062 21.148438 -47.941406 24.890625 -46.921875 C 28.628906 -45.898438 33.304688 -45.390625 38.921875 -45.390625 L 38.921875 -35.75 C 37.140625 -37.789062 35.003906 -39.398438 32.515625 -40.578125 C 30.035156 -41.753906 27.515625 -42.972656 24.953125 -44.234375 C 22.390625 -45.492188 20.09375 -47.117188 18.0625 -49.109375 C 16.03125 -51.109375 14.566406 -53.898438 13.671875 -57.484375 Z M 13.671875 -57.484375 "/></g></g></g><g fill="#d68e85" fill-opacity="1"><g transform="translate(355.184651, 90.169345)"><g/></g></g><g fill="#d68e85" fill-opacity="1"><g transform="translate(393.74697, 90.169345)"><g><path d="M 32.09375 0 L 4.265625 0 L 4.265625 -86.15625 L 32.09375 -86.15625 C 37.945312 -86.15625 43.4375 -85.035156 48.5625 -82.796875 C 53.6875 -80.554688 58.222656 -77.460938 62.171875 -73.515625 C 66.117188 -69.578125 69.210938 -65.003906 71.453125 -59.796875 C 73.691406 -54.585938 74.8125 -48.972656 74.8125 -42.953125 C 74.8125 -37.015625 73.691406 -31.441406 71.453125 -26.234375 C 69.210938 -21.023438 66.117188 -16.445312 62.171875 -12.5 C 58.222656 -8.5625 53.6875 -5.492188 48.5625 -3.296875 C 43.4375 -1.097656 37.945312 0 32.09375 0 Z M 13.796875 -85.296875 L 13.796875 -0.96875 L 32.09375 -0.96875 C 36.726562 -0.96875 41.078125 -2.046875 45.140625 -4.203125 C 49.210938 -6.359375 52.796875 -9.367188 55.890625 -13.234375 C 58.984375 -17.097656 61.40625 -21.550781 63.15625 -26.59375 C 64.90625 -31.644531 65.78125 -37.097656 65.78125 -42.953125 C 65.78125 -48.804688 64.90625 -54.273438 63.15625 -59.359375 C 61.40625 -64.453125 58.984375 -68.945312 55.890625 -72.84375 C 52.796875 -76.75 49.210938 -79.800781 45.140625 -82 C 41.078125 -84.195312 36.726562 -85.296875 32.09375 -85.296875 Z M 13.796875 -85.296875 "/></g></g></g><g fill="#d68e85" fill-opacity="1"><g transform="translate(477.33893, 90.169345)"><g><path d="M 13.671875 -57.484375 L 13.671875 -0.96875 L 34.296875 -0.96875 C 39.578125 -0.96875 43.90625 -2.269531 47.28125 -4.875 C 50.65625 -7.476562 53.441406 -11.875 55.640625 -18.0625 L 52.84375 0 L 4.265625 0 L 4.265625 -86.15625 L 53.578125 -86.15625 L 53.578125 -76.390625 C 50.722656 -79.160156 47.953125 -81.175781 45.265625 -82.4375 C 42.585938 -83.695312 39.5625 -84.488281 36.1875 -84.8125 C 32.8125 -85.132812 28.640625 -85.296875 23.671875 -85.296875 L 13.671875 -85.296875 L 13.671875 -65.53125 C 13.671875 -60 14.601562 -55.769531 16.46875 -52.84375 C 18.34375 -49.914062 21.148438 -47.941406 24.890625 -46.921875 C 28.628906 -45.898438 33.304688 -45.390625 38.921875 -45.390625 L 38.921875 -35.75 C 37.140625 -37.789062 35.003906 -39.398438 32.515625 -40.578125 C 30.035156 -41.753906 27.515625 -42.972656 24.953125 -44.234375 C 22.390625 -45.492188 20.09375 -47.117188 18.0625 -49.109375 C 16.03125 -51.109375 14.566406 -53.898438 13.671875 -57.484375 Z M 13.671875 -57.484375 "/></g></g></g><g fill="#d68e85" fill-opacity="1"><g transform="translate(541.771938, 90.169345)"><g><path d="M 33.3125 0 L 33.3125 -85.296875 C 29 -85.296875 25.15625 -85.113281 21.78125 -84.75 C 18.40625 -84.382812 15.3125 -83.609375 12.5 -82.421875 C 9.695312 -81.242188 6.953125 -79.351562 4.265625 -76.75 L 4.265625 -86.28125 L 71.75 -86.28125 L 71.75 -76.75 C 68.988281 -79.351562 66.203125 -81.242188 63.390625 -82.421875 C 60.585938 -83.609375 57.515625 -84.382812 54.171875 -84.75 C 50.835938 -85.113281 47.015625 -85.296875 42.703125 -85.296875 L 42.703125 0 Z M 33.3125 0 "/></g></g></g><g fill="#d68e85" fill-opacity="1"><g transform="translate(622.313071, 90.169345)"><g><path d="M 63.578125 0 L 49.78125 -33.078125 C 44.582031 -32.585938 40.289062 -31.523438 36.90625 -29.890625 C 33.53125 -28.265625 30.804688 -26.289062 28.734375 -23.96875 C 26.660156 -21.65625 24.992188 -19.238281 23.734375 -16.71875 C 22.472656 -14.195312 21.351562 -11.835938 20.375 -9.640625 C 19.238281 -6.628906 18 -4.125 16.65625 -2.125 C 15.3125 -0.132812 13.257812 0.816406 10.5 0.734375 C 10.164062 0.648438 9.859375 0.566406 9.578125 0.484375 C 9.296875 0.398438 8.953125 0.195312 8.546875 -0.125 C 5.203125 -1.582031 3.859375 -5.117188 4.515625 -10.734375 C 4.835938 -13.421875 5.425781 -16.453125 6.28125 -19.828125 C 7.132812 -23.203125 8.296875 -26.84375 9.765625 -30.75 C 11.960938 -36.601562 14.546875 -42.804688 17.515625 -49.359375 C 20.484375 -55.910156 23.613281 -62.378906 26.90625 -68.765625 C 30.195312 -75.148438 33.390625 -80.945312 36.484375 -86.15625 L 37.34375 -86.15625 L 73.828125 0 Z M 49.421875 -33.921875 L 31.484375 -75.65625 C 27.742188 -68.5 23.976562 -60.953125 20.1875 -53.015625 C 16.40625 -45.085938 13.210938 -37.582031 10.609375 -30.5 C 9.148438 -26.601562 7.992188 -22.984375 7.140625 -19.640625 C 6.285156 -16.304688 5.695312 -13.335938 5.375 -10.734375 C 5.289062 -8.210938 5.492188 -6.078125 5.984375 -4.328125 C 6.472656 -2.578125 7.445312 -1.457031 8.90625 -0.96875 C 9.3125 -0.894531 9.613281 -0.816406 9.8125 -0.734375 C 10.019531 -0.648438 10.285156 -0.523438 10.609375 -0.359375 C 13.054688 -0.203125 14.890625 -1.054688 16.109375 -2.921875 C 17.328125 -4.796875 18.425781 -7.117188 19.40625 -9.890625 C 20.382812 -12.160156 21.519531 -14.578125 22.8125 -17.140625 C 24.113281 -19.703125 25.84375 -22.160156 28 -24.515625 C 30.15625 -26.878906 32.941406 -28.914062 36.359375 -30.625 C 39.773438 -32.332031 44.128906 -33.429688 49.421875 -33.921875 Z M 49.421875 -33.921875 "/></g></g></g><g fill="#d68e85" fill-opacity="1"><g transform="translate(704.928829, 90.169345)"><g><path d="M 4.265625 0 L 4.265625 -86.15625 L 13.421875 -86.15625 L 13.421875 0 Z M 4.265625 0 "/></g></g></g><g fill="#d68e85" fill-opacity="1"><g transform="translate(727.138895, 90.169345)"><g><path d="M 55.890625 -18.0625 L 52.96875 0 L 4.265625 0 L 4.265625 -86.15625 L 14.03125 -86.15625 L 14.03125 -0.96875 L 34.65625 -0.96875 C 39.945312 -0.96875 44.238281 -2.269531 47.53125 -4.875 C 50.820312 -7.476562 53.609375 -11.875 55.890625 -18.0625 Z M 55.890625 -18.0625 "/></g></g></g></g></g></g></g></g></svg>